{
.appVersion = "3151";
.formatVersion = 3;
axes = (
{
name = Weight;
tag = wght;
}
);
classes = (
{
automatic = 1;
code = "A Aacute Abreve Acircumflex Adieresis Agrave Amacron Aogonek Aring Atilde AE B C Cacute Ccaron Ccedilla Ccircumflex Cdotaccent D Eth Dcaron Dcroat E Eacute Ecaron Ecircumflex Edieresis Edotaccent Egrave Emacron Eogonek Etilde Schwa F G Gbreve Gcircumflex Gcommaaccent Gdotaccent Gmacron H Hbar Hcircumflex I IJ Iacute Icircumflex Idieresis Idotaccent Igrave Imacron Iogonek Itilde J Jacute Jcircumflex K Kcommaaccent L Lacute Lcaron Lcommaaccent Lslash M N Nacute Ncaron Ncommaaccent Ntilde Eng O Oacute Ocircumflex Odieresis Ograve Ohungarumlaut Omacron Oslash Otilde OE P Thorn Q R Racute Rcaron Rcommaaccent S Sacute Saltillo Scaron Scedilla Scircumflex Scommaaccent Germandbls T Tcaron Tcedilla Tcommaaccent U Uacute Ubreve Ucircumflex Udieresis Ugrave Uhungarumlaut Umacron Uogonek Uring Utilde V W Wacute Wcircumflex Wdieresis Wgrave X Y Yacute Ycircumflex Ydieresis Ygrave Ytilde Z Zacute Zcaron Zdotaccent Iacute_J.loclNLD Lcommaaccent.loclMAH Ncommaaccent.loclMAH";
name = Uppercase;
}
);
customParameters = (
{
name = panose;
value = (
0,
0,
0,
0,
0,
0,
0,
0,
0,
0
);
},
{
name = fsType;
value = (
);
},
{
name = "Write lastChange";
value = 0;
},
{
name = "Use Typo Metrics";
value = 1;
},
{
name = "Use Line Breaks";
value = 1;
},
{
name = "Enforce Compatibility Check";
value = 1;
},
{
name = vendorID;
value = TBLD;
}
);
date = "2023-12-10 12:24:40 +0000";
familyName = Wittgenstein;
featurePrefixes = (
{
automatic = 1;
code = "languagesystem DFLT dflt;
languagesystem DFLT MAH;

languagesystem latn dflt;
languagesystem latn AZE;
languagesystem latn CRT;
languagesystem latn KAZ;
languagesystem latn TAT;
languagesystem latn TRK;
languagesystem latn ROM;
languagesystem latn MOL;
languagesystem latn MAH;
languagesystem latn NLD;
languagesystem latn CAT;
";
name = Languagesystems;
}
);
features = (
{
automatic = 1;
code = "feature locl;
feature numr;

glyphs = (
{
color = 4;
glyphname = A;
layers = (
{
anchors = (
{
name = ogo;
pos = (488,0);
},
{
name = top;
pos = (383,700);
}
);
layerId = m01;
shapes = (
{
closed = 1;
nodes = (
(248,0,l),
(248,19,l),
(137,56,l),
(148,33,l),
(232,258,l),
(208,241,l),
(511,241,l),
(487,258,l),
(570,33,l),
(581,56,l),
(473,20,l),
(473,0,l),
(757,0,l),
(757,19,l),
(646,56,l),
(672,33,l),
(428,720,l),
(333,700,l),
(93,33,l),
(116,56,l),
(8,20,l),
(8,0,l)
);
},
{
closed = 1;
nodes = (
(366,643,l),
(354,643,l),
(484,264,l),
(496,281,l),
(223,281,l),
(235,264,l)
);
}
);
width = 765;
},
{
anchors = (
{
name = top;
pos = (398,671);
}
);
associatedMasterId = m01;
layerId = "77F1F182-FFCF-4508-A517-31895B1E2DC0";
name = "1. Jan. 24, 22:37";
shapes = (
{
closed = 1;
nodes = (
(683,50,l),
(442,720,l),
(343,700,l),
(584,50,l)
);
},
{
closed = 1;
nodes = (
(248,0,l),
(248,19,l),
(154,50,l),
(99,50,l),
(8,20,l),
(8,0,l)
);
},
{
closed = 1;
nodes = (
(154,50,l),
(398,700,l),
(343,700,l),
(99,50,l)
);
},
{
closed = 1;
nodes = (
(540,241,l),
(540,281,l),
(194,281,l),
(194,241,l)
);
},
{
closed = 1;
nodes = (
(777,0,l),
(777,19,l),
(683,50,l),
(584,50,l),
(493,20,l),
(493,0,l)
);
}
);
width = 785;
},
{
anchors = (
{
name = ogo;
pos = (478,0);
},
{
name = top;
pos = (389,700);
}
);
background = {
shapes = (
{
closed = 1;
nodes = (
(212,0,l),
(212,20,l),
(119,50,l),
(119,648,l),
(212,680,l),
(212,700,l),
(-158,700,l),
(-158,680,l),
(-65,650,l),
(-65,50,l),
(-158,20,l),
(-158,0,l)
);
}
);
};
hints = (
{
horizontal = 1;
place = (0, 16);
place = (0, 16);
type = Stem;
},
{
horizontal = 1;
place = (238, 46);
place = (238, 46);
type = Stem;
},
{
horizontal = 1;
place = (715, -20);
target = down;
type = TopGhost;
},
{
place = (-35, 855);
place = (-35, 855);
type = Stem;
}
);
layerId = "E0989092-07D5-4BE4-A82B-4E03160A36DB";
shapes = (
{
closed = 1;
nodes = (
(232,0,l),
(232,20,l),
(119,57,l),
(120,48,l),
(193,240,l),
(188,238,l),
(445,238,l),
(442,240,l),
(514,48,l),
(515,51,l),
(420,20,l),
(420,0,l),
(790,0,l),
(790,20,l),
(708,47,l),
(711,44,l),
(484,715,l),
(293,700,l),
(67,48,l),
(70,51,l),
(-25,20,l),
(-25,0,l)
);
},
{
closed = 1;
nodes = (
(326,648,l),
(310,648,l),
(428,276,l),
(429,278,l),
(204,278,l),
(207,276,l)
);
}
);
width = 755;
}
);
unicode = 65;
},
{
color = 10;
glyphname = AE;
layers = (
{
layerId = m01;
shapes = (
{
closed = 1;
nodes = (
(894,0,l),
(929,197,l),
(910,204,l),
(821,34,l),
(847,50,l),
(565,50,l),
(583,32,l),
(583,359,l),
(565,341,l),
(737,341,l),
(712,359,l),
(750,245,l),
(769,245,l),
(769,475,l),
(749,475,l),
(712,363,l),
(737,381,l),
(565,381,l),
(583,363,l),
(583,668,l),
(565,650,l),
(852,650,l),
(829,667,l),
(870,520,l),
(891,520,l),
(891,700,l),
(488,700,l),
(488,698,l),
(95,34,l),
(120,56,l),
(12,20,l),
(12,0,l),
(252,0,l),
(252,19,l),
(141,56,l),
(150,34,l),
(251,227,l),
(225,211,l),
(506,211,l),
(488,229,l),
(488,0,l)
);
},
{
closed = 1;
nodes = (
(496,614,l),
(488,616,l),
(488,233,l),
(506,251,l),
(246,251,l),
(256,235,l)
);
}
);
width = 941;
},
{
associatedMasterId = m01;
layerId = "65F6BFA4-FC38-41E6-9ED1-2CEBC3AB3BF6";
name = "2. Jan. 24, 00:57";
shapes = (
{
closed = 1;
nodes = (
(894,0,l),
(929,197,l),
(910,204,l),
(829,50,l),
(543,50,l),
(543,341,l),
(719,341,l),
(719,339,l),
(750,245,l),
(769,245,l),
(769,475,l),
(749,475,l),
(719,384,l),
(719,381,l),
(543,381,l),
(543,650,l),
(834,650,l),
(870,520,l),
(891,520,l),
(891,700,l),
(448,700,l),
(448,0,l)
);
},
{
closed = 1;
nodes = (
(252,0,l),
(252,19,l),
(158,50,l),
(103,50,l),
(12,20,l),
(12,0,l)
);
},
{
closed = 1;
nodes = (
(514,211,l),
(514,251,l),
(218,251,l),
(218,211,l)
);
},
{
closed = 1;
nodes = (
(158,50,l),
(502,700,l),
(449,700,l),
(103,50,l)
);
}
);
width = 941;
},
{
hints = (
{
horizontal = 1;
place = (-3, 56);
place = (-3, 56);
type = Stem;
},
{
horizontal = 1;
place = (208, 46);
place = (208, 46);
type = Stem;
},
{
horizontal = 1;
place = (338, 46);
place = (338, 46);
type = Stem;
},
{
horizontal = 1;
place = (647, 56);
place = (647, 56);
type = Stem;
},
{
place = (498, 165);
place = (498, 165);
type = Stem;
},
{
place = (754, 85);
place = (754, 85);
type = Stem;
},
{
place = (787, 52);
place = (787, 52);
type = Stem;
},
{
place = (786, 53);
place = (786, 53);
type = Stem;
},
{
place = (922, 56);
place = (922, 56);
type = Stem;
},
{
horizontal = 1;
place = (517, 186);
place = (517, 186);
type = Stem;
},
{
horizontal = 1;
place = (0, 16);
place = (0, 16);
type = Stem;
}
);
layerId = "E0989092-07D5-4BE4-A82B-4E03160A36DB";
shapes = (
{
closed = 1;
nodes = (
(899,-3,l),
(934,190,l),
(905,224,l),
(815,51,l),
(818,53,l),
(580,53,l),
(582,51,l),
(582,340,l),
(580,338,l),
(696,338,l),
(693,340,l),
(727,242,l),
(759,242,l),
(759,478,l),
(726,478,l),
(693,382,l),
(696,384,l),
(580,384,l),
(582,382,l),
(582,649,l),
(580,647,l),
(818,647,l),
(815,649,l),
(852,517,l),
(898,517,l),
(898,703,l),
(398,703,l),
(398,690,l),
(24,45,l),
(27,48,l),
(-68,17,l),
(-68,0,l),
(170,0,l),
(170,16,l),
(79,47,l),
(80,44,l),
(181,210,l),
(178,208,l),
(400,208,l),
(398,210,l),
(398,-3,l)
);
},
{
closed = 1;
nodes = (
(399,594,l),
(398,594,l),
(398,252,l),
(400,254,l),
(208,254,l),
(209,252,l)
);
}
);
width = 956;
}
);
unicode = 198;
},
{
color = 4;
glyphname = B;
layers = (
{
anchors = (
{
name = top;
pos = (306,700);
}
);
layerId = m01;
shapes = (
{
closed = 1;
nodes = (
(324,0,ls),
(495,0,o),
(602,79,o),
(602,205,cs),
(602,291,o),
(541,352,o),
(440,372,c),
(442,363,l),
(516,396,o),
(562,459,o),
(562,537,cs),
(562,632,o),
(476,700,o),
(354,700,cs),
(34,700,l),
(34,680,l),
(142,644,l),
(125,668,l),
(125,32,l),
(142,56,l),
(34,20,l),
(34,0,l)
);
},
{
closed = 1;
nodes = (
(220,359,l),
(202,341,l),
(324,341,ls),
(427,341,o),
(492,278,o),
(492,177,cs),
(492,99,o),
(439,50,o),
(354,50,cs),
(202,50,l),
(220,32,l)
);
},
{
closed = 1;
nodes = (
(220,668,l),
(202,650,l),
(324,650,ls),
(399,650,o),
(452,590,o),
(452,505,cs),
(452,432,o),
(411,381,o),
(354,381,cs),
(202,381,l),
(220,363,l)
);
}
);
width = 642;
},
{
anchors = (
{
name = top;
pos = (306,700);
}
);
associatedMasterId = m01;
layerId = "4784B320-B7C0-473D-AF98-435A13D7944F";
name = "1. Jan. 24, 22:48";
shapes = (
{
closed = 1;
nodes = (
(495,0,o),
(602,79,o),
(602,205,cs),
(602,313,o),
(506,381,o),
(354,381,c),
(324,341,l),
(427,341,o),
(492,278,o),
(492,177,cs),
(492,99,o),
(439,50,o),
(354,50,c),
(324,0,l)
);
},
{
closed = 1;
nodes = (
(324,0,l),
(354,50,l),
(125,50,l),
(34,20,l),
(34,0,l)
);
},
{
closed = 1;
nodes = (
(220,50,l),
(220,650,l),
(125,650,l),
(125,50,l)
);
},
{
closed = 1;
nodes = (
(324,341,l),
(354,381,l),
(190,381,l),
(190,341,l)
);
},
{
closed = 1;
nodes = (
(324,650,l),
(354,700,l),
(34,700,l),
(34,680,l),
(125,650,l)
);
},
{
closed = 1;
nodes = (
(463,341,o),
(562,422,o),
(562,537,cs),
(562,632,o),
(476,700,o),
(354,700,c),
(324,650,l),
(399,650,o),
(452,590,o),
(452,505,cs),
(452,432,o),
(411,381,o),
(354,381,c),
(324,341,l)
);
}
);
width = 660;
},
{
anchors = (
{
name = top;
pos = (337,700);
}
);
hints = (
{
horizontal = 1;
place = (0, 53);
place = (0, 53);
type = Stem;
},
{
horizontal = 1;
place = (338, 46);
place = (338, 46);
type = Stem;
},
{
horizontal = 1;
place = (647, 53);
place = (647, 53);
type = Stem;
},
{
place = (48, 182);
place = (48, 182);
type = Stem;
},
{
place = (415, 197);
place = (415, 197);
type = Stem;
},
{
place = (375, 197);
place = (375, 197);
type = Stem;
},
{
horizontal = 1;
place = (687, 13);
place = (687, 13);
type = Stem;
}
);
layerId = "E0989092-07D5-4BE4-A82B-4E03160A36DB";
shapes = (
{
closed = 1;
nodes = (
(320,0,ls),
(516,0,o),
(655,81,o),
(655,195,cs),
(655,268,o),
(586,341,o),
(489,370,c),
(490,368,l),
(563,398,o),
(615,468,o),
(615,537,cs),
(615,632,o),
(521,700,o),
(387,700,cs),
(0,700,l),
(0,687,l),
(91,646,l),
(89,649,l),
(89,51,l),
(91,54,l),
(0,13,l),
(0,0,l)
);
},
{
closed = 1;
nodes = (
(273,338,l),
(271,336,l),
(334,336,ls),
(415,336,o),
(473,270,o),
(473,177,cs),
(473,103,o),
(426,50,o),
(360,50,cs),
(271,50,l),
(273,48,l)
);
},
{
closed = 1;
nodes = (
(273,652,l),
(271,650,l),
(337,650,ls),
(393,650,o),
(433,590,o),
(433,505,cs),
(433,435,o),
(402,386,o),
(359,386,cs),
(271,386,l),
(273,384,l)
);
}
);
width = 675;
}
);
unicode = 66;
},
{
color = 4;
glyphname = C;
layers = (
{
anchors = (
{
name = ced;
pos = (395,0);
},
{
name = top;
pos = (367,700);
}
);
layerId = m01;
shapes = (
{
closed = 1;
nodes = (
(453,-15,o),
(552,13,o),
(624,52,c),
(624,200,l),
(586,200,l),
(586,97,o),
(512,24,o),
(407,24,cs),
(257,24,o),
(151,186,o),
(151,415,cs),
(151,568,o),
(240,676,o),
(367,676,cs),
(477,676,o),
(586,582,o),
(586,500,c),
(624,500,l),
(624,648,l),
(552,687,o),
(454,715,o),
(387,715,cs),
(185,713,o),
(42,561,o),
(42,347,cs),
(42,135,o),
(185,-15,o),
(387,-15,cs)
);
}
);
width = 700;
},
{
anchors = (
{
name = ced;
pos = (395,0);
},
{
name = top;
pos = (367,700);
}
);
associatedMasterId = m01;
layerId = "25A143D6-1FAB-478C-920D-4B3D556C234A";
name = "1. Jan. 24, 22:49";
shapes = (
{
closed = 1;
nodes = (
(407,24,l),
(257,24,o),
(151,186,o),
(151,415,cs),
(151,568,o),
(240,676,o),
(367,676,c),
(387,715,l),
(185,713,o),
(42,561,o),
(42,347,cs),
(42,135,o),
(185,-15,o),
(387,-15,c)
);
},
{
closed = 1;
nodes = (
(453,-15,o),
(552,13,o),
(624,52,c),
(624,200,l),
(586,200,l),
(586,97,o),
(512,24,o),
(407,24,c),
(387,-15,l)
);
},
{
closed = 1;
nodes = (
(624,500,l),
(624,648,l),
(552,687,o),
(454,715,o),
(387,715,c),
(367,676,l),
(477,676,o),
(586,582,o),
(586,500,c)
);
}
);
width = 700;
},
{
anchors = (
{
name = ced;
pos = (407,0);
},
{
name = top;
pos = (405,700);
}
);
hints = (
{
horizontal = 1;
place = (-18, 45);
place = (-18, 45);
type = Stem;
},
{
horizontal = 1;
place = (673, 45);
place = (673, 45);
type = Stem;
},
{
place = (-1, 195);
place = (-1, 195);
type = Stem;
},
{
place = (589, 78);
place = (589, 78);
type = Stem;
}
);
layerId = "E0989092-07D5-4BE4-A82B-4E03160A36DB";
shapes = (
{
closed = 1;
nodes = (
(499,-18,o),
(585,15,o),
(657,62,c),
(657,203,l),
(607,203,l),
(609,100,o),
(525,32,o),
(423,32,cs),
(300,32,o),
(212,188,o),
(212,415,cs),
(212,566,o),
(285,668,o),
(385,668,cs),
(523,668,o),
(611,614,o),
(607,497,c),
(657,497,l),
(657,638,l),
(585,685,o),
(497,718,o),
(405,718,cs),
(178,720,o),
(17,566,o),
(17,347,cs),
(17,133,o),
(178,-18,o),
(407,-18,cs)
);
}
);
width = 700;
}
);
unicode = 67;
},
{
color = 4;
glyphname = D;
layers = (
{
anchors = (
{
name = top;
pos = (334,700);
}
);
layerId = m01;
shapes = (
{
closed = 1;
nodes = (
(362,0,ls),
(560,0,o),
(700,160,o),
(700,385,cs),
(700,569,o),
(572,700,o),
(392,700,cs),
(32,700,l),
(32,680,l),
(140,644,l),
(123,668,l),
(123,32,l),
(140,56,l),
(32,20,l),
(32,0,l)
);
},
{
closed = 1;
nodes = (
(218,668,l),
(200,650,l),
(362,650,ls),
(496,650,o),
(590,523,o),
(590,344,cs),
(590,172,o),
(508,50,o),
(392,50,cs),
(200,50,l),
(218,32,l)
);
}
);
width = 754;
},
{
anchors = (
{
name = top;
pos = (334,700);
}
);
associatedMasterId = m01;
layerId = "D0A44D90-46C3-4D09-9D47-6B4D893B9BFC";
name = "1. Jan. 24, 22:50";
shapes = (
{
closed = 1;
nodes = (
(560,0,o),
(700,160,o),
(700,385,cs),
(700,569,o),
(572,700,o),
(392,700,c),
(362,650,l),
(496,650,o),
(590,523,o),
(590,344,cs),
(590,172,o),
(508,50,o),
(392,50,c),
(362,0,l)
);
},
{
closed = 1;
nodes = (
(362,0,l),
(392,50,l),
(123,50,l),
(32,20,l),
(32,0,l)
);
},
{
closed = 1;
nodes = (
(218,50,l),
(218,650,l),
(123,650,l),
(123,50,l)
);
},
{
closed = 1;
nodes = (
(362,650,l),
(392,700,l),
(32,700,l),
(32,680,l),
(123,650,l)
);
}
);
width = 754;
},
{
anchors = (
{
name = top;
pos = (367,700);
}
);
hints = (
{
horizontal = 1;
place = (0, 47);
place = (0, 47);
type = Stem;
},
{
horizontal = 1;
place = (653, 47);
place = (653, 47);
type = Stem;
},
{
place = (63, 182);
place = (63, 182);
type = Stem;
},
{
place = (530, 197);
place = (530, 197);
type = Stem;
},
{
horizontal = 1;
place = (687, 13);
place = (687, 13);
type = Stem;
}
);
layerId = "E0989092-07D5-4BE4-A82B-4E03160A36DB";
shapes = (
{
closed = 1;
nodes = (
(365,0,ls),
(593,0,o),
(755,160,o),
(755,385,cs),
(755,569,o),
(608,700,o),
(400,700,cs),
(0,700,l),
(0,687,l),
(93,654,l),
(91,657,l),
(91,44,l),
(93,47,l),
(0,17,l),
(0,0,l)
);
},
{
closed = 1;
nodes = (
(273,652,l),
(271,650,l),
(367,650,ls),
(479,650,o),
(572,525,o),
(572,344,cs),
(572,170,o),
(491,50,o),
(398,50,cs),
(271,50,l),
(273,48,l)
);
}
);
width = 764;
}
);
unicode = 68;
},
{
color = 10;
glyphname = Eth;
layers = (
{
layerId = m01;
shapes = (
{
closed = 1;
nodes = (
(352,337,l),
(352,379,l),
(32,379,l),
(32,337,l)
);
},
{
ref = D;
}
);
width = 754;
},
{
hints = (
{
horizontal = 1;
place = (-3, 56);
place = (-3, 56);
type = Stem;
},
{
horizontal = 1;
place = (334, 48);
place = (334, 48);
type = Stem;
},
{
horizontal = 1;
place = (647, 56);
place = (647, 56);
type = Stem;
},
{
place = (80, 181);
place = (80, 181);
type = Stem;
},
{
place = (547, 196);
place = (547, 196);
type = Stem;
},
{
horizontal = 1;
place = (687, 16);
place = (687, 16);
type = Stem;
}
);
layerId = "E0989092-07D5-4BE4-A82B-4E03160A36DB";
shapes = (
{
closed = 1;
nodes = (
(395,334,l),
(395,382,l),
(-11,382,l),
(-11,334,l)
);
},
{
ref = D;
}
);
width = 754;
}
);
unicode = 208;
},
{
color = 4;
glyphname = E;
layers = (
{
anchors = (
{
name = ogo;
pos = (313,0);
},
{
name = top;
pos = (339,700);
}
);
layerId = m01;
shapes = (
{
closed = 1;
nodes = (
(569,0,l),
(604,197,l),
(585,204,l),
(496,34,l),
(522,50,l),
(200,50,l),
(218,32,l),
(218,359,l),
(200,341,l),
(412,341,l),
(388,358,l),
(425,245,l),
(444,245,l),
(444,475,l),
(424,475,l),
(389,364,l),
(412,381,l),
(200,381,l),
(218,363,l),
(218,668,l),
(200,650,l),
(527,650,l),
(504,667,l),
(545,520,l),
(566,520,l),
(566,700,l),
(32,700,l),
(32,680,l),
(140,644,l),
(123,668,l),
(123,32,l),
(140,56,l),
(32,20,l),
(32,0,l)
);
}
);
width = 649;
},
{
anchors = (
{
name = top;
pos = (334,700);
}
);
associatedMasterId = m01;
layerId = "FEC74467-989F-442E-8B17-9EE45420A350";
name = "2. Jan. 24, 00:41";
shapes = (
{
closed = 1;
nodes = (
(218,50,l),
(218,650,l),
(123,650,l),
(123,50,l)
);
},
{
closed = 1;
nodes = (
(504,0,l),
(504,50,l),
(123,50,l),
(32,20,l),
(32,0,l)
);
},
{
closed = 1;
nodes = (
(569,0,l),
(604,197,l),
(585,204,l),
(504,50,l),
(504,0,l)
);
},
{
closed = 1;
nodes = (
(444,341,l),
(444,381,l),
(188,381,l),
(188,341,l)
);
},
{
closed = 1;
nodes = (
(444,245,l),
(444,475,l),
(424,475,l),
(394,384,l),
(394,339,l),
(425,245,l)
);
},
{
closed = 1;
nodes = (
(509,650,l),
(509,700,l),
(32,700,l),
(32,680,l),
(123,650,l)
);
},
{
closed = 1;
nodes = (
(566,520,l),
(566,700,l),
(509,700,l),
(509,650,l),
(545,520,l)
);
}
);
width = 649;
},
{
anchors = (
{
name = ogo;
pos = (341,0);
},
{
name = top;
pos = (311,700);
}
);
hints = (
{
horizontal = 1;
place = (0, 47);
place = (0, 47);
type = Stem;
},
{
horizontal = 1;
place = (343, 38);
place = (343, 38);
type = Stem;
},
{
horizontal = 1;
place = (653, 47);
place = (653, 47);
type = Stem;
},
{
place = (63, 182);
place = (63, 182);
type = Stem;
},
{
place = (418, 36);
place = (418, 36);
type = Stem;
},
{
place = (553, 40);
place = (553, 40);
type = Stem;
},
{
place = (417, 37);
place = (417, 37);
type = Stem;
},
{
horizontal = 1;
place = (517, 183);
place = (517, 183);
type = Stem;
},
{
horizontal = 1;
place = (687, 13);
place = (687, 13);
type = Stem;
}
);
layerId = "E0989092-07D5-4BE4-A82B-4E03160A36DB";
shapes = (
{
closed = 1;
nodes = (
(622,0,l),
(657,190,l),
(625,206,l),
(542,48,l),
(545,50,l),
(273,50,l),
(275,48,l),
(275,339,l),
(273,337,l),
(398,337,l),
(395,339,l),
(436,242,l),
(456,242,l),
(456,478,l),
(435,478,l),
(395,385,l),
(398,387,l),
(273,387,l),
(275,385,l),
(275,652,l),
(273,650,l),
(546,650,l),
(543,652,l),
(581,517,l),
(621,517,l),
(621,700,l),
(0,700,l),
(0,687,l),
(93,654,l),
(91,657,l),
(91,43,l),
(93,46,l),
(0,13,l),
(0,0,l)
);
}
);
width = 669;
}
);
unicode = 69;
},
{
color = 5;
glyphname = Schwa;
layers = (
{
layerId = m01;
shapes = (
{
closed = 1;
nodes = (
(425,-14,o),
(536,145,o),
(537,370,cs),
(539,570,o),
(432,712,o),
(278,712,cs),
(194,712,o),
(102,659,o),
(57,585,c),
(93,566,l),
(130,609,o),
(192,640,o),
(243,640,cs),
(365,640,o),
(451,506,o),
(446,311,c),
(464,327,l),
(49,327,l),
(35,130,o),
(126,-14,o),
(269,-14,cs)
);
},
{
closed = 1;
nodes = (
(211,29,o),
(139,136,o),
(132,301,c),
(117,281,l),
(467,287,l),
(449,304,l),
(453,143,o),
(393,29,o),
(306,29,cs)
);
}
);
width = 590;
},
{
layerId = "E0989092-07D5-4BE4-A82B-4E03160A36DB";
shapes = (
{
closed = 1;
nodes = (
(453,-17,o),
(569,148,o),
(570,370,cs),
(572,565,o),
(459,715,o),
(268,715,cs),
(164,715,o),
(50,651,o),
(12,590,c),
(100,544,l),
(148,611,o),
(195,637,o),
(233,637,cs),
(316,637,o),
(392,513,o),
(393,320,c),
(395,324,l),
(-4,324,l),
(-20,125,o),
(79,-17,o),
(259,-17,cs)
);
},
{
closed = 1;
nodes = (
(240,32,o),
(180,70,o),
(163,277,c),
(161,274,l),
(398,284,l),
(396,286,l),
(395,128,o),
(342,32,o),
(296,32,cs)
);
}
);
width = 610;
}
);
unicode = 399;
},
{
color = 4;
glyphname = F;
layers = (
{
anchors = (
{
name = top;
pos = (338,700);
}
);
layerId = m01;
shapes = (
{
closed = 1;
nodes = (
(332,0,l),
(332,19,l),
(201,55,l),
(218,32,l),
(218,359,l),
(200,341,l),
(412,341,l),
(388,358,l),
(425,245,l),
(444,245,l),
(444,475,l),
(424,475,l),
(389,364,l),
(412,381,l),
(200,381,l),
(218,363,l),
(218,668,l),
(200,650,l),
(527,650,l),
(504,667,l),
(545,520,l),
(566,520,l),
(566,700,l),
(32,700,l),
(32,680,l),
(140,644,l),
(123,668,l),
(123,32,l),
(140,56,l),
(32,20,l),
(32,0,l)
);
}
);
width = 597;
},
{
anchors = (
{
name = top;
pos = (338,700);
}
);
associatedMasterId = m01;
layerId = "41430A1B-FDF3-479E-A5F3-835DC2B9B194";
name = "1. Jan. 24, 22:56";
shapes = (
{
closed = 1;
nodes = (
(218,50,l),
(218,650,l),
(123,650,l),
(123,50,l)
);
},
{
closed = 1;
nodes = (
(332,0,l),
(332,19,l),
(218,50,l),
(123,50,l),
(32,20,l),
(32,0,l)
);
},
{
closed = 1;
nodes = (
(444,341,l),
(444,381,l),
(188,381,l),
(188,341,l)
);
},
{
closed = 1;
nodes = (
(444,245,l),
(444,475,l),
(424,475,l),
(394,384,l),
(394,339,l),
(425,245,l)
);
},
{
closed = 1;
nodes = (
(509,650,l),
(509,700,l),
(32,700,l),
(32,680,l),
(123,650,l)
);
},
{
closed = 1;
nodes = (
(566,520,l),
(566,700,l),
(509,700,l),
(509,650,l),
(545,520,l)
);
}
);
width = 597;
},
{
anchors = (
{
name = top;
pos = (366,700);
}
);
hints = (
{
horizontal = 1;
place = (0, 17);
place = (0, 17);
type = Stem;
},
{
horizontal = 1;
place = (338, 46);
place = (338, 46);
type = Stem;
},
{
horizontal = 1;
place = (653, 47);
place = (653, 47);
type = Stem;
},
{
place = (63, 182);
place = (63, 182);
type = Stem;
},
{
place = (369, 85);
place = (369, 85);
type = Stem;
},
{
place = (402, 52);
place = (402, 52);
type = Stem;
},
{
place = (401, 53);
place = (401, 53);
type = Stem;
},
{
place = (520, 73);
place = (520, 73);
type = Stem;
},
{
horizontal = 1;
place = (513, 187);
place = (513, 187);
type = Stem;
},
{
horizontal = 1;
place = (683, 17);
place = (683, 17);
type = Stem;
}
);
layerId = "E0989092-07D5-4BE4-A82B-4E03160A36DB";
shapes = (
{
closed = 1;
nodes = (
(387,0,l),
(387,17,l),
(271,47,l),
(273,44,l),
(273,338,l),
(271,336,l),
(399,336,l),
(396,338,l),
(437,242,l),
(457,242,l),
(457,478,l),
(436,478,l),
(396,384,l),
(399,386,l),
(271,386,l),
(273,384,l),
(273,652,l),
(271,650,l),
(512,650,l),
(509,652,l),
(548,513,l),
(588,513,l),
(588,700,l),
(0,700,l),
(0,683,l),
(91,653,l),
(89,656,l),
(89,44,l),
(91,47,l),
(0,17,l),
(0,0,l)
);
}
);
width = 614;
}
);
unicode = 70;
},
{
color = 4;
glyphname = G;
layers = (
{
anchors = (
{
name = com;
pos = (406,-2);
},
{
name = top;
pos = (390,700);
}
);
layerId = m01;
shapes = (
{
closed = 1;
nodes = (
(486,-15,o),
(597,14,o),
(667,54,c),
(667,268,l),
(651,242,l),
(731,281,l),
(731,300,l),
(441,300,l),
(441,280,l),
(590,246,l),
(572,268,l),
(572,71,l),
(580,98,l),
(539,53,o),
(480,24,o),
(420,24,cs),
(258,24,o),
(144,186,o),
(144,415,cs),
(144,568,o),
(242,676,o),
(380,676,cs),
(508,676,o),
(599,603,o),
(599,500,c),
(637,500,l),
(637,648,l),
(567,687,o),
(469,715,o),
(400,715,cs),
(186,713,o),
(35,561,o),
(35,347,cs),
(35,135,o),
(186,-15,o),
(400,-15,cs)
);
}
);
width = 737;
},
{
anchors = (
{
name = com;
pos = (406,-2);
},
{
name = top;
pos = (390,700);
}
);
associatedMasterId = m01;
layerId = "39080339-8871-4078-9D60-13CA8196ECF6";
name = "1. Jan. 24, 22:59";
shapes = (
{
closed = 1;
nodes = (
(420,24,l),
(258,24,o),
(144,186,o),
(144,415,cs),
(144,568,o),
(242,676,o),
(380,676,c),
(400,715,l),
(186,713,o),
(35,561,o),
(35,347,cs),
(35,135,o),
(186,-15,o),
(400,-15,c)
);
},
{
closed = 1;
nodes = (
(486,-15,o),
(597,14,o),
(667,54,c),
(667,150,l),
(621,160,l),
(587,80,o),
(504,24,o),
(420,24,c),
(400,-15,l)
);
},
{
closed = 1;
nodes = (
(667,54,l),
(667,250,l),
(572,250,l),
(572,54,l)
);
},
{
closed = 1;
nodes = (
(667,250,l),
(731,281,l),
(731,300,l),
(441,300,l),
(441,280,l),
(572,250,l)
);
},
{
closed = 1;
nodes = (
(637,500,l),
(637,648,l),
(565,687,o),
(466,715,o),
(400,715,c),
(380,676,l),
(508,676,o),
(599,603,o),
(599,500,c)
);
}
);
width = 737;
},
{
anchors = (
{
name = com;
pos = (444,-8);
},
{
name = top;
pos = (428,700);
}
);
background = {
shapes = (
{
closed = 0;
nodes = (
(415,676,ls),
(548,676,o),
(642,609,o),
(642,515,c),
(705,515,l),
(705,647,l),
(646,687,o),
(526,716,o),
(415,716,cs)
);
}
);
};
hints = (
{
horizontal = 1;
place = (-18, 45);
place = (-18, 45);
type = Stem;
},
{
horizontal = 1;
place = (289, 14);
place = (289, 14);
type = Stem;
},
{
horizontal = 1;
place = (673, 45);
place = (673, 45);
type = Stem;
},
{
place = (-8, 195);
place = (-8, 195);
type = Stem;
},
{
place = (529, 181);
place = (529, 181);
type = Stem;
},
{
horizontal = 1;
place = (285, 18);
place = (285, 18);
type = Stem;
},
{
horizontal = 1;
place = (497, 141);
place = (497, 141);
type = Stem;
},
{
place = (606, 74);
place = (606, 74);
type = Stem;
}
);
layerId = "E0989092-07D5-4BE4-A82B-4E03160A36DB";
shapes = (
{
closed = 1;
nodes = (
(551,-16,o),
(679,11,o),
(737,51,c),
(737,254,l),
(735,252,l),
(799,289,l),
(799,305,l),
(423,305,l),
(423,285,l),
(555,253,l),
(553,256,l),
(553,60,l),
(554,63,l),
(531,38,o),
(486,23,o),
(445,23,c),
(309,47,o),
(212,208,o),
(212,415,cs),
(212,568,o),
(292,675,o),
(405,675,cs),
(545,675,o),
(623,609,o),
(622,515,c),
(705,515,l),
(705,647,l),
(648,687,o),
(533,716,o),
(428,716,cs),
(187,718,o),
(17,566,o),
(17,347,cs),
(17,133,o),
(187,-16,o),
(428,-16,cs)
);
}
);
width = 800;
}
);
unicode = 71;
},
{
color = 4;
glyphname = H;
layers = (
{
anchors = (
{
name = top;
pos = (391,700);
}
);
layerId = m01;
shapes = (
{
closed = 1;
nodes = (
(288,0,l),
(288,19,l),
(177,56,l),
(194,32,l),
(194,353,l),
(176,335,l),
(602,335,l),
(584,353,l),
(584,32,l),
(601,56,l),
(493,20,l),
(493,0,l),
(773,0,l),
(773,19,l),
(662,56,l),
(679,32,l),
(679,668,l),
(662,644,l),
(773,681,l),
(773,700,l),
(493,700,l),
(493,680,l),
(601,644,l),
(584,668,l),
(584,357,l),
(602,375,l),
(176,375,l),
(194,357,l),
(194,668,l),
(177,644,l),
(288,681,l),
(288,700,l),
(8,700,l),
(8,680,l),
(116,644,l),
(99,668,l),
(99,32,l),
(116,56,l),
(8,20,l),
(8,0,l)
);
}
);
width = 781;
},
{
associatedMasterId = m01;
layerId = "015B11CA-0731-4F8C-9479-89012C1F2E0D";
name = "1. Jan. 24, 23:01";
shapes = (
{
closed = 1;
nodes = (
(699,50,l),
(699,650,l),
(604,650,l),
(604,50,l)
);
},
{
closed = 1;
nodes = (
(308,0,l),
(308,19,l),
(214,50,l),
(119,50,l),
(28,20,l),
(28,0,l)
);
},
{
closed = 1;
nodes = (
(214,50,l),
(214,650,l),
(119,650,l),
(119,50,l)
);
},
{
closed = 1;
nodes = (
(793,0,l),
(793,19,l),
(699,50,l),
(604,50,l),
(513,20,l),
(513,0,l)
);
},
{
closed = 1;
nodes = (
(649,335,l),
(649,375,l),
(163,375,l),
(163,335,l)
);
},
{
closed = 1;
nodes = (
(214,650,l),
(308,681,l),
(308,700,l),
(28,700,l),
(28,680,l),
(119,650,l)
);
},
{
closed = 1;
nodes = (
(699,650,l),
(793,681,l),
(793,700,l),
(513,700,l),
(513,680,l),
(604,650,l)
);
}
);
width = 821;
},
{
anchors = (
{
name = top;
pos = (413,700);
}
);
background = {
shapes = (
{
closed = 1;
nodes = (
(358,0,l),
(358,20,l),
(265,50,l),
(265,648,l),
(358,680,l),
(358,700,l),
(-12,700,l),
(-12,680,l),
(81,650,l),
(81,50,l),
(-12,20,l),
(-12,0,l)
);
},
{
closed = 1;
nodes = (
(838,0,l),
(838,20,l),
(745,50,l),
(745,648,l),
(838,680,l),
(838,700,l),
(468,700,l),
(468,680,l),
(561,650,l),
(561,50,l),
(468,20,l),
(468,0,l)
);
}
);
};
hints = (
{
horizontal = 1;
place = (0, 16);
place = (0, 16);
type = Stem;
},
{
horizontal = 1;
place = (332, 46);
place = (332, 46);
type = Stem;
},
{
horizontal = 1;
place = (684, 16);
place = (684, 16);
type = Stem;
},
{
place = (76, 181);
place = (76, 181);
type = Stem;
},
{
place = (561, 181);
place = (561, 181);
type = Stem;
}
);
layerId = "E0989092-07D5-4BE4-A82B-4E03160A36DB";
shapes = (
{
closed = 1;
nodes = (
(358,0,l),
(358,20,l),
(263,51,l),
(265,48,l),
(265,332,l),
(263,330,l),
(563,330,l),
(561,332,l),
(561,48,l),
(563,51,l),
(468,20,l),
(468,0,l),
(838,0,l),
(838,20,l),
(743,51,l),
(745,48,l),
(745,650,l),
(743,647,l),
(838,680,l),
(838,700,l),
(468,700,l),
(468,680,l),
(563,649,l),
(561,652,l),
(561,378,l),
(563,380,l),
(263,380,l),
(265,378,l),
(265,650,l),
(263,647,l),
(358,680,l),
(358,700,l),
(-12,700,l),
(-12,680,l),
(83,649,l),
(81,652,l),
(81,48,l),
(83,51,l),
(-12,20,l),
(-12,0,l)
);
}
);
width = 826;
}
);
unicode = 72;
},
{
color = 5;
glyphname = Hbar;
layers = (
{
layerId = m01;
shapes = (
{
closed = 1;
nodes = (
(745,519,l),
(745,559,l),
(27,559,l),
(27,519,l)
);
},
{
ref = H;
}
);
width = 821;
},
{
hints = (
{
horizontal = 1;
place = (0, 16);
place = (0, 16);
type = Stem;
},
{
horizontal = 1;
place = (332, 46);
place = (332, 46);
type = Stem;
},
{
horizontal = 1;
place = (516, 46);
place = (516, 46);
type = Stem;
},
{
horizontal = 1;
place = (684, 16);
place = (684, 16);
type = Stem;
},
{
place = (76, 181);
place = (76, 181);
type = Stem;
},
{
place = (561, 181);
place = (561, 181);
type = Stem;
}
);
layerId = "E0989092-07D5-4BE4-A82B-4E03160A36DB";
shapes = (
{
closed = 1;
nodes = (
(819,499,l),
(819,559,l),
(15,559,l),
(15,499,l)
);
},
{
ref = H;
}
);
width = 826;
}
);
unicode = 294;
},
{
color = 4;
glyphname = I;
layers = (
{
anchors = (
{
name = ogo;
pos = (241,0);
},
{
name = top;
pos = (168,700);
}
);
background = {
shapes = (
{
closed = 0;
nodes = (
(121,50,l),
(28,20,l),
(28,0,l),
(308,0,l),
(308,20,l),
(215,50,l)
);
}
);
};
layerId = m01;
shapes = (
{
closed = 1;
nodes = (
(308,0,l),
(308,20,l),
(215,50,l),
(215,650,l),
(308,680,l),
(308,700,l),
(28,700,l),
(28,680,l),
(121,650,l),
(121,50,l),
(28,20,l),
(28,0,l)
);
}
);
width = 336;
},
{
associatedMasterId = m01;
layerId = "49E4F5FA-D472-467A-A455-43EB5AEC2C01";
name = "1. Jan. 24, 20:52";
shapes = (
{
closed = 1;
nodes = (
(214,50,l),
(214,650,l),
(119,650,l),
(119,50,l)
);
},
{
closed = 1;
nodes = (
(308,0,l),
(308,19,l),
(214,50,l),
(119,50,l),
(28,20,l),
(28,0,l)
);
},
{
closed = 1;
nodes = (
(214,650,l),
(308,681,l),
(308,700,l),
(28,700,l),
(28,680,l),
(119,650,l)
);
}
);
width = 336;
},
{
anchors = (
{
name = ogo;
pos = (302,0);
},
{
name = top;
pos = (185,700);
}
);
background = {
anchors = (
{
name = ogonek;
pos = (274,3);
},
{
name = top;
pos = (180,700);
}
);
shapes = (
{
closed = 1;
nodes = (
(370,0,l),
(370,20,l),
(277,50,l),
(277,650,l),
(370,680,l),
(370,700,l),
(0,700,l),
(0,680,l),
(93,650,l),
(93,50,l),
(0,20,l),
(0,0,l)
);
}
);
};
hints = (
{
horizontal = 1;
place = (0, 16);
place = (0, 16);
type = Stem;
},
{
horizontal = 1;
place = (688, 12);
place = (688, 12);
type = Stem;
},
{
place = (76, 181);
place = (76, 181);
type = Stem;
}
);
layerId = "E0989092-07D5-4BE4-A82B-4E03160A36DB";
shapes = (
{
closed = 1;
nodes = (
(370,0,l),
(370,20,l),
(277,50,l),
(277,648,l),
(370,680,l),
(370,700,l),
(0,700,l),
(0,680,l),
(93,650,l),
(93,50,l),
(0,20,l),
(0,0,l)
);
}
);
width = 370;
}
);
unicode = 73;
},
{
color = 4;
glyphname = J;
layers = (
{
anchors = (
{
name = top;
pos = (172,699);
}
);
layerId = m01;
shapes = (
{
closed = 1;
nodes = (
(59,-212,o),
(62,-210,o),
(64,-208,cs),
(158,-126,o),
(224,-20,o),
(224,50,cs),
(224,668,l),
(207,644,l),
(318,681,l),
(318,700,l),
(38,700,l),
(38,680,l),
(146,644,l),
(129,668,l),
(129,49,ls),
(129,-48,o),
(93,-141,o),
(42,-180,cs),
(40,-181,o),
(38,-183,o),
(36,-184,c),
(57,-214,l)
);
}
);
width = 356;
},
{
associatedMasterId = m01;
layerId = "EA68FA7A-9618-49FA-9D4F-F52FF8FE96E9";
name = "1. Jan. 24, 23:36";
shapes = (
{
closed = 1;
nodes = (
(224,50,l),
(224,650,l),
(129,650,l),
(129,50,l)
);
},
{
closed = 1;
nodes = (
(155,-131,o),
(224,-22,o),
(224,50,c),
(129,50,l),
(129,49,ls),
(129,-52,o),
(90,-148,o),
(36,-184,c),
(57,-214,l)
);
},
{
closed = 1;
nodes = (
(224,650,l),
(318,681,l),
(318,700,l),
(38,700,l),
(38,680,l),
(129,650,l)
);
}
);
width = 356;
},
{
anchors = (
{
name = top;
pos = (184,699);
}
);
hints = (
{
horizontal = 1;
place = (684, 16);
place = (684, 16);
type = Stem;
},
{
place = (57, 182);
place = (57, 182);
type = Stem;
}
);
layerId = "E0989092-07D5-4BE4-A82B-4E03160A36DB";
shapes = (
{
closed = 1;
nodes = (
(18,-248,o),
(25,-247,o),
(33,-246,cs),
(174,-222,o),
(273,-99,o),
(273,50,cs),
(273,652,l),
(271,649,l),
(367,680,l),
(367,700,l),
(0,700,l),
(0,680,l),
(93,649,l),
(91,652,l),
(91,49,ls),
(91,-74,o),
(67,-173,o),
(34,-190,cs),
(24,-195,o),
(11,-200,o),
(3,-202,c),
(10,-249,l)
);
}
);
width = 367;
}
);
unicode = 74;
},
{
color = 4;
glyphname = K;
layers = (
{
anchors = (
{
name = com;
pos = (371,-2);
},
{
name = top;
pos = (376,700);
}
);
layerId = m01;
shapes = (
{
closed = 1;
nodes = (
(298,0,l),
(298,19,l),
(197,56,l),
(214,32,l),
(214,300,l),
(201,270,l),
(279,344,l),
(255,346,l),
(525,0,l),
(706,0,l),
(706,19,l),
(605,56,l),
(628,36,l),
(323,414,l),
(327,392,l),
(605,663,l),
(575,645,l),
(696,681,l),
(696,700,l),
(449,700,l),
(449,680,l),
(534,656,l),
(529,674,l),
(202,333,l),
(214,328,l),
(214,668,l),
(197,644,l),
(308,681,l),
(308,700,l),
(28,700,l),
(28,680,l),
(136,644,l),
(119,668,l),
(119,32,l),
(136,56,l),
(28,20,l),
(28,0,l)
);
}
);
width = 706;
},
{
anchors = (
{
name = com;
pos = (371,-2);
}
);
associatedMasterId = m01;
layerId = "CC59FA57-BAA4-40BA-AF5D-2647D80AD5E9";
name = "1. Jan. 24, 23:38";
shapes = (
{
closed = 1;
nodes = (
(706,0,l),
(706,19,l),
(622,50,l),
(337,409,l),
(247,356,l),
(525,0,l)
);
},
{
closed = 1;
nodes = (
(298,0,l),
(298,19,l),
(214,50,l),
(119,50,l),
(28,20,l),
(28,0,l)
);
},
{
closed = 1;
nodes = (
(214,50,l),
(214,650,l),
(119,650,l),
(119,50,l)
);
},
{
closed = 1;
nodes = (
(214,650,l),
(308,681,l),
(308,700,l),
(28,700,l),
(28,680,l),
(119,650,l)
);
},
{
closed = 1;
nodes = (
(592,650,l),
(517,661,l),
(179,310,l),
(209,277,l)
);
},
{
closed = 1;
nodes = (
(696,681,l),
(696,700,l),
(449,700,l),
(449,680,l),
(517,661,l),
(592,650,l)
);
}
);
width = 706;
},
{
anchors = (
{
name = com;
pos = (435,-2);
},
{
name = top;
pos = (424,700);
}
);
hints = (
{
horizontal = 1;
place = (0, 16);
place = (0, 16);
type = Stem;
},
{
horizontal = 1;
place = (684, 16);
place = (684, 16);
type = Stem;
},
{
place = (76, 178);
place = (76, 178);
type = Stem;
}
);
layerId = "E0989092-07D5-4BE4-A82B-4E03160A36DB";
shapes = (
{
closed = 1;
nodes = (
(361,0,l),
(361,20,l),
(272,50,l),
(274,47,l),
(274,281,l),
(272,277,l),
(294,300,l),
(291,300,l),
(518,0,l),
(769,0,l),
(769,20,l),
(715,43,l),
(718,40,l),
(401,458,l),
(397,409,l),
(646,653,l),
(642,650,l),
(759,680,l),
(759,700,l),
(476,700,l),
(476,680,l),
(566,669,l),
(566,671,l),
(272,369,l),
(274,369,l),
(274,654,l),
(272,651,l),
(371,680,l),
(371,700,l),
(5,700,l),
(5,680,l),
(92,652,l),
(90,655,l),
(90,45,l),
(92,48,l),
(5,20,l),
(5,0,l)
);
}
);
width = 754;
}
);
unicode = 75;
},
{
color = 4;
glyphname = L;
layers = (
{
anchors = (
{
name = cara;
pos = (164,700);
},
{
name = com;
pos = (321,-2);
},
{
name = top;
pos = (285,700);
}
);
layerId = m01;
shapes = (
{
closed = 1;
nodes = (
(565,0,l),
(600,197,l),
(581,204,l),
(492,34,l),
(518,50,l),
(196,50,l),
(214,32,l),
(214,668,l),
(197,644,l),
(308,681,l),
(308,700,l),
(28,700,l),
(28,680,l),
(136,644,l),
(119,668,l),
(119,32,l),
(136,56,l),
(28,20,l),
(28,0,l)
);
}
);
width = 630;
},
{
anchors = (
{
name = com;
pos = (321,-2);
}
);
associatedMasterId = m01;
layerId = "15B2B194-3F3C-42B8-A99A-468384793481";
name = "1. Jan. 24, 23:40";
shapes = (
{
closed = 1;
nodes = (
(214,50,l),
(214,650,l),
(119,650,l),
(119,50,l)
);
},
{
closed = 1;
nodes = (
(500,0,l),
(500,50,l),
(119,50,l),
(28,20,l),
(28,0,l)
);
},
{
closed = 1;
nodes = (
(565,0,l),
(600,197,l),
(581,204,l),
(500,50,l),
(500,0,l)
);
},
{
closed = 1;
nodes = (
(214,650,l),
(308,681,l),
(308,700,l),
(28,700,l),
(28,680,l),
(119,650,l)
);
}
);
width = 630;
},
{
anchors = (
{
name = cara;
pos = (179,700);
},
{
name = com;
pos = (336,-2);
},
{
name = top;
pos = (300,689);
}
);
hints = (
{
horizontal = 1;
place = (0, 47);
place = (0, 47);
type = Stem;
},
{
horizontal = 1;
place = (684, 16);
place = (684, 16);
type = Stem;
},
{
place = (76, 181);
place = (76, 181);
type = Stem;
}
);
layerId = "E0989092-07D5-4BE4-A82B-4E03160A36DB";
shapes = (
{
closed = 1;
nodes = (
(605,0,l),
(640,194,l),
(593,213,l),
(506,48,l),
(509,50,l),
(273,50,l),
(275,48,l),
(275,655,l),
(273,652,l),
(366,684,l),
(366,700,l),
(0,700,l),
(0,683,l),
(93,652,l),
(91,655,l),
(91,45,l),
(93,48,l),
(0,20,l),
(0,0,l)
);
}
);
width = 633;
}
);
unicode = 76;
},
{
color = 5;
glyphname = Lslash;
layers = (
{
layerId = m01;
shapes = (
{
closed = 1;
nodes = (
(319,414,l),
(299,453,l),
(17,300,l),
(37,261,l)
);
},
{
ref = L;
}
);
width = 600;
},
{
hints = (
{
horizontal = 1;
place = (0, 47);
place = (0, 47);
type = Stem;
},
{
horizontal = 1;
place = (684, 16);
place = (684, 16);
type = Stem;
},
{
place = (76, 181);
place = (76, 181);
type = Stem;
}
);
layerId = "E0989092-07D5-4BE4-A82B-4E03160A36DB";
shapes = (
{
closed = 1;
nodes = (
(367,426,l),
(339,479,l),
(-17,300,l),
(11,247,l)
);
},
{
ref = L;
}
);
width = 643;
}
);
unicode = 321;
},
{
color = 4;
glyphname = M;
layers = (
{
anchors = (
{
name = top;
pos = (437,667);
}
);
layerId = m01;
shapes = (
{
closed = 1;
nodes = (
(723,604,l),
(716,606,l),
(716,32,l),
(733,56,l),
(625,20,l),
(625,0,l),
(895,0,l),
(895,19,l),
(794,56,l),
(811,32,l),
(811,668,l),
(794,644,l),
(905,681,l),
(905,700,l),
(715,700,l),
(451,122,l),
(471,122,l),
(203,700,l),
(28,700,l),
(28,683,l),
(136,644,l),
(119,668,l),
(119,32,l),
(136,56,l),
(28,20,l),
(28,0,l),
(248,0,l),
(248,19,l),
(147,56,l),
(164,32,l),
(164,580,l),
(156,578,l),
(437,-26,l)
);
}
);
width = 926;
},
{
associatedMasterId = m01;
layerId = "39CD48C5-5A51-4231-9B38-8D14C79DB35E";
name = "1. Jan. 24, 23:44";
shapes = (
{
closed = 1;
nodes = (
(767,700,l),
(715,700,l),
(458,138,l),
(195,700,l),
(100,700,l),
(437,-26,l)
);
},
{
closed = 1;
nodes = (
(248,0,l),
(248,19,l),
(164,50,l),
(119,50,l),
(28,20,l),
(28,0,l)
);
},
{
closed = 1;
nodes = (
(164,50,l),
(164,650,l),
(119,650,l),
(119,50,l)
);
},
{
closed = 1;
nodes = (
(164,650,l),
(164,700,l),
(28,700,l),
(28,683,l),
(119,650,l)
);
},
{
closed = 1;
nodes = (
(895,0,l),
(895,19,l),
(811,50,l),
(716,50,l),
(625,20,l),
(625,0,l)
);
},
{
closed = 1;
nodes = (
(811,50,l),
(811,650,l),
(716,650,l),
(716,50,l)
);
},
{
closed = 1;
nodes = (
(811,650,l),
(905,681,l),
(905,700,l),
(717,700,l),
(716,650,l)
);
}
);
width = 926;
},
{
anchors = (
{
name = top;
pos = (508,667);
}
);
background = {
shapes = (
{
closed = 1;
nodes = (
(667,0,l),
(667,653,l),
(665,650,l),
(760,681,l),
(760,701,l),
(524,701,l),
(524,681,l),
(619,650,l),
(617,653,l),
(617,292,l),
(618,309,l),
(290,700,l),
(-4,700,l),
(-4,680,l),
(91,649,l),
(89,652,l),
(89,48,l),
(91,51,l),
(-4,20,l),
(-4,0,l),
(232,0,l),
(232,20,l),
(137,51,l),
(139,48,l),
(139,595,l),
(138,595,l),
(651,-16,l)
);
},
{
closed = 1;
nodes = (
(1000,0,l),
(1000,20,l),
(907,50,l),
(907,648,l),
(1000,680,l),
(1000,700,l),
(630,700,l),
(630,680,l),
(723,650,l),
(723,50,l),
(630,20,l),
(630,0,l)
);
}
);
};
hints = (
{
horizontal = 1;
place = (0, 16);
place = (0, 16);
type = Stem;
},
{
horizontal = 1;
place = (686, 14);
place = (686, 14);
type = Stem;
},
{
place = (76, 70);
place = (76, 70);
type = Stem;
},
{
place = (673, 181);
place = (673, 181);
type = Stem;
},
{
horizontal = 1;
place = (684, 16);
place = (684, 16);
type = Stem;
}
);
layerId = "E0989092-07D5-4BE4-A82B-4E03160A36DB";
shapes = (
{
closed = 1;
nodes = (
(724,590,l),
(723,590,l),
(723,48,l),
(725,51,l),
(630,20,l),
(630,0,l),
(1000,0,l),
(1000,20,l),
(905,51,l),
(907,48,l),
(907,650,l),
(905,647,l),
(1000,680,l),
(1000,700,l),
(723,700,l),
(496,246,l),
(501,246,l),
(293,700,l),
(-4,700,l),
(-4,680,l),
(91,649,l),
(89,652,l),
(89,49,l),
(91,52,l),
(-4,20,l),
(-4,0,l),
(232,0,l),
(232,20,l),
(137,51,l),
(139,48,l),
(139,596,l),
(138,596,l),
(420,-16,l)
);
}
);
width = 996;
}
);
unicode = 77;
},
{
color = 4;
glyphname = N;
layers = (
{
anchors = (
{
name = com;
pos = (401,-2);
},
{
name = top;
pos = (398,700);
}
);
background = {
anchors = (
{
name = ogonek;
pos = (242,3);
}
);
};
layerId = m01;
shapes = (
{
closed = 1;
nodes = (
(679,1,l),
(679,668,l),
(662,644,l),
(773,681,l),
(773,700,l),
(543,700,l),
(543,680,l),
(651,644,l),
(634,668,l),
(634,163,l),
(644,167,l),
(196,700,l),
(8,700,l),
(8,680,l),
(116,644,l),
(99,668,l),
(99,32,l),
(116,56,l),
(8,20,l),
(8,0,l),
(238,0,l),
(238,19,l),
(127,56,l),
(144,32,l),
(144,625,l),
(132,621,l),
(679,-25,l)
);
}
);
width = 781;
},
{
anchors = (
{
name = com;
pos = (401,-2);
},
{
name = top;
pos = (398,700);
}
);
associatedMasterId = m01;
layerId = "E8A2BD06-0712-47D5-8A4F-C996E068F001";
name = "1. Jan. 24, 23:45";
shapes = (
{
closed = 1;
nodes = (
(679,127,l),
(198,700,l),
(65,700,l),
(679,-25,l)
);
},
{
closed = 1;
nodes = (
(238,0,l),
(238,19,l),
(144,50,l),
(99,50,l),
(8,20,l),
(8,0,l)
);
},
{
closed = 1;
nodes = (
(144,50,l),
(144,650,l),
(99,650,l),
(99,50,l)
);
},
{
closed = 1;
nodes = (
(144,650,l),
(144,700,l),
(8,700,l),
(8,680,l),
(99,650,l)
);
},
{
closed = 1;
nodes = (
(679,120,l),
(679,650,l),
(634,650,l),
(634,120,l)
);
},
{
closed = 1;
nodes = (
(679,650,l),
(773,681,l),
(773,700,l),
(543,700,l),
(543,680,l),
(634,650,l)
);
}
);
width = 781;
},
{
anchors = (
{
name = com;
pos = (393,-2);
},
{
name = top;
pos = (390,700);
}
);
background = {
shapes = (
{
closed = 1;
nodes = (
(666,6,l),
(666,668,l),
(649,644,l),
(760,681,l),
(760,700,l),
(530,700,l),
(530,680,l),
(638,644,l),
(621,668,l),
(621,163,l),
(720,167,l),
(272,700,l),
(-5,700,l),
(-5,680,l),
(103,644,l),
(86,668,l),
(86,32,l),
(103,56,l),
(-5,20,l),
(-5,0,l),
(225,0,l),
(225,19,l),
(114,56,l),
(131,32,l),
(131,625,l),
(88,621,l),
(635,-25,l)
);
}
);
};
hints = (
{
horizontal = 1;
place = (0, 16);
place = (0, 16);
type = Stem;
},
{
horizontal = 1;
place = (683, 17);
place = (683, 17);
type = Stem;
},
{
place = (87, 87);
place = (87, 87);
type = Stem;
},
{
place = (567, 87);
place = (567, 87);
type = Stem;
}
);
layerId = "E0989092-07D5-4BE4-A82B-4E03160A36DB";
shapes = (
{
closed = 1;
nodes = (
(659,0,l),
(659,653,l),
(657,650,l),
(752,681,l),
(752,701,l),
(516,701,l),
(516,681,l),
(611,650,l),
(609,653,l),
(609,292,l),
(610,313,l),
(287,700,l),
(-12,700,l),
(-12,680,l),
(83,649,l),
(81,652,l),
(81,48,l),
(83,51,l),
(-12,20,l),
(-12,0,l),
(224,0,l),
(224,20,l),
(129,51,l),
(131,48,l),
(131,595,l),
(130,595,l),
(643,-16,l)
);
}
);
width = 740;
}
);
unicode = 78;
},
{
color = 5;
glyphname = Eng;
layers = (
{
layerId = m01;
shapes = (
{
closed = 1;
nodes = (
(488,115,ls),
(488,54,o),
(463,11,o),
(427,11,cs),
(406,11,o),
(378,32,o),
(360,62,c),
(296,21,l),
(320,1,o),
(367,-14,o),
(409,-14,cs),
(508,-14,o),
(578,54,o),
(578,151,cs),
(578,505,ls),
(578,624,o),
(505,709,o),
(373,709,cs),
(289,709,o),
(222,664,o),
(160,599,c),
(169,590,l),
(169,700,l),
(-12,700,l),
(-12,680,l),
(96,644,l),
(79,668,l),
(79,32,l),
(96,56,l),
(-12,20,l),
(-12,0,l),
(243,0,l),
(243,19,l),
(152,57,l),
(169,32,l),
(169,579,l),
(160,551,l),
(215,614,o),
(269,658,o),
(342,658,cs),
(439,658,o),
(488,583,o),
(488,477,cs)
);
}
);
width = 666;
},
{
associatedMasterId = m01;
layerId = "0F2D05D5-6E5C-46B9-8B3C-5DD271D069A4";
name = "1. Jan. 24, 21:14";
shapes = (
{
closed = 1;
nodes = (
(223,700,l),
(65,700,l)
);
},
{
closed = 1;
nodes = (
(263,0,l),
(263,19,l),
(189,50,l),
(99,50,l),
(8,20,l),
(8,0,l)
);
},
{
closed = 1;
nodes = (
(189,50,l),
(189,650,l),
(99,650,l),
(99,50,l)
);
},
{
closed = 1;
nodes = (
(189,650,l),
(189,700,l),
(8,700,l),
(8,680,l),
(99,650,l)
);
},
{
closed = 1;
nodes = (
(170,539,l),
(229,609,o),
(285,658,o),
(362,658,cs),
(459,658,o),
(508,583,o),
(508,477,cs),
(508,211,l),
(598,211,l),
(598,505,ls),
(598,624,o),
(525,709,o),
(393,709,cs),
(304,709,o),
(235,659,o),
(170,588,c)
);
},
{
closed = 1;
nodes = (
(508,211,l),
(508,115,l),
(508,54,o),
(483,11,o),
(447,11,cs),
(426,11,o),
(398,32,o),
(380,62,c),
(316,21,l),
(340,1,o),
(387,-14,o),
(429,-14,cs),
(528,-14,o),
(598,54,o),
(598,151,cs),
(598,211,l)
);
}
);
width = 642;
},
{
hints = (
{
horizontal = 1;
place = (-3, 14);
place = (-3, 14);
type = Stem;
},
{
horizontal = 1;
place = (655, 57);
place = (655, 57);
type = Stem;
},
{
place = (156, 176);
place = (156, 176);
type = Stem;
},
{
place = (565, 176);
place = (565, 176);
type = Stem;
},
{
horizontal = 1;
place = (-17, 32);
place = (-17, 32);
type = Stem;
},
{
horizontal = 1;
place = (670, 33);
place = (670, 33);
type = Stem;
}
);
layerId = "E0989092-07D5-4BE4-A82B-4E03160A36DB";
shapes = (
{
closed = 1;
nodes = (
(485,115,ls),
(485,51,o),
(469,19,o),
(467,15,c),
(466,18,o),
(452,34,o),
(420,94,c),
(306,19,l),
(320,6,o),
(392,-17,o),
(449,-17,cs),
(570,-17,o),
(661,51,o),
(661,151,cs),
(661,505,ls),
(661,632,o),
(567,712,o),
(413,712,cs),
(346,712,o),
(291,694,o),
(250,671,c),
(251,670,l),
(244,703,l),
(18,703,l),
(18,670,l),
(78,640,l),
(76,643,l),
(76,41,l),
(78,44,l),
(-15,13,l),
(-15,-3,l),
(293,-3,l),
(293,11,l),
(250,41,l),
(252,38,l),
(252,574,l),
(250,570,l),
(309,634,o),
(341,655,o),
(382,655,cs),
(444,655,o),
(485,591,o),
(485,477,cs)
);
}
);
width = 728;
}
);
unicode = 330;
},
{
color = 4;
glyphname = O;
layers = (
{
anchors = (
{
name = top;
pos = (384,700);
}
);
layerId = m01;
shapes = (
{
closed = 1;
nodes = (
(584,-16,o),
(725,139,o),
(725,357,cs),
(725,567,o),
(584,716,o),
(384,716,cs),
(185,716,o),
(45,563,o),
(45,347,cs),
(45,134,o),
(185,-16,o),
(384,-16,cs)
);
},
{
closed = 1;
nodes = (
(244,25,o),
(154,164,o),
(154,415,cs),
(154,582,o),
(228,675,o),
(361,675,cs),
(525,675,o),
(616,536,o),
(616,286,cs),
(616,118,o),
(541,25,o),
(407,25,cs)
);
}
);
width = 770;
},
{
anchors = (
{
name = top;
pos = (419,700);
}
);
hints = (
{
horizontal = 1;
place = (-18, 44);
place = (-18, 44);
type = Stem;
},
{
horizontal = 1;
place = (673, 45);
place = (673, 45);
type = Stem;
},
{
place = (-8, 195);
place = (-8, 195);
type = Stem;
},
{
place = (563, 195);
place = (563, 195);
type = Stem;
}
);
layerId = "E0989092-07D5-4BE4-A82B-4E03160A36DB";
shapes = (
{
closed = 1;
nodes = (
(644,-16,o),
(803,139,o),
(803,357,cs),
(803,567,o),
(644,716,o),
(419,716,cs),
(195,716,o),
(37,563,o),
(37,347,cs),
(37,134,o),
(195,-16,o),
(419,-16,cs)
);
},
{
closed = 1;
nodes = (
(307,25,o),
(232,164,o),
(232,415,cs),
(232,582,o),
(291,675,o),
(396,675,cs),
(532,675,o),
(608,536,o),
(608,286,cs),
(608,118,o),
(549,25,o),
(442,25,cs)
);
}
);
width = 840;
}
);
unicode = 79;
},
{
color = 10;
glyphname = Oslash;
layers = (
{
layerId = m01;
shapes = (
{
closed = 1;
nodes = (
(714,726,l),
(683,753,l),
(35,-27,l),
(66,-54,l)
);
},
{
ref = O;
}
);
width = 770;
},
{
hints = (
{
horizontal = 1;
place = (-18, 44);
place = (-18, 44);
type = Stem;
},
{
horizontal = 1;
place = (673, 45);
place = (673, 45);
type = Stem;
},
{
place = (-8, 195);
place = (-8, 195);
type = Stem;
},
{
place = (563, 195);
place = (563, 195);
type = Stem;
}
);
layerId = "E0989092-07D5-4BE4-A82B-4E03160A36DB";
shapes = (
{
closed = 1;
nodes = (
(754,716,l),
(703,763,l),
(55,-17,l),
(106,-64,l)
);
},
{
ref = O;
}
);
width = 830;
}
);
unicode = 216;
},
{
color = 10;
glyphname = OE;
layers = (
{
layerId = m01;
shapes = (
{
closed = 1;
nodes = (
(468,-15,o),
(557,27,o),
(618,99,c),
(610,108,l),
(610,0,l),
(1056,0,l),
(1091,197,l),
(1072,204,l),
(983,34,l),
(1009,50,l),
(687,50,l),
(705,32,l),
(705,359,l),
(687,341,l),
(899,341,l),
(875,358,l),
(912,245,l),
(931,245,l),
(931,475,l),
(911,475,l),
(876,364,l),
(899,381,l),
(687,381,l),
(705,363,l),
(705,668,l),
(687,650,l),
(1014,650,l),
(991,667,l),
(1032,520,l),
(1053,520,l),
(1053,700,l),
(610,700,l),
(610,596,l),
(618,605,l),
(558,675,o),
(468,715,o),
(364,715,cs),
(165,715,o),
(25,563,o),
(25,347,cs),
(25,135,o),
(165,-15,o),
(364,-15,cs)
);
},
{
closed = 1;
nodes = (
(134,583,o),
(208,676,o),
(341,676,cs),
(505,676,o),
(596,537,o),
(596,286,cs),
(596,117,o),
(521,23,o),
(387,23,cs),
(224,23,o),
(134,163,o),
(134,415,cs)
);
}
);
width = 1096;
},
{
associatedMasterId = m01;
layerId = "E029D7F6-61DA-46A0-ABD4-00802109ADA1";
name = "2. Jan. 24, 01:04";
shapes = (
{
closed = 1;
nodes = (
(574,-15,o),
(715,139,o),
(715,357,cs),
(715,567,o),
(574,715,o),
(374,715,cs),
(175,715,o),
(35,563,o),
(35,347,cs),
(35,135,o),
(175,-15,o),
(374,-15,cs)
);
},
{
closed = 1;
nodes = (
(234,23,o),
(144,163,o),
(144,415,cs),
(144,583,o),
(218,676,o),
(351,676,cs),
(515,676,o),
(606,537,o),
(606,286,cs),
(606,117,o),
(531,23,o),
(397,23,cs)
);
},
{
closed = 1;
nodes = (
(1001,0,l),
(1001,50,l),
(620,50,l),
(620,0,l)
);
},
{
closed = 1;
nodes = (
(715,50,l),
(715,650,l),
(620,650,l),
(620,50,l)
);
},
{
closed = 1;
nodes = (
(1066,0,l),
(1101,197,l),
(1082,204,l),
(1001,50,l),
(1001,0,l)
);
},
{
closed = 1;
nodes = (
(941,341,l),
(941,381,l),
(685,381,l),
(685,341,l)
);
},
{
closed = 1;
nodes = (
(941,245,l),
(941,475,l),
(921,475,l),
(891,384,l),
(891,339,l),
(922,245,l)
);
},
{
closed = 1;
nodes = (
(1006,650,l),
(1006,700,l),
(620,700,l),
(620,650,l)
);
},
{
closed = 1;
nodes = (
(1063,520,l),
(1063,700,l),
(1006,700,l),
(1006,650,l),
(1042,520,l)
);
}
);
width = 1146;
},
{
hints = (
{
horizontal = 1;
place = (-18, 44);
place = (-18, 44);
type = Stem;
},
{
horizontal = 1;
place = (338, 46);
place = (338, 46);
type = Stem;
},
{
horizontal = 1;
place = (647, 56);
place = (647, 56);
type = Stem;
},
{
place = (-8, 195);
place = (-8, 195);
type = Stem;
},
{
place = (577, 148);
place = (577, 148);
type = Stem;
},
{
place = (915, 44);
place = (915, 44);
type = Stem;
},
{
place = (1050, 56);
place = (1050, 56);
type = Stem;
},
{
horizontal = 1;
place = (-3, 56);
place = (-3, 56);
type = Stem;
},
{
place = (563, 162);
place = (563, 162);
type = Stem;
},
{
place = (914, 45);
place = (914, 45);
type = Stem;
},
{
horizontal = 1;
place = (517, 186);
place = (517, 186);
type = Stem;
},
{
horizontal = 1;
place = (673, 45);
place = (673, 45);
type = Stem;
}
);
layerId = "E0989092-07D5-4BE4-A82B-4E03160A36DB";
shapes = (
{
closed = 1;
nodes = (
(448,-18,o),
(519,-3,o),
(578,26,c),
(577,27,l),
(577,-3,l),
(1108,-3,l),
(1143,190,l),
(1104,224,l),
(1014,51,l),
(1017,53,l),
(723,53,l),
(725,51,l),
(725,340,l),
(723,338,l),
(885,338,l),
(882,340,l),
(915,242,l),
(959,242,l),
(959,478,l),
(914,478,l),
(881,382,l),
(884,384,l),
(723,384,l),
(725,382,l),
(725,649,l),
(723,647,l),
(1017,647,l),
(1014,649,l),
(1050,517,l),
(1106,517,l),
(1106,703,l),
(577,703,l),
(577,674,l),
(578,675,l),
(519,704,o),
(449,718,o),
(374,718,cs),
(157,718,o),
(-8,573,o),
(-8,347,cs),
(-8,127,o),
(157,-18,o),
(374,-18,cs)
);
},
{
closed = 1;
nodes = (
(187,593,o),
(251,673,o),
(351,673,cs),
(480,673,o),
(563,545,o),
(563,286,cs),
(563,107,o),
(498,26,o),
(397,26,cs),
(269,26,o),
(187,155,o),
(187,415,cs)
);
}
);
width = 1146;
}
);
unicode = 338;
},
{
color = 4;
glyphname = P;
layers = (
{
anchors = (
{
name = top;
pos = (288,700);
}
);
layerId = m01;
shapes = (
{
closed = 1;
nodes = (
(318,0,l),
(318,20,l),
(197,55,l),
(214,32,l),
(214,318,l),
(196,300,l),
(268,300,ls),
(439,300,o),
(546,388,o),
(546,527,cs),
(546,628,o),
(452,700,o),
(318,700,cs),
(28,700,l),
(28,680,l),
(136,644,l),
(119,668,l),
(119,32,l),
(136,56,l),
(28,20,l),
(28,0,l)
);
},
{
closed = 1;
nodes = (
(214,668,l),
(196,650,l),
(288,650,ls),
(375,650,o),
(441,586,o),
(441,495,cs),
(441,400,o),
(383,340,o),
(298,340,cs),
(196,340,l),
(214,322,l)
);
}
);
width = 580;
},
{
associatedMasterId = m01;
layerId = "F87AD770-9788-474C-A1D1-0EC9B953AD89";
name = "1. Jan. 24, 23:50";
shapes = (
{
closed = 1;
nodes = (
(439,300,o),
(546,388,o),
(546,527,cs),
(546,628,o),
(452,700,o),
(318,700,c),
(288,650,l),
(375,650,o),
(441,586,o),
(441,495,cs),
(441,400,o),
(383,340,o),
(298,340,c),
(268,300,l)
);
},
{
closed = 1;
nodes = (
(318,0,l),
(318,20,l),
(214,50,l),
(119,50,l),
(28,20,l),
(28,0,l)
);
},
{
closed = 1;
nodes = (
(214,50,l),
(214,650,l),
(119,650,l),
(119,50,l)
);
},
{
closed = 1;
nodes = (
(268,300,l),
(298,340,l),
(184,340,l),
(184,300,l)
);
},
{
closed = 1;
nodes = (
(288,650,l),
(318,700,l),
(28,700,l),
(28,680,l),
(119,650,l)
);
}
);
width = 580;
},
{
anchors = (
{
name = top;
pos = (301,700);
}
);
background = {
shapes = (
{
closed = 1;
nodes = (
(368,0,l),
(368,20,l),
(275,50,l),
(275,648,l),
(368,680,l),
(368,700,l),
(-2,700,l),
(-2,680,l),
(91,650,l),
(91,50,l),
(-2,20,l),
(-2,0,l)
);
}
);
};
hints = (
{
horizontal = 1;
place = (0, 17);
place = (0, 17);
type = Stem;
},
{
horizontal = 1;
place = (303, 40);
place = (303, 40);
type = Stem;
},
{
horizontal = 1;
place = (653, 47);
place = (653, 47);
type = Stem;
},
{
place = (76, 181);
place = (76, 181);
type = Stem;
},
{
place = (398, 191);
place = (398, 191);
type = Stem;
},
{
horizontal = 1;
place = (683, 17);
place = (683, 17);
type = Stem;
}
);
layerId = "E0989092-07D5-4BE4-A82B-4E03160A36DB";
shapes = (
{
closed = 1;
nodes = (
(368,0,l),
(368,20,l),
(273,51,l),
(275,48,l),
(275,285,l),
(273,283,l),
(301,283,ls),
(478,283,o),
(604,380,o),
(604,517,cs),
(604,624,o),
(494,700,o),
(338,700,cs),
(-2,700,l),
(-2,680,l),
(93,649,l),
(91,652,l),
(91,48,l),
(93,51,l),
(-2,20,l),
(-2,0,l)
);
},
{
closed = 1;
nodes = (
(275,655,l),
(273,653,l),
(301,653,ls),
(367,653,o),
(413,583,o),
(413,485,cs),
(413,390,o),
(371,323,o),
(311,323,cs),
(273,323,l),
(275,321,l)
);
}
);
width = 633;
}
);
unicode = 80;
},
{
color = 10;
glyphname = Thorn;
layers = (
{
layerId = m01;
shapes = (
{
closed = 1;
nodes = (
(278,0,l),
(278,19,l),
(167,56,l),
(182,32,l),
(182,173,l),
(166,155,l),
(228,155,ls),
(399,155,o),
(506,243,o),
(506,382,cs),
(506,483,o),
(412,553,o),
(278,553,cs),
(166,553,l),
(182,535,l),
(182,668,l),
(167,644,l),
(278,681,l),
(278,700,l),
(-2,700,l),
(-2,680,l),
(106,644,l),
(89,668,l),
(89,32,l),
(106,56,l),
(-2,20,l),
(-2,0,l)
);
},
{
closed = 1;
nodes = (
(182,526,l),
(166,508,l),
(248,508,ls),
(335,508,o),
(411,441,o),
(411,350,cs),
(411,255,o),
(343,195,o),
(258,195,cs),
(166,195,l),
(182,177,l)
);
}
);
width = 560;
},
{
associatedMasterId = m01;
layerId = "E0FA7AEA-EC98-4066-82B2-3166E7021F5A";
name = "1. Jan. 24, 23:51";
shapes = (
{
closed = 1;
nodes = (
(439,155,o),
(546,243,o),
(546,382,cs),
(546,483,o),
(452,555,o),
(318,553,c),
(288,508,l),
(375,505,o),
(441,441,o),
(441,350,cs),
(441,255,o),
(383,195,o),
(298,195,c),
(268,155,l)
);
},
{
closed = 1;
nodes = (
(318,0,l),
(318,19,l),
(224,50,l),
(129,50,l),
(38,20,l),
(38,0,l)
);
},
{
closed = 1;
nodes = (
(268,155,l),
(298,195,l),
(184,195,l),
(184,155,l)
);
},
{
closed = 1;
nodes = (
(224,50,l),
(224,650,l),
(129,650,l),
(129,50,l)
);
},
{
closed = 1;
nodes = (
(288,508,l),
(318,553,l),
(184,553,l),
(184,508,l)
);
},
{
closed = 1;
nodes = (
(224,650,l),
(318,681,l),
(318,700,l),
(38,700,l),
(38,680,l),
(129,650,l)
);
}
);
width = 600;
},
{
hints = (
{
horizontal = 1;
place = (-3, 15);
place = (-3, 15);
type = Stem;
},
{
horizontal = 1;
place = (152, 46);
place = (152, 46);
type = Stem;
},
{
horizontal = 1;
place = (505, 51);
place = (505, 51);
type = Stem;
},
{
horizontal = 1;
place = (688, 15);
place = (688, 15);
type = Stem;
},
{
place = (86, 176);
place = (86, 176);
type = Stem;
},
{
place = (391, 198);
place = (391, 198);
type = Stem;
}
);
layerId = "E0989092-07D5-4BE4-A82B-4E03160A36DB";
shapes = (
{
closed = 1;
nodes = (
(341,-3,l),
(341,12,l),
(240,49,l),
(242,46,l),
(242,154,l),
(240,152,l),
(250,152,ls),
(459,152,o),
(569,231,o),
(569,382,cs),
(569,488,o),
(475,556,o),
(301,556,cs),
(240,556,l),
(242,554,l),
(242,654,l),
(240,651,l),
(341,688,l),
(341,703,l),
(-25,703,l),
(-25,687,l),
(68,653,l),
(66,656,l),
(66,44,l),
(68,47,l),
(-25,13,l),
(-25,-3,l)
);
},
{
closed = 1;
nodes = (
(242,507,l),
(240,505,l),
(265,505,ls),
(340,505,o),
(371,469,o),
(371,350,cs),
(371,228,o),
(355,198,o),
(281,198,cs),
(240,198,l),
(242,196,l)
);
}
);
width = 597;
}
);
unicode = 222;
},
{
color = 4;
glyphname = Q;
layers = (
{
background = {
shapes = (
{
closed = 1;
nodes = (
(574,-15,o),
(715,139,o),
(715,357,cs),
(715,567,o),
(574,715,o),
(374,715,cs),
(175,715,o),
(35,563,o),
(35,347,cs),
(35,135,o),
(175,-15,o),
(374,-15,cs)
);
},
{
closed = 1;
nodes = (
(234,23,o),
(144,163,o),
(144,415,cs),
(144,583,o),
(218,676,o),
(351,676,cs),
(515,676,o),
(606,537,o),
(606,286,cs),
(606,117,o),
(531,23,o),
(397,23,cs)
);
}
);
};
layerId = m01;
shapes = (
{
closed = 1;
nodes = (
(715,-129,l),
(715,-110,l),
(660,-92,ls),
(629,-82,o),
(599,-67,o),
(587,-56,cs),
(489,31,l),
(491,9,l),
(622,45,o),
(715,189,o),
(715,357,cs),
(715,567,o),
(574,716,o),
(374,716,cs),
(175,716,o),
(35,563,o),
(35,347,cs),
(35,128,o),
(182,-22,o),
(391,-15,c),
(363,-4,l),
(534,-129,l)
);
},
{
closed = 1;
nodes = (
(234,23,o),
(144,163,o),
(144,415,cs),
(144,583,o),
(218,675,o),
(351,675,cs),
(515,675,o),
(606,537,o),
(606,286,cs),
(606,117,o),
(531,23,o),
(397,23,cs)
);
}
);
width = 750;
},
{
associatedMasterId = m01;
background = {
shapes = (
{
closed = 1;
nodes = (
(584,715,o),
(725,567,o),
(725,357,cs),
(725,139,o),
(584,-15,o),
(384,-15,cs),
(185,-15,o),
(45,135,o),
(45,347,cs),
(45,563,o),
(185,715,o),
(384,715,cs)
);
},
{
closed = 1;
nodes = (
(228,676,o),
(154,583,o),
(154,415,cs),
(154,163,o),
(244,23,o),
(407,23,cs),
(541,23,o),
(616,117,o),
(616,286,cs),
(616,537,o),
(525,676,o),
(361,676,cs)
);
}
);
};
layerId = "CD80C9CB-C6C2-4A56-9AD6-E0D283AD5534";
name = "2. Jan. 24, 00:43";
shapes = (
{
closed = 1;
nodes = (
(574,-15,o),
(715,139,o),
(715,357,cs),
(715,567,o),
(574,715,o),
(374,715,cs),
(175,715,o),
(35,563,o),
(35,347,cs),
(35,135,o),
(175,-15,o),
(374,-15,cs)
);
},
{
closed = 1;
nodes = (
(715,-140,l),
(715,-121,l),
(660,-103,ls),
(631,-93,o),
(609,-86,o),
(587,-67,cs),
(493,16,l),
(362,-4,l),
(534,-140,l)
);
},
{
closed = 1;
nodes = (
(234,23,o),
(144,163,o),
(144,415,cs),
(144,583,o),
(218,676,o),
(351,676,cs),
(515,676,o),
(606,537,o),
(606,286,cs),
(606,117,o),
(531,23,o),
(397,23,cs)
);
}
);
width = 750;
},
{
background = {
shapes = (
{
closed = 1;
nodes = (
(624,-16,o),
(783,139,o),
(783,357,cs),
(783,567,o),
(624,716,o),
(399,716,cs),
(175,716,o),
(17,563,o),
(17,347,cs),
(17,134,o),
(175,-16,o),
(399,-16,cs)
);
},
{
closed = 1;
nodes = (
(287,25,o),
(212,164,o),
(212,415,cs),
(212,582,o),
(271,675,o),
(376,675,cs),
(512,675,o),
(588,536,o),
(588,286,cs),
(588,118,o),
(529,25,o),
(422,25,cs)
);
}
);
};
hints = (
{
horizontal = 1;
place = (-143, 15);
place = (-143, 15);
type = Stem;
},
{
horizontal = 1;
place = (673, 45);
place = (673, 45);
type = Stem;
},
{
place = (-8, 195);
place = (-8, 195);
type = Stem;
},
{
place = (563, 195);
place = (563, 195);
type = Stem;
}
);
layerId = "E0989092-07D5-4BE4-A82B-4E03160A36DB";
shapes = (
{
closed = 1;
nodes = (
(783,-143,l),
(783,-123,l),
(698,-100,ls),
(684,-96,o),
(660,-81,o),
(640,-64,cs),
(551,15,l),
(552,13,l),
(687,55,o),
(783,197,o),
(783,357,cs),
(783,568,o),
(624,716,o),
(399,716,cs),
(175,716,o),
(17,564,o),
(17,347,cs),
(17,149,o),
(165,0,o),
(375,-11,c),
(371,-10,l),
(532,-143,l)
);
},
{
closed = 1;
nodes = (
(287,25,o),
(212,165,o),
(212,415,cs),
(212,581,o),
(271,675,o),
(376,675,cs),
(512,675,o),
(588,535,o),
(588,286,cs),
(588,119,o),
(529,25,o),
(422,25,cs)
);
}
);
width = 800;
}
);
unicode = 81;
},
{
color = 4;
glyphname = R;
layers = (
{
anchors = (
{
name = com;
pos = (351,-2);
},
{
name = top;
pos = (294,700);
}
);
layerId = m01;
shapes = (
{
closed = 1;
nodes = (
(318,0,l),
(318,20,l),
(197,55,l),
(214,32,l),
(214,318,l),
(196,300,l),
(335,300,l),
(308,316,l),
(509,0,l),
(681,0,l),
(681,19,l),
(637,35,ls),
(605,47,o),
(588,63,o),
(569,91,cs),
(401,335,l),
(399,316,l),
(495,347,o),
(556,426,o),
(556,527,cs),
(556,628,o),
(462,700,o),
(328,700,cs),
(28,700,l),
(28,680,l),
(136,644,l),
(119,668,l),
(119,32,l),
(136,56,l),
(28,20,l),
(28,0,l)
);
},
{
closed = 1;
nodes = (
(214,668,l),
(196,650,l),
(298,650,ls),
(385,650,o),
(446,586,o),
(446,495,cs),
(446,404,o),
(397,340,o),
(328,340,cs),
(196,340,l),
(214,322,l)
);
}
);
width = 650;
},
{
anchors = (
{
name = com;
pos = (351,-2);
},
{
name = top;
pos = (294,700);
}
);
associatedMasterId = m01;
layerId = "8EE325DB-C90E-4465-8EBF-5D3FDAB11B02";
name = "1. Jan. 24, 23:51";
shapes = (
{
closed = 1;
nodes = (
(681,0,l),
(681,19,l),
(632,35,ls),
(600,45,o),
(583,63,o),
(564,91,cs),
(400,336,l),
(308,316,l),
(509,0,l)
);
},
{
closed = 1;
nodes = (
(318,0,l),
(318,20,l),
(214,50,l),
(119,50,l),
(28,20,l),
(28,0,l)
);
},
{
closed = 1;
nodes = (
(214,50,l),
(214,650,l),
(119,650,l),
(119,50,l)
);
},
{
closed = 1;
nodes = (
(298,300,l),
(328,340,l),
(184,340,l),
(184,300,l)
);
},
{
closed = 1;
nodes = (
(298,650,l),
(328,700,l),
(28,700,l),
(28,680,l),
(119,650,l)
);
},
{
closed = 1;
nodes = (
(449,300,o),
(556,394,o),
(556,527,cs),
(556,628,o),
(462,700,o),
(328,700,c),
(298,650,l),
(385,650,o),
(446,586,o),
(446,495,cs),
(446,404,o),
(397,340,o),
(328,340,c),
(298,300,l)
);
}
);
width = 650;
},
{
anchors = (
{
name = com;
pos = (421,-2);
},
{
name = top;
pos = (314,700);
}
);
background = {
shapes = (
{
closed = 1;
nodes = (
(378,0,l),
(378,20,l),
(283,51,l),
(285,48,l),
(285,305,l),
(283,303,l),
(331,303,ls),
(508,303,o),
(634,396,o),
(634,527,cs),
(634,628,o),
(524,700,o),
(368,700,cs),
(8,700,l),
(8,680,l),
(103,649,l),
(101,652,l),
(101,48,l),
(103,51,l),
(8,20,l),
(8,0,l)
);
},
{
closed = 1;
nodes = (
(285,655,l),
(283,653,l),
(331,653,ls),
(397,653,o),
(443,588,o),
(443,495,cs),
(443,406,o),
(401,343,o),
(341,343,cs),
(283,343,l),
(285,341,l)
);
}
);
};
hints = (
{
horizontal = 1;
place = (0, 17);
place = (0, 17);
type = Stem;
},
{
horizontal = 1;
place = (297, 46);
place = (297, 46);
type = Stem;
},
{
horizontal = 1;
place = (653, 47);
place = (653, 47);
type = Stem;
},
{
place = (76, 181);
place = (76, 181);
type = Stem;
},
{
horizontal = 1;
place = (0, 16);
place = (0, 16);
type = Stem;
},
{
place = (403, 196);
place = (403, 196);
type = Stem;
},
{
horizontal = 1;
place = (687, 13);
place = (687, 13);
type = Stem;
}
);
layerId = "E0989092-07D5-4BE4-A82B-4E03160A36DB";
shapes = (
{
closed = 1;
nodes = (
(378,0,l),
(378,20,l),
(283,51,l),
(285,48,l),
(285,313,l),
(273,303,l),
(312,303,l),
(299,312,l),
(502,0,l),
(755,0,l),
(755,16,l),
(729,23,ls),
(715,27,o),
(689,56,o),
(664,93,cs),
(488,352,l),
(480,331,l),
(570,357,o),
(634,438,o),
(634,527,cs),
(634,628,o),
(520,700,o),
(358,700,cs),
(8,700,l),
(8,680,l),
(103,649,l),
(101,652,l),
(101,48,l),
(103,51,l),
(8,20,l),
(8,0,l)
);
},
{
closed = 1;
nodes = (
(285,655,l),
(283,650,l),
(337,650,ls),
(399,650,o),
(443,586,o),
(443,495,cs),
(443,407,o),
(402,344,o),
(344,344,cs),
(283,344,l),
(285,342,l)
);
}
);
width = 733;
}
);
unicode = 82;
},
{
color = 4;
glyphname = S;
layers = (
{
anchors = (
{
name = ced;
pos = (271,0);
},
{
name = com;
pos = (271,-2);
},
{
name = top;
pos = (273,700);
}
);
layerId = m01;
shapes = (
{
closed = 1;
nodes = (
(403,-16,o),
(496,66,o),
(496,183,cs),
(496,273,o),
(399,338,o),
(307,401,cs),
(224,458,o),
(144,512,o),
(144,574,cs),
(144,637,o),
(197,682,o),
(272,682,cs),
(340,682,o),
(406,614,o),
(431,518,c),
(459,518,l),
(459,662,l),
(426,694,o),
(349,716,o),
(272,716,cs),
(143,716,o),
(52,639,o),
(52,529,cs),
(52,442,o),
(158,370,o),
(256,301,cs),
(339,243,o),
(418,190,o),
(418,138,cs),
(418,68,o),
(358,18,o),
(272,18,cs),
(194,18,o),
(123,92,o),
(99,197,c),
(70,197,l),
(57,44,l),
(112,9,o),
(201,-16,o),
(272,-16,cs)
);
}
);
width = 548;
},
{
anchors = (
{
name = ced;
pos = (271,0);
},
{
name = com;
pos = (271,-2);
},
{
name = top;
pos = (273,700);
}
);
associatedMasterId = m01;
layerId = "81631164-83AA-4D73-9C19-4A915934467F";
name = "1. Jan. 24, 23:55";
shapes = (
{
closed = 1;
nodes = (
(403,-16,o),
(496,66,o),
(496,183,cs),
(496,347,o),
(144,442,o),
(144,574,cs),
(144,637,o),
(197,682,o),
(272,682,cs),
(340,682,o),
(406,614,o),
(431,518,c),
(459,518,l),
(459,662,l),
(426,694,o),
(349,716,o),
(272,716,cs),
(143,716,o),
(52,639,o),
(52,529,cs),
(52,375,o),
(418,250,o),
(418,138,cs),
(418,68,o),
(358,18,o),
(272,18,cs),
(194,18,o),
(123,92,o),
(99,197,c),
(70,197,l),
(57,44,l),
(112,9,o),
(201,-16,o),
(272,-16,cs)
);
}
);
width = 548;
},
{
anchors = (
{
name = ced;
pos = (292,0);
},
{
name = com;
pos = (292,-2);
},
{
name = top;
pos = (294,700);
}
);
hints = (
{
horizontal = 1;
place = (-19, 40);
place = (-19, 40);
type = Stem;
},
{
horizontal = 1;
place = (679, 40);
place = (679, 40);
type = Stem;
},
{
place = (9, 178);
place = (9, 178);
type = Stem;
},
{
place = (375, 164);
place = (375, 164);
type = Stem;
},
{
place = (423, 79);
place = (423, 79);
type = Stem;
}
);
layerId = "E0989092-07D5-4BE4-A82B-4E03160A36DB";
shapes = (
{
closed = 1;
nodes = (
(457,-16,o),
(568,66,o),
(568,183,cs),
(568,270,o),
(476,333,o),
(386,396,cs),
(301,453,o),
(216,505,o),
(216,574,cs),
(216,634,o),
(251,676,o),
(301,676,cs),
(406,676,o),
(461,609,o),
(461,515,c),
(531,515,l),
(531,647,l),
(484,687,o),
(389,716,o),
(301,716,cs),
(147,716,o),
(38,639,o),
(38,529,cs),
(38,447,o),
(135,377,o),
(232,311,cs),
(320,250,o),
(404,195,o),
(404,138,cs),
(404,71,o),
(361,24,o),
(301,24,cs),
(187,24,o),
(126,97,o),
(126,200,c),
(56,200,l),
(44,54,l),
(87,13,o),
(194,-16,o),
(301,-16,cs)
);
}
);
width = 586;
}
);
unicode = 83;
},
{
color = 5;
glyphname = Saltillo;
layers = (
{
layerId = m01;
shapes = (
{
closed = 1;
nodes = (
(108,415,l),
(118,700,l),
(36,700,l),
(46,415,l)
);
}
);
width = 224;
},
{
layerId = "E0989092-07D5-4BE4-A82B-4E03160A36DB";
shapes = (
{
closed = 1;
nodes = (
(128,395,l),
(138,700,l),
(36,700,l),
(46,395,l)
);
}
);
width = 244;
}
);
unicode = 42891;
},
{
color = 5;
glyphname = Germandbls;
layers = (
{
layerId = m01;
shapes = (
{
closed = 1;
nodes = (
(507,-16,o),
(565,77,o),
(565,180,cs),
(565,296,o),
(490,311,o),
(429,348,cs),
(388,373,o),
(353,404,o),
(353,440,cs),
(353,477,o),
(383,495,o),
(418,517,cs),
(469,548,o),
(523,587,o),
(529,700,c),
(22,700,l),
(22,680,l),
(130,644,l),
(113,668,l),
(113,32,l),
(130,56,l),
(22,20,l),
(22,0,l),
(206,0,l),
(206,668,l),
(190,650,l),
(448,650,l),
(429,665,l),
(445,595,o),
(402,557,o),
(364,519,cs),
(329,484,o),
(275,450,o),
(275,390,cs),
(275,315,o),
(368,261,o),
(430,229,cs),
(476,204,o),
(516,168,o),
(516,130,cs),
(516,56,o),
(478,19,o),
(424,19,cs),
(387,19,o),
(350,47,o),
(315,139,c),
(294,139,l),
(294,34,l),
(319,5,o),
(374,-16,o),
(424,-16,cs)
);
}
);
width = 600;
},
{
associatedMasterId = m01;
layerId = "5F037B64-807D-4008-80E9-3713EBE27D4E";
name = "1. Jan. 24, 23:57";
shapes = (
{
closed = 1;
nodes = (
(527,-16,o),
(585,57,o),
(585,160,cs),
(585,355,o),
(373,350,o),
(373,440,cs),
(373,529,o),
(549,509,o),
(559,699,c),
(447,676,l),
(477,531,o),
(315,519,o),
(315,390,cs),
(315,225,o),
(536,230,o),
(536,140,cs),
(536,66,o),
(498,19,o),
(444,19,cs),
(407,19,o),
(370,47,o),
(352,94,cs),
(335,139,l),
(317,139,l),
(311,34,l),
(339,5,o),
(394,-16,o),
(444,-16,cs)
);
},
{
closed = 1;
nodes = (
(218,0,l),
(218,50,l),
(123,50,l),
(32,20,l),
(32,0,l)
);
},
{
closed = 1;
nodes = (
(218,50,l),
(218,650,l),
(123,650,l),
(123,50,l)
);
},
{
closed = 1;
nodes = (
(529,650,l),
(559,700,l),
(32,700,l),
(32,680,l),
(123,650,l)
);
}
);
width = 600;
},
{
layerId = "E0989092-07D5-4BE4-A82B-4E03160A36DB";
shapes = (
{
closed = 1;
nodes = (
(549,-16,o),
(615,47,o),
(615,147,cs),
(615,269,o),
(543,318,o),
(484,348,cs),
(440,371,o),
(403,394,o),
(403,440,cs),
(403,485,o),
(433,498,o),
(470,515,cs),
(521,536,o),
(590,564,o),
(592,700,c),
(-31,700,l),
(-31,687,l),
(62,653,l),
(60,656,l),
(60,45,l),
(62,48,l),
(-31,17,l),
(-31,0,l),
(236,0,l),
(236,655,l),
(234,653,l),
(433,653,l),
(431,655,l),
(446,584,o),
(419,564,o),
(359,514,cs),
(327,484,o),
(272,452,o),
(272,390,cs),
(272,277,o),
(328,254,o),
(390,224,cs),
(438,202,o),
(509,153,o),
(509,107,cs),
(509,23,o),
(451,22,o),
(431,22,cs),
(419,22,o),
(325,30,o),
(322,142,c),
(276,142,l),
(276,47,l),
(271,23,o),
(352,-16,o),
(431,-16,cs)
);
}
);
width = 630;
}
);
unicode = 7838;
},
{
color = 4;
glyphname = T;
layers = (
{
anchors = (
{
name = ced;
pos = (335,0);
},
{
name = com;
pos = (335,-2);
},
{
name = top;
pos = (327,700);
}
);
background = {
shapes = (
{
closed = 1;
nodes = (
(105,612,ls),
(120,640,o),
(125,657,o),
(125,675,cs),
(125,691,o),
(113,700,o),
(93,700,cs),
(72,700,o),
(56,679,o),
(49,640,cs),
(36,564,ls),
(29,524,o),
(29,502,o),
(35,500,cs),
(41,498,o),
(54,514,o),
(73,551,cs)
);
}
);
};
layerId = m01;
shapes = (
{
closed = 1;
nodes = (
(468,0,l),
(468,19,l),
(367,56,l),
(384,32,l),
(384,676,l),
(366,650,l),
(564,650,l),
(538,666,l),
(625,500,l),
(646,500,l),
(612,700,l),
(59,700,l),
(25,500,l),
(46,500,l),
(133,666,l),
(107,650,l),
(307,650,l),
(289,668,l),
(289,32,l),
(306,56,l),
(198,20,l),
(198,0,l)
);
}
);
width = 671;
},
{
anchors = (
{
name = ced;
pos = (335,0);
},
{
name = com;
pos = (335,-2);
},
{
name = top;
pos = (327,700);
}
);
associatedMasterId = m01;
background = {
shapes = (
{
closed = 1;
nodes = (
(105,612,ls),
(120,640,o),
(125,657,o),
(125,675,cs),
(125,691,o),
(113,700,o),
(93,700,cs),
(72,700,o),
(56,679,o),
(49,640,cs),
(36,564,ls),
(29,524,o),
(29,502,o),
(35,500,cs),
(41,498,o),
(54,514,o),
(73,551,cs)
);
}
);
};
layerId = "48D25F69-1500-4DA1-829A-E991BACADBF6";
name = "2. Jan. 24, 00:02";
shapes = (
{
closed = 1;
nodes = (
(384,50,l),
(384,650,l),
(289,650,l),
(289,50,l)
);
},
{
closed = 1;
nodes = (
(468,0,l),
(468,19,l),
(384,50,l),
(289,50,l),
(198,20,l),
(198,0,l)
);
},
{
closed = 1;
nodes = (
(46,500,l),
(151,700,l),
(59,700,l),
(25,500,l)
);
},
{
closed = 1;
nodes = (
(612,650,l),
(612,700,l),
(59,700,l),
(59,650,l)
);
},
{
closed = 1;
nodes = (
(646,500,l),
(612,700,l),
(520,700,l),
(625,500,l)
);
}
);
width = 671;
},
{
anchors = (
{
name = ced;
pos = (277,0);
},
{
name = com;
pos = (278,-2);
},
{
name = top;
pos = (277,700);
}
);
hints = (
{
horizontal = 1;
place = (0, 16);
place = (0, 16);
type = Stem;
},
{
horizontal = 1;
place = (647, 53);
place = (647, 53);
type = Stem;
},
{
place = (179, 182);
place = (179, 182);
type = Stem;
},
{
horizontal = 1;
place = (497, 203);
place = (497, 203);
type = Stem;
}
);
layerId = "E0989092-07D5-4BE4-A82B-4E03160A36DB";
shapes = (
{
closed = 1;
nodes = (
(462,0,l),
(462,20,l),
(367,51,l),
(369,48,l),
(369,652,l),
(367,650,l),
(486,650,l),
(483,652,l),
(565,500,l),
(595,500,l),
(559,700,l),
(-5,700,l),
(-41,500,l),
(-11,500,l),
(71,652,l),
(68,650,l),
(187,650,l),
(185,652,l),
(185,48,l),
(187,51,l),
(92,20,l),
(92,0,l)
);
}
);
width = 644;
}
);
unicode = 84;
},
{
color = 4;
glyphname = U;
layers = (
{
anchors = (
{
name = ogo;
pos = (371,0);
},
{
name = top;
pos = (390,700);
}
);
layerId = m01;
shapes = (
{
closed = 1;
nodes = (
(525,-15,o),
(634,87,o),
(634,230,cs),
(634,668,l),
(617,644,l),
(728,681,l),
(728,700,l),
(493,700,l),
(493,680,l),
(601,644,l),
(584,668,l),
(584,210,ls),
(584,113,o),
(505,44,o),
(393,44,cs),
(282,44,o),
(204,129,o),
(204,250,cs),
(204,668,l),
(187,644,l),
(298,681,l),
(298,700,l),
(18,700,l),
(18,680,l),
(126,644,l),
(109,668,l),
(109,230,ls),
(109,87,o),
(218,-15,o),
(371,-15,cs)
);
}
);
width = 746;
},
{
anchors = (
{
name = ogo;
pos = (371,0);
},
{
name = top;
pos = (390,700);
}
);
associatedMasterId = m01;
layerId = "C9F274BC-9739-450A-90AE-ADDF7D885A0A";
name = "2. Jan. 24, 00:06";
shapes = (
{
closed = 1;
nodes = (
(525,-15,o),
(634,87,o),
(634,230,c),
(584,210,l),
(584,113,o),
(505,44,o),
(393,44,cs),
(282,44,o),
(204,129,o),
(204,250,c),
(109,230,l),
(109,87,o),
(218,-15,o),
(371,-15,cs)
);
},
{
closed = 1;
nodes = (
(204,250,l),
(204,650,l),
(109,650,l),
(109,230,l)
);
},
{
closed = 1;
nodes = (
(204,650,l),
(298,681,l),
(298,700,l),
(18,700,l),
(18,680,l),
(109,650,l)
);
},
{
closed = 1;
nodes = (
(634,230,l),
(634,650,l),
(584,650,l),
(584,210,l)
);
},
{
closed = 1;
nodes = (
(634,650,l),
(728,681,l),
(728,700,l),
(493,700,l),
(493,680,l),
(584,650,l)
);
}
);
width = 746;
},
{
anchors = (
{
name = ogo;
pos = (401,0);
},
{
name = top;
pos = (355,700);
}
);
background = {
shapes = (
{
closed = 0;
nodes = (
(637,648,l),
(730,680,l),
(730,700,l),
(360,700,l),
(360,680,l),
(453,650,l)
);
}
);
};
hints = (
{
horizontal = 1;
place = (-18, 65);
place = (-18, 65);
type = Stem;
},
{
horizontal = 1;
place = (684, 16);
place = (684, 16);
type = Stem;
},
{
place = (49, 182);
place = (49, 182);
type = Stem;
},
{
place = (557, 70);
place = (557, 70);
type = Stem;
}
);
layerId = "E0989092-07D5-4BE4-A82B-4E03160A36DB";
shapes = (
{
closed = 1;
nodes = (
(532,-16,o),
(637,85,o),
(637,228,cs),
(637,650,l),
(635,647,l),
(730,680,l),
(730,700,l),
(494,700,l),
(494,680,l),
(589,649,l),
(587,652,l),
(587,193,ls),
(587,109,o),
(512,49,o),
(406,49,cs),
(322,49,o),
(263,128,o),
(263,240,cs),
(263,650,l),
(261,647,l),
(356,680,l),
(356,700,l),
(-14,700,l),
(-14,680,l),
(81,649,l),
(79,652,l),
(79,202,ls),
(79,74,o),
(205,-16,o),
(384,-16,cs)
);
}
);
width = 726;
}
);
unicode = 85;
},
{
color = 4;
glyphname = V;
layers = (
{
anchors = (
{
name = top;
pos = (398,700);
}
);
background = {
shapes = (
{
closed = 1;
nodes = (
(101,660,l),
(342,-10,l),
(441,10,l),
(200,660,l)
);
}
);
};
layerId = m01;
shapes = (
{
closed = 1;
nodes = (
(391,0,l),
(639,667,l),
(616,644,l),
(727,681,l),
(727,700,l),
(489,700,l),
(489,680,l),
(597,644,l),
(586,667,l),
(386,127,l),
(391,127,l),
(189,667,l),
(176,644,l),
(287,681,l),
(287,700,l),
(0,700,l),
(0,680,l),
(108,644,l),
(85,667,l),
(342,-10,l)
);
}
);
width = 727;
},
{
associatedMasterId = m01;
background = {
shapes = (
{
closed = 1;
nodes = (
(101,660,l),
(342,-10,l),
(441,10,l),
(200,660,l)
);
}
);
};
layerId = "2DF3106B-5057-4E46-8347-DDA87B063409";
name = "2. Jan. 24, 00:09";
shapes = (
{
closed = 1;
nodes = (
(391,0,l),
(633,650,l),
(580,650,l),
(392,144,l),
(195,650,l),
(91,650,l),
(342,-10,l)
);
},
{
closed = 1;
nodes = (
(195,650,l),
(289,681,l),
(289,700,l),
(0,700,l),
(0,680,l),
(91,650,l)
);
},
{
closed = 1;
nodes = (
(633,650,l),
(727,681,l),
(727,700,l),
(489,700,l),
(489,680,l),
(580,650,l)
);
}
);
width = 727;
},
{
anchors = (
{
name = top;
pos = (370,700);
}
);
background = {
shapes = (
{
closed = 1;
nodes = (
(691,700,l),
(434,700,l),
(434,680,l),
(547,643,l),
(546,652,l),
(473,460,l),
(578,462,l),
(281,462,l),
(284,460,l),
(212,652,l),
(211,649,l),
(306,680,l),
(306,700,l),
(-64,700,l),
(-64,680,l),
(18,653,l),
(15,656,l),
(262,-15,l),
(353,0,l),
(599,652,l),
(596,649,l),
(691,680,l)
);
},
{
closed = 1;
nodes = (
(562,422,l),
(459,424,l),
(320,52,l),
(436,52,l),
(298,424,l),
(297,422,l)
);
}
);
};
hints = (
{
horizontal = 1;
place = (684, 16);
place = (684, 16);
type = Stem;
},
{
place = (-77, 751);
place = (-77, 751);
type = Stem;
}
);
layerId = "E0989092-07D5-4BE4-A82B-4E03160A36DB";
shapes = (
{
closed = 1;
nodes = (
(353,0,l),
(599,652,l),
(596,649,l),
(691,680,l),
(691,700,l),
(434,700,l),
(434,680,l),
(545,643,l),
(544,646,l),
(375,201,l),
(379,201,l),
(212,652,l),
(211,649,l),
(306,680,l),
(306,700,l),
(-64,700,l),
(-64,680,l),
(18,653,l),
(15,656,l),
(262,-15,l)
);
}
);
width = 649;
}
);
unicode = 86;
},
{
color = 4;
glyphname = W;
layers = (
{
anchors = (
{
name = top;
pos = (540,700);
}
);
background = {
shapes = (
{
closed = 0;
nodes = (
(328,-35,l),
(635,733,l)
);
},
{
closed = 0;
nodes = (
(389,-45,l),
(696,723,l)
);
},
{
closed = 0;
nodes = (
(633,-35,l),
(940,733,l)
);
},
{
closed = 0;
nodes = (
(699,-35,l),
(1006,733,l)
);
}
);
};
layerId = m01;
shapes = (
{
closed = 1;
nodes = (
(403,0,l),
(543,350,l),
(513,350,l),
(642,-10,l),
(690,0,l),
(958,667,l),
(925,645,l),
(1044,681,l),
(1044,700,l),
(787,700,l),
(787,680,l),
(902,645,l),
(890,667,l),
(672,107,l),
(689,108,l),
(569,441,l),
(574,409,l),
(672,666,l),
(643,643,l),
(732,681,l),
(732,700,l),
(537,700,l),
(537,680,l),
(620,646,l),
(606,667,l),
(535,472,l),
(555,472,l),
(465,700,l),
(289,700,l),
(289,680,l),
(405,645,l),
(380,666,l),
(499,383,l),
(503,415,l),
(392,121,l),
(402,120,l),
(183,700,l),
(0,700,l),
(0,680,l),
(115,645,l),
(92,667,l),
(351,-10,l)
);
}
);
width = 1075;
},
{
anchors = (
{
name = top;
pos = (540,700);
}
);
associatedMasterId = m01;
background = {
shapes = (
{
closed = 1;
nodes = (
(80,660,l),
(321,-10,l),
(420,10,l),
(179,660,l)
);
},
{
closed = 1;
nodes = (
(437,660,l),
(678,-10,l),
(777,10,l),
(536,660,l)
);
}
);
};
layerId = "D26895DC-3BB4-497B-9268-E03FEBC355CF";
name = "2. Jan. 24, 00:10";
shapes = (
{
closed = 1;
nodes = (
(373,0,l),
(694,700,l),
(637,700,l),
(372,137,l),
(177,700,l),
(98,650,l),
(321,-10,l)
);
},
{
closed = 1;
nodes = (
(177,700,l),
(0,700,l),
(0,680,l),
(98,650,l)
);
},
{
closed = 1;
nodes = (
(730,0,l),
(943,650,l),
(886,650,l),
(720,124,l),
(446,700,l),
(368,650,l),
(678,-10,l)
);
},
{
closed = 1;
nodes = (
(446,700,l),
(269,700,l),
(269,680,l),
(368,650,l)
);
},
{
closed = 1;
nodes = (
(674,650,l),
(743,681,l),
(743,700,l),
(518,700,l),
(518,680,l),
(617,650,l)
);
},
{
closed = 1;
nodes = (
(943,650,l),
(1045,681,l),
(1045,700,l),
(788,700,l),
(788,680,l),
(886,650,l)
);
}
);
width = 1045;
},
{
anchors = (
{
name = top;
pos = (471,700);
}
);
background = {
shapes = (
{
closed = 1;
nodes = (
(331,0,l),
(605,652,l),
(602,649,l),
(697,680,l),
(697,700,l),
(440,700,l),
(440,680,l),
(551,643,l),
(550,646,l),
(353,201,l),
(357,201,l),
(162,652,l),
(161,649,l),
(256,680,l),
(256,700,l),
(-114,700,l),
(-114,680,l),
(-32,653,l),
(-35,656,l),
(240,-15,l)
);
},
{
closed = 1;
nodes = (
(331,0,l),
(605,652,l),
(602,649,l),
(697,680,l),
(697,700,l),
(440,700,l),
(440,680,l),
(551,643,l),
(550,646,l),
(353,201,l),
(357,201,l),
(162,652,l),
(161,649,l),
(256,680,l),
(256,700,l),
(-114,700,l),
(-114,680,l),
(-32,653,l),
(-35,656,l),
(240,-15,l)
);
},
{
closed = 1;
nodes = (
(626,0,l),
(900,652,l),
(897,649,l),
(992,680,l),
(992,700,l),
(735,700,l),
(735,680,l),
(846,643,l),
(845,646,l),
(648,201,l),
(652,201,l),
(457,652,l),
(456,649,l),
(551,680,l),
(551,700,l),
(181,700,l),
(181,680,l),
(263,653,l),
(260,656,l),
(535,-15,l)
);
}
);
};
hints = (
{
horizontal = 1;
place = (683, 17);
place = (683, 17);
type = Stem;
},
{
place = (-77, 1086);
place = (-77, 1086);
type = Stem;
}
);
layerId = "E0989092-07D5-4BE4-A82B-4E03160A36DB";
shapes = (
{
closed = 1;
nodes = (
(331,0,l),
(445,292,l),
(425,284,l),
(547,-15,l),
(626,0,l),
(902,657,l),
(888,646,l),
(992,680,l),
(992,700,l),
(774,700,l),
(774,683,l),
(852,640,l),
(846,651,l),
(642,168,l),
(648,167,l),
(518,479,l),
(514,436,l),
(610,664,l),
(586,644,l),
(697,680,l),
(697,700,l),
(515,700,l),
(515,680,l),
(563,643,l),
(557,667,l),
(492,514,l),
(502,522,l),
(429,700,l),
(181,700,l),
(181,680,l),
(293,643,l),
(267,669,l),
(420,296,l),
(416,357,l),
(334,144,l),
(350,148,l),
(122,700,l),
(-114,700,l),
(-114,680,l),
(-26,651,l),
(-38,664,l),
(240,-15,l)
);
}
);
width = 940;
}
);
unicode = 87;
},
{
color = 4;
glyphname = X;
layers = (
{
anchors = (
{
name = top;
pos = (362,700);
}
);
layerId = m01;
shapes = (
{
closed = 1;
nodes = (
(261,0,l),
(261,20,l),
(153,56,l),
(160,35,l),
(339,312,l),
(319,312,l),
(512,35,l),
(519,56,l),
(408,19,l),
(408,0,l),
(700,0,l),
(700,20,l),
(592,56,l),
(619,35,l),
(384,388,l),
(384,358,l),
(589,665,l),
(562,644,l),
(673,681,l),
(673,700,l),
(426,700,l),
(426,680,l),
(534,644,l),
(527,665,l),
(349,405,l),
(369,405,l),
(195,665,l),
(188,644,l),
(299,681,l),
(299,700,l),
(10,700,l),
(10,680,l),
(118,644,l),
(91,665,l),
(312,321,l),
(312,351,l),
(98,35,l),
(125,56,l),
(14,19,l),
(14,0,l)
);
}
);
width = 710;
},
{
associatedMasterId = m01;
layerId = "F046320F-1E9A-4CB2-9107-3F313C602A8C";
name = "2. Jan. 24, 00:11";
shapes = (
{
closed = 1;
nodes = (
(170,50,l),
(329,297,l),
(502,50,l),
(610,50,l),
(404,358,ls),
(365,417,o),
(347,403,o),
(319,361,cs),
(108,50,l)
);
},
{
closed = 1;
nodes = (
(261,0,l),
(261,20,l),
(170,50,l),
(108,50,l),
(14,19,l),
(14,0,l)
);
},
{
closed = 1;
nodes = (
(700,0,l),
(700,20,l),
(609,50,l),
(502,50,l),
(408,19,l),
(408,0,l)
);
},
{
closed = 1;
nodes = (
(579,650,l),
(517,650,l),
(359,420,l),
(205,650,l),
(101,650,l),
(288,355,ls),
(324,298,o),
(351,309,o),
(380,352,cs)
);
},
{
closed = 1;
nodes = (
(205,650,l),
(299,681,l),
(299,700,l),
(10,700,l),
(10,680,l),
(101,650,l)
);
},
{
closed = 1;
nodes = (
(579,650,l),
(673,681,l),
(673,700,l),
(426,700,l),
(426,680,l),
(517,650,l)
);
}
);
width = 710;
},
{
anchors = (
{
name = top;
pos = (374,700);
}
);
hints = (
{
horizontal = 1;
place = (0, 16);
place = (0, 16);
type = Stem;
},
{
horizontal = 1;
place = (684, 16);
place = (684, 16);
type = Stem;
},
{
place = (-33, 776);
place = (-33, 776);
type = Stem;
}
);
layerId = "E0989092-07D5-4BE4-A82B-4E03160A36DB";
shapes = (
{
closed = 1;
nodes = (
(256,0,l),
(256,17,l),
(136,64,l),
(139,40,l),
(336,376,l),
(278,295,l),
(440,27,l),
(461,47,l),
(360,16,l),
(360,0,l),
(738,0,l),
(738,17,l),
(628,52,l),
(654,34,l),
(396,444,l),
(358,377,l),
(585,669,l),
(550,638,l),
(685,684,l),
(685,700,l),
(411,700,l),
(411,683,l),
(502,635,l),
(500,660,l),
(340,419,l),
(392,453,l),
(245,686,l),
(226,644,l),
(337,684,l),
(337,700,l),
(-18,700,l),
(-18,683,l),
(95,647,l),
(23,683,l),
(263,315,l),
(314,404,l),
(59,33,l),
(92,63,l),
(-44,16,l),
(-44,0,l)
);
}
);
width = 726;
}
);
unicode = 88;
},
{
color = 4;
glyphname = Y;
layers = (
{
anchors = (
{
name = top;
pos = (350,700);
}
);
layerId = m01;
shapes = (
{
closed = 1;
nodes = (
(469,0,l),
(469,19,l),
(358,56,l),
(375,32,l),
(375,351,l),
(572,665,l),
(545,644,l),
(656,681,l),
(656,700,l),
(409,700,l),
(409,680,l),
(517,644,l),
(509,666,l),
(341,374,l),
(357,374,l),
(194,666,l),
(188,644,l),
(299,681,l),
(299,700,l),
(0,700,l),
(0,680,l),
(108,644,l),
(82,666,l),
(280,310,l),
(280,32,l),
(297,56,l),
(189,20,l),
(189,0,l)
);
}
);
width = 656;
},
{
anchors = (
{
name = top;
pos = (350,700);
}
);
associatedMasterId = m01;
layerId = "910689E5-F858-4CAF-834D-8F0FBE956DA8";
name = "2. Jan. 24, 00:13";
shapes = (
{
closed = 1;
nodes = (
(562,650,l),
(500,650,l),
(350,390,l),
(205,650,l),
(91,650,l),
(313,251,l)
);
},
{
closed = 1;
nodes = (
(469,0,l),
(469,19,l),
(375,50,l),
(280,50,l),
(189,20,l),
(189,0,l)
);
},
{
closed = 1;
nodes = (
(375,50,l),
(375,373,l),
(280,373,l),
(280,50,l)
);
},
{
closed = 1;
nodes = (
(205,650,l),
(299,681,l),
(299,700,l),
(0,700,l),
(0,680,l),
(91,650,l)
);
},
{
closed = 1;
nodes = (
(562,650,l),
(656,681,l),
(656,700,l),
(409,700,l),
(409,680,l),
(500,650,l)
);
}
);
width = 656;
},
{
anchors = (
{
name = top;
pos = (374,700);
}
);
background = {
shapes = (
{
closed = 1;
nodes = (
(506,0,l),
(506,20,l),
(413,50,l),
(413,648,l),
(506,680,l),
(506,700,l),
(136,700,l),
(136,680,l),
(229,650,l),
(229,50,l),
(136,20,l),
(136,0,l)
);
}
);
};
hints = (
{
horizontal = 1;
place = (0, 16);
place = (0, 16);
type = Stem;
},
{
horizontal = 1;
place = (684, 16);
place = (684, 16);
type = Stem;
},
{
place = (187, 181);
place = (187, 181);
type = Stem;
}
);
layerId = "E0989092-07D5-4BE4-A82B-4E03160A36DB";
shapes = (
{
closed = 1;
nodes = (
(506,0,l),
(506,19,l),
(389,58,l),
(413,23,l),
(413,367,l),
(596,669,l),
(568,647,l),
(679,684,l),
(679,700,l),
(439,700,l),
(439,683,l),
(515,647,l),
(515,666,l),
(349,376,l),
(392,392,l),
(246,676,l),
(232,654,l),
(309,684,l),
(309,700,l),
(-44,700,l),
(-44,683,l),
(65,649,l),
(46,663,l),
(229,306,l),
(229,31,l),
(248,56,l),
(136,20,l),
(136,0,l)
);
}
);
width = 687;
}
);
unicode = 89;
},
{
color = 4;
glyphname = Z;
layers = (
{
anchors = (
{
name = top;
pos = (314,700);
}
);
layerId = m01;
shapes = (
{
closed = 1;
nodes = (
(578,0,l),
(578,201,l),
(532,211,l),
(500,37,l),
(522,50,l),
(145,50,l),
(152,35,l),
(577,700,l),
(80,700,l),
(46,500,l),
(67,500,l),
(154,666,l),
(128,650,l),
(447,650,l),
(439,665,l),
(31,20,l),
(31,0,l)
);
}
);
width = 620;
},
{
anchors = (
{
name = top;
pos = (314,700);
}
);
associatedMasterId = m01;
layerId = "345EA7E1-6674-4C14-AB06-E1D43D2DBF31";
name = "2. Jan. 24, 00:52";
shapes = (
{
closed = 1;
nodes = (
(580,700,l),
(461,700,l),
(31,20,l),
(132,1,l)
);
},
{
closed = 1;
nodes = (
(578,0,l),
(578,50,l),
(123,50,l),
(31,20,l),
(31,0,l)
);
},
{
closed = 1;
nodes = (
(578,201,l),
(532,211,l),
(503,51,l),
(578,0,l)
);
},
{
closed = 1;
nodes = (
(67,500,l),
(172,700,l),
(80,700,l),
(46,500,l)
);
},
{
closed = 1;
nodes = (
(472,650,l),
(505,700,l),
(83,700,l),
(83,650,l)
);
}
);
width = 620;
},
{
anchors = (
{
name = top;
pos = (358,700);
}
);
hints = (
{
horizontal = 1;
place = (0, 57);
place = (0, 57);
type = Stem;
},
{
horizontal = 1;
place = (643, 57);
place = (643, 57);
type = Stem;
},
{
place = (562, 109);
place = (562, 109);
type = Stem;
},
{
horizontal = 1;
place = (493, 207);
place = (493, 207);
type = Stem;
}
);
layerId = "E0989092-07D5-4BE4-A82B-4E03160A36DB";
shapes = (
{
closed = 1;
nodes = (
(651,0,l),
(651,198,l),
(602,210,l),
(551,48,l),
(554,50,l),
(250,50,l),
(251,48,l),
(647,700,l),
(68,700,l),
(33,500,l),
(83,500,l),
(163,652,l),
(160,650,l),
(398,650,l),
(397,652,l),
(18,17,l),
(18,0,l)
);
}
);
width = 673;
}
);
unicode = 90;
},
{
export = 0;
glyphname = W_h;
layers = (
{
anchors = (
{
name = top;
pos = (540,700);
}
);
layerId = m01;
shapes = (
{
closed = 1;
nodes = (
(403,0,l),
(543,350,l),
(513,350,l),
(642,-10,l),
(690,0,l),
(958,667,l),
(925,645,l),
(984,681,l),
(984,700,l),
(787,700,l),
(787,680,l),
(902,645,l),
(890,667,l),
(672,107,l),
(689,108,l),
(569,441,l),
(574,409,l),
(672,666,l),
(643,643,l),
(732,681,l),
(732,700,l),
(537,700,l),
(537,680,l),
(620,646,l),
(606,667,l),
(535,472,l),
(555,472,l),
(465,700,l),
(289,700,l),
(289,680,l),
(405,645,l),
(380,666,l),
(499,383,l),
(503,415,l),
(392,121,l),
(402,120,l),
(183,700,l),
(0,700,l),
(0,680,l),
(115,645,l),
(92,667,l),
(351,-10,l)
);
},
{
closed = 1;
nodes = (
(1193,0,l),
(1193,30,l),
(1102,55,l),
(1119,32,l),
(1119,426,l),
(1110,399,l),
(1148,436,o),
(1198,470,o),
(1239,470,cs),
(1307,470,o),
(1355,415,o),
(1355,338,cs),
(1355,32,l),
(1372,55,l),
(1281,30,l),
(1281,0,l),
(1536,0,l),
(1536,20,l),
(1428,56,l),
(1445,32,l),
(1445,366,ls),
(1445,453,o),
(1372,515,o),
(1270,515,cs),
(1218,515,o),
(1156,479,o),
(1110,440,c),
(1119,430,l),
(1119,718,l),
(1121,794,l),
(1111,800,l),
(925,745,l),
(925,729,l),
(1047,715,l),
(1029,735,l),
(1029,32,l),
(1046,56,l),
(938,20,l),
(938,0,l)
);
}
);
width = 1536;
},
{
anchors = (
{
name = top;
pos = (561,700);
}
);
hints = (
{
horizontal = 1;
place = (683, 17);
place = (683, 17);
type = Stem;
},
{
place = (-77, 1086);
place = (-77, 1086);
type = Stem;
},
{
horizontal = 1;
place = (-3, 16);
place = (-3, 16);
type = Stem;
},
{
horizontal = 1;
place = (472, 46);
place = (472, 46);
type = Stem;
},
{
place = (1024, 176);
place = (1024, 176);
type = Stem;
},
{
place = (1350, 176);
place = (1350, 176);
type = Stem;
}
);
layerId = "E0989092-07D5-4BE4-A82B-4E03160A36DB";
shapes = (
{
closed = 1;
nodes = (
(421,0,l),
(535,292,l),
(515,284,l),
(637,-15,l),
(716,0,l),
(992,657,l),
(978,646,l),
(1082,680,l),
(1082,700,l),
(934,700,l),
(934,683,l),
(942,640,l),
(936,651,l),
(732,168,l),
(738,167,l),
(608,479,l),
(604,436,l),
(700,664,l),
(676,644,l),
(787,680,l),
(787,700,l),
(605,700,l),
(605,680,l),
(653,643,l),
(647,667,l),
(582,514,l),
(592,522,l),
(519,700,l),
(271,700,l),
(271,680,l),
(383,643,l),
(357,669,l),
(510,296,l),
(506,357,l),
(424,144,l),
(440,148,l),
(212,700,l),
(-24,700,l),
(-24,680,l),
(64,651,l),
(52,664,l),
(330,-15,l)
);
},
{
closed = 1;
nodes = (
(1173,0,l),
(1173,20,l),
(1108,51,l),
(1110,48,l),
(1110,422,l),
(1109,419,l),
(1137,443,o),
(1173,461,o),
(1197,461,cs),
(1234,461,o),
(1260,410,o),
(1260,338,cs),
(1260,48,l),
(1262,51,l),
(1197,20,l),
(1197,0,l),
(1509,0,l),
(1509,20,l),
(1434,51,l),
(1436,48,l),
(1436,366,ls),
(1436,455,o),
(1350,517,o),
(1228,517,cs),
(1193,517,o),
(1146,502,o),
(1109,477,c),
(1110,476,l),
(1110,718,l),
(1112,787,l),
(1104,810,l),
(861,759,l),
(861,729,l),
(936,708,l),
(934,711,l),
(934,48,l),
(936,51,l),
(861,20,l),
(861,0,l)
);
}
);
width = 1511;
}
);
metricLeft = W;
metricRight = h;
},
{
export = 0;
glyphname = W_i;
layers = (
{
anchors = (
{
name = ogo;
pos = (1130,0);
},
{
name = top;
pos = (540,700);
}
);
layerId = m01;
shapes = (
{
closed = 1;
nodes = (
(403,0,l),
(527,310,l),
(642,-10,l),
(690,0,l),
(931,602,ls),
(958,664,o),
(1048,666,o),
(1148,607,c),
(1192,705,l),
(1066,801,o),
(932,763,o),
(869,613,c),
(681,130,l),
(577,418,l),
(667,653,l),
(732,681,l),
(732,700,l),
(537,700,l),
(537,680,l),
(601,654,l),
(545,498,l),
(465,700,l),
(289,700,l),
(289,680,l),
(386,651,l),
(495,393,l),
(397,134,l),
(183,700,l),
(0,700,l),
(0,680,l),
(98,650,l),
(351,-10,l)
);
},
{
closed = 1;
nodes = (
(1268,0,l),
(1268,20,l),
(1157,57,l),
(1174,33,l),
(1174,434,l),
(1176,510,l),
(1166,516,l),
(980,461,l),
(980,445,l),
(1102,431,l),
(1084,451,l),
(1084,32,l),
(1101,55,l),
(990,20,l),
(990,0,l)
);
}
);
width = 1303;
},
{
anchors = (
{
name = ogo;
pos = (952,0);
},
{
name = top;
pos = (561,700);
}
);
hints = (
{
horizontal = 1;
place = (683, 17);
place = (683, 17);
type = Stem;
},
{
place = (-77, 1086);
place = (-77, 1086);
type = Stem;
},
{
horizontal = 1;
place = (0, 17);
place = (0, 17);
type = Stem;
},
{
horizontal = 1;
place = (516, -20);
target = down;
type = TopGhost;
},
{
horizontal = 1;
place = (574, 196);
place = (574, 196);
type = Stem;
},
{
place = (873, 176);
place = (873, 176);
type = Stem;
},
{
place = (864, 208);
place = (864, 208);
type = Stem;
}
);
layerId = "E0989092-07D5-4BE4-A82B-4E03160A36DB";
shapes = (
{
closed = 1;
nodes = (
(307,0,l),
(410,263,l),
(523,-15,l),
(602,0,l),
(788,553,ls),
(816,631,o),
(907,638,o),
(1007,571,c),
(1062,700,l),
(930,787,o),
(807,762,o),
(765,640,cs),
(614,191,l),
(501,462,l),
(579,648,l),
(648,664,l),
(648,700,l),
(491,700,l),
(491,680,l),
(527,652,l),
(475,530,l),
(405,700,l),
(157,700,l),
(157,680,l),
(251,649,l),
(382,331,l),
(319,166,l),
(98,700,l),
(-138,700,l),
(-138,680,l),
(-58,654,l),
(216,-15,l)
);
},
{
closed = 1;
nodes = (
(1112,0,l),
(1112,20,l),
(1037,51,l),
(1039,28,l),
(1039,427,l),
(1041,493,l),
(1033,516,l),
(790,465,l),
(790,435,l),
(865,414,l),
(863,437,l),
(863,28,l),
(865,51,l),
(790,20,l),
(790,0,l)
);
}
);
width = 1142;
}
);
metricLeft = W;
},
{
color = 4;
glyphname = a;
layers = (
{
associatedMasterId = m01;
layerId = "DC0490B7-783B-4ABB-9CE4-D8D1AAD9D32C";
name = "1. Jan. 24, 11:25";
shapes = (
{
closed = 1;
nodes = (
(508,18,l),
(508,34,l),
(405,47,l),
(405,391,ls),
(405,464,o),
(351,516,o),
(275,516,cs),
(144,516,o),
(68,456,o),
(68,371,cs),
(68,336,l),
(151,356,l),
(154,391,ls),
(159,445,o),
(192,483,o),
(251,483,cs),
(288,483,o),
(319,437,o),
(319,371,cs),
(319,65,l),
(321,-11,l),
(331,-17,l)
);
},
{
closed = 1;
nodes = (
(236,-16,o),
(285,17,o),
(331,64,c),
(328,115,l),
(288,70,o),
(256,34,o),
(217,34,cs),
(178,34,o),
(143,102,o),
(143,177,cs),
(143,229,o),
(215,250,o),
(351,249,c),
(350,288,l),
(187,288,o),
(55,244,o),
(55,147,cs),
(55,63,o),
(90,-16,o),
(183,-16,cs)
);
}
);
width = 505;
},
{
anchors = (
{
name = ogo;
pos = (328,0);
},
{
name = top;
pos = (258,500);
}
);
layerId = m01;
name = Regular;
shapes = (
{
closed = 1;
nodes = (
(243,-16,o),
(291,16,o),
(336,61,c),
(325,70,l),
(328,-11,l),
(338,-17,l),
(492,18,l),
(492,34,l),
(394,49,l),
(412,29,l),
(412,391,ls),
(412,464,o),
(358,516,o),
(282,516,cs),
(151,516,o),
(75,456,o),
(75,371,cs),
(75,359,o),
(75,348,o),
(76,336,c),
(159,356,l),
(159,368,o),
(160,379,o),
(161,391,cs),
(166,445,o),
(199,483,o),
(258,483,cs),
(295,483,o),
(326,437,o),
(326,371,cs),
(326,269,l),
(342,287,l),
(187,285,o),
(62,241,o),
(62,147,cs),
(62,63,o),
(97,-16,o),
(190,-16,cs)
);
},
{
closed = 1;
nodes = (
(185,34,o),
(150,102,o),
(150,177,cs),
(150,228,o),
(218,248,o),
(347,249,c),
(326,267,l),
(326,87,l),
(336,116,l),
(296,71,o),
(263,34,o),
(224,34,cs)
);
}
);
width = 505;
},
{
anchors = (
{
name = ogo;
pos = (339,0);
},
{
name = top;
pos = (278,500);
}
);
hints = (
{
horizontal = 1;
place = (-16, 21);
target = up;
type = BottomGhost;
},
{
horizontal = 1;
place = (246, 43);
place = (246, 43);
type = Stem;
},
{
horizontal = 1;
place = (480, 36);
place = (480, 36);
type = Stem;
},
{
place = (12, 174);
place = (12, 174);
type = Stem;
},
{
place = (309, 173);
place = (309, 173);
type = Stem;
},
{
horizontal = 1;
place = (-15, 21);
target = up;
type = BottomGhost;
},
{
place = (25, 169);
place = (25, 169);
type = Stem;
},
{
horizontal = 1;
place = (-16, 53);
place = (-16, 53);
type = Stem;
}
);
layerId = "E0989092-07D5-4BE4-A82B-4E03160A36DB";
shapes = (
{
closed = 1;
nodes = (
(257,-16,o),
(303,18,o),
(334,49,c),
(333,50,l),
(329,-1,l),
(341,-15,l),
(596,21,l),
(596,56,l),
(501,68,l),
(503,66,l),
(503,391,ls),
(503,464,o),
(410,516,o),
(278,516,cs),
(140,516,o),
(43,456,o),
(43,371,cs),
(43,351,o),
(43,329,o),
(44,319,c),
(185,351,l),
(185,351,o),
(184,363,o),
(182,381,cs),
(180,425,o),
(233,466,o),
(267,466,cs),
(302,466,o),
(333,427,o),
(333,371,cs),
(333,287,l),
(335,289,l),
(180,277,o),
(30,225,o),
(30,147,cs),
(30,66,o),
(85,-16,o),
(218,-16,cs)
);
},
{
closed = 1;
nodes = (
(232,70,o),
(203,118,o),
(203,168,cs),
(203,221,o),
(254,234,o),
(335,237,c),
(333,248,l),
(333,91,l),
(335,95,l),
(316,75,o),
(294,70,o),
(282,70,cs)
);
}
);
width = 566;
}
);
unicode = 97;
},
{
color = 10;
glyphname = ae;
layers = (
{
layerId = m01;
shapes = (
{
closed = 1;
nodes = (
(605,-16,o),
(683,26,o),
(722,80,c),
(700,108,l),
(662,72,o),
(605,44,o),
(562,44,cs),
(466,44,o),
(400,137,o),
(405,278,c),
(387,262,l),
(729,262,l),
(730,272,o),
(730,281,o),
(730,291,cs),
(730,420,o),
(655,516,o),
(540,516,cs),
(474,516,o),
(420,488,o),
(381,441,c),
(394,440,l),
(374,486,o),
(322,516,o),
(265,516,cs),
(134,516,o),
(48,456,o),
(48,371,cs),
(48,359,o),
(48,348,o),
(48,336,c),
(131,356,l),
(132,368,o),
(133,379,o),
(134,391,cs),
(139,445,o),
(182,483,o),
(241,483,cs),
(278,483,o),
(319,437,o),
(319,371,cs),
(319,279,l),
(335,297,l),
(177,295,o),
(35,241,o),
(35,147,cs),
(35,63,o),
(80,-16,o),
(173,-16,cs),
(228,-16,o),
(289,-3,o),
(379,71,c),
(358,70,l),
(395,13,o),
(455,-16,o),
(532,-16,cs)
);
},
{
closed = 1;
nodes = (
(123,228,o),
(209,258,o),
(340,259,c),
(324,269,l),
(320,261,o),
(320,248,o),
(320,237,cs),
(320,175,o),
(329,125,o),
(348,87,c),
(360,108,l),
(285,49,o),
(245,34,o),
(207,34,cs),
(168,34,o),
(123,102,o),
(123,177,cs)
);
},
{
closed = 1;
nodes = (
(387,298,l),
(405,280,l),
(405,335,l),
(414,419,o),
(455,477,o),
(508,477,cs),
(578,477,o),
(630,395,o),
(633,287,c),
(650,303,l)
);
}
);
width = 755;
},
{
associatedMasterId = m01;
layerId = "B65321F4-4844-4506-B17C-728D37A61E98";
name = "1. Jan. 24, 12:08";
shapes = (
{
closed = 1;
nodes = (
(595,-13,o),
(673,26,o),
(712,80,c),
(690,108,l),
(652,72,o),
(595,47,o),
(552,47,cs),
(460,47,o),
(395,130,o),
(395,262,c),
(719,262,l),
(731,405,o),
(653,517,o),
(530,517,cs),
(396,517,o),
(311,401,o),
(310,237,cs),
(309,61,o),
(391,-13,o),
(522,-13,cs)
);
},
{
closed = 1;
nodes = (
(216,-16,o),
(275,-3,o),
(361,64,c),
(358,115,l),
(278,50,o),
(236,34,o),
(197,34,cs),
(158,34,o),
(113,102,o),
(113,177,cs),
(113,229,o),
(205,260,o),
(341,259,c),
(340,298,l),
(177,298,o),
(25,244,o),
(25,147,cs),
(25,63,o),
(70,-16,o),
(163,-16,cs)
);
},
{
closed = 1;
nodes = (
(395,391,ls),
(395,464,o),
(331,516,o),
(255,516,cs),
(124,516,o),
(38,456,o),
(38,371,cs),
(38,336,l),
(121,356,l),
(124,391,ls),
(129,445,o),
(172,483,o),
(231,483,cs),
(268,483,o),
(309,437,o),
(309,371,cs),
(309,279,l),
(395,262,l)
);
},
{
closed = 1;
nodes = (
(393,401,o),
(437,478,o),
(498,478,cs),
(566,478,o),
(617,401,o),
(622,298,c),
(626,302,ls),
(628,304,o),
(576,304,o),
(518,302,cs),
(393,298,l)
);
}
);
width = 765;
},
{
hints = (
{
horizontal = 1;
place = (-18, 67);
place = (-18, 67);
type = Stem;
},
{
horizontal = 1;
place = (259, 45.5);
place = (259, 45.5);
type = Stem;
},
{
horizontal = 1;
place = (470, 45);
place = (470, 45);
type = Stem;
},
{
place = (-18, 174);
place = (-18, 174);
type = Stem;
},
{
place = (266, 172);
place = (266, 172);
type = Stem;
},
{
place = (580, 183);
place = (580, 183);
type = Stem;
},
{
horizontal = 1;
place = (-16, 57);
place = (-16, 57);
type = Stem;
},
{
horizontal = 1;
place = (476, 40);
place = (476, 40);
type = Stem;
},
{
place = (-5, 169);
place = (-5, 169);
type = Stem;
},
{
place = (267, 171);
place = (267, 171);
type = Stem;
}
);
layerId = "E0989092-07D5-4BE4-A82B-4E03160A36DB";
shapes = (
{
closed = 1;
nodes = (
(635,-16,o),
(731,53,o),
(762,97,c),
(732,128,l),
(657,75,o),
(607,51,o),
(572,51,cs),
(513,51,o),
(459,119,o),
(458,261,c),
(456,259,l),
(782,259,l),
(783,269,o),
(783,278,o),
(783,288,cs),
(783,430,o),
(687,516,o),
(550,516,cs),
(492,516,o),
(443,504,o),
(403,481,c),
(405,482,l),
(364,503,o),
(302,516,o),
(217,516,cs),
(121,516,o),
(15,446,o),
(15,368,cs),
(15,351,o),
(15,333,o),
(16,316,c),
(186,358,l),
(185,368,o),
(185,377,o),
(184,388,cs),
(182,453,o),
(220,476,o),
(229,476,cs),
(256,476,o),
(286,444,o),
(286,368,cs),
(286,296,l),
(288,298,l),
(138,283,o),
(2,224,o),
(2,147,cs),
(2,68,o),
(52,-16,o),
(183,-16,cs),
(231,-16,o),
(290,13,o),
(349,52,c),
(347,52,l),
(391,4,o),
(456,-16,o),
(542,-16,cs)
);
},
{
closed = 1;
nodes = (
(176,231,o),
(213,247,o),
(290,254,c),
(288,255,l),
(287,250,o),
(287,242,o),
(287,237,cs),
(287,175,o),
(299,128,o),
(320,89,c),
(320,91,l),
(299,73,o),
(268,61,o),
(247,61,cs),
(205,61,o),
(176,109,o),
(176,177,cs)
);
},
{
closed = 1;
nodes = (
(456,302,l),
(458,300,l),
(458,340,ls),
(458,426,o),
(497,471,o),
(518,471,cs),
(548,471,o),
(588,460,o),
(600,304,c),
(602,307,l)
);
}
);
width = 785;
}
);
unicode = 230;
},
{
color = 4;
glyphname = b;
layers = (
{
associatedMasterId = m01;
layerId = "8F5C45DE-E011-4AF6-A467-DD6264DF4D65";
name = "1. Jan. 24, 11:26";
shapes = (
{
closed = 1;
nodes = (
(153,44,l),
(153,718,l),
(155,794,l),
(145,800,l),
(-41,745,l),
(-41,729,l),
(63,717,l),
(63,44,l)
);
},
{
closed = 1;
nodes = (
(378,-12,o),
(496,111,o),
(496,286,c),
(404,258,l),
(404,126,o),
(342,28,o),
(255,28,cs),
(212,28,o),
(162,65,o),
(123,104,cs),
(122,105,l),
(64,44,l),
(111,18,l),
(136,0,o),
(179,-12,o),
(214,-12,cs)
);
},
{
closed = 1;
nodes = (
(496,286,l),
(496,420,o),
(407,515,o),
(284,515,cs),
(231,515,o),
(162,482,o),
(116,435,c),
(119,385,l),
(158,430,o),
(209,469,o),
(243,469,cs),
(337,469,o),
(404,382,o),
(404,258,c)
);
}
);
width = 543;
},
{
layerId = m01;
name = Regular;
shapes = (
{
closed = 1;
nodes = (
(378,-16,o),
(496,111,o),
(496,286,cs),
(496,420,o),
(407,516,o),
(284,516,cs),
(241,516,o),
(187,493,o),
(143,458,c),
(153,448,l),
(153,718,l),
(155,794,l),
(145,800,l),
(-41,745,l),
(-41,729,l),
(81,715,l),
(63,735,l),
(63,44,l),
(135,0,o),
(179,-16,o),
(214,-16,cs)
);
},
{
closed = 1;
nodes = (
(219,24,o),
(178,54,o),
(143,86,c),
(153,59,l),
(153,438,l),
(142,410,l),
(177,443,o),
(215,470,o),
(243,470,cs),
(337,470,o),
(404,382,o),
(404,258,cs),
(404,126,o),
(342,24,o),
(255,24,cs)
);
}
);
width = 543;
},
{
background = {
shapes = (
{
closed = 1;
nodes = (
(306,0,l),
(306,20,l),
(241,51,l),
(243,48,l),
(243,422,l),
(242,419,l),
(270,443,o),
(306,461,o),
(330,461,cs),
(367,461,o),
(393,410,o),
(393,338,cs),
(393,48,l),
(395,51,l),
(330,20,l),
(330,1,l),
(642,0,l),
(642,20,l),
(567,51,l),
(569,48,l),
(569,366,ls),
(569,455,o),
(483,517,o),
(361,517,cs),
(326,517,o),
(279,502,o),
(242,477,c),
(243,476,l),
(243,718,l),
(245,787,l),
(237,810,l),
(-6,759,l),
(-6,729,l),
(69,708,l),
(67,711,l),
(67,48,l),
(69,51,l),
(-6,20,l),
(-6,0,l)
);
}
);
};
hints = (
{
horizontal = 1;
place = (-16, 47);
place = (-16, 47);
type = Stem;
},
{
horizontal = 1;
place = (463, 53);
place = (463, 53);
type = Stem;
},
{
place = (45, 176);
place = (45, 176);
type = Stem;
},
{
place = (386, 178);
place = (386, 178);
type = Stem;
}
);
layerId = "E0989092-07D5-4BE4-A82B-4E03160A36DB";
shapes = (
{
closed = 1;
nodes = (
(448,-16,o),
(587,104,o),
(587,286,cs),
(587,428,o),
(475,516,o),
(379,516,cs),
(324,516,o),
(268,509,o),
(243,498,c),
(244,496,l),
(244,718,l),
(246,784,l),
(234,814,l),
(-6,759,l),
(-6,729,l),
(70,710,l),
(68,713,l),
(68,41,l),
(148,17,o),
(210,-16,o),
(332,-16,cs)
);
},
{
closed = 1;
nodes = (
(299,34,o),
(272,40,o),
(243,66,c),
(244,63,l),
(244,451,l),
(242,448,l),
(261,457,o),
(280,461,o),
(291,461,cs),
(352,461,o),
(409,394,o),
(409,261,cs),
(409,119,o),
(355,34,o),
(326,34,cs)
);
}
);
width = 604;
}
);
unicode = 98;
},
{
color = 4;
glyphname = c;
layers = (
{
anchors = (
{
name = ced;
pos = (270,0);
},
{
name = top;
pos = (268,500);
}
);
layerId = m01;
shapes = (
{
closed = 1;
nodes = (
(331,-13,o),
(407,25,o),
(454,79,c),
(436,105,l),
(395,72,o),
(340,48,o),
(304,48,cs),
(208,48,o),
(135,143,o),
(135,277,cs),
(135,403,o),
(189,489,o),
(267,489,cs),
(326,489,o),
(378,415,o),
(391,339,c),
(432,339,l),
(432,490,l),
(410,490,o),
(386,496,o),
(362,503,cs),
(334,510,o),
(306,517,o),
(280,516,cs),
(138,510,o),
(45,399,o),
(45,234,cs),
(45,89,o),
(138,-13,o),
(270,-13,cs)
);
}
);
width = 489;
},
{
anchors = (
{
name = ced;
pos = (267,0);
},
{
name = top;
pos = (265,500);
}
);
background = {
shapes = (
{
closed = 0;
nodes = (
(273,-17,ls),
(361,-17,o),
(459,23,o),
(508,79,c),
(477,112,l),
(431,66,o),
(359,34,o),
(303,34,cs)
);
}
);
};
hints = (
{
horizontal = 1;
place = (-16, 67);
place = (-16, 67);
type = Stem;
},
{
horizontal = 1;
place = (486, 24);
place = (486, 24);
type = Stem;
},
{
place = (2, 176);
place = (2, 176);
type = Stem;
},
{
place = (356, 69);
place = (356, 69);
type = Stem;
}
);
layerId = "E0989092-07D5-4BE4-A82B-4E03160A36DB";
shapes = (
{
closed = 1;
nodes = (
(346,-16,o),
(431,15,o),
(468,59,c),
(437,92,l),
(406,61,o),
(359,39,o),
(324,39,cs),
(250,39,o),
(198,138,o),
(198,277,cs),
(198,384,o),
(222,463,o),
(255,467,c),
(337,469,o),
(395,415,o),
(395,336,c),
(445,336,l),
(445,508,l),
(442,507,o),
(425,508,o),
(402,510,cs),
(329,515,o),
(272,518,o),
(265,518,cs),
(123,512,o),
(22,394,o),
(22,244,cs),
(22,88,o),
(121,-16,o),
(262,-16,cs)
);
}
);
width = 490;
}
);
unicode = 99;
},
{
color = 4;
glyphname = d;
layers = (
{
associatedMasterId = m01;
layerId = "E45AF11D-5959-4179-A5F9-D0A2E97EA0E1";
name = "1. Jan. 24, 11:32";
shapes = (
{
closed = 1;
nodes = (
(585,28,l),
(585,44,l),
(478,57,l),
(478,735,l),
(483,811,l),
(473,817,l),
(287,762,l),
(287,746,l),
(391,734,l),
(391,65,l),
(398,-1,l),
(408,-7,l)
);
},
{
closed = 1;
nodes = (
(297,-16,o),
(371,27,o),
(429,88,c),
(437,102,l),
(409,123,l),
(405,121,o),
(402,115,o),
(402,115,c),
(366,69,o),
(319,37,o),
(290,37,cs),
(195,37,o),
(132,128,o),
(132,271,cs),
(132,388,o),
(184,481,o),
(265,481,cs),
(300,481,o),
(349,469,o),
(383,451,cs),
(405,439,o),
(421,427,o),
(421,420,cs),
(421,415,l),
(452,451,l),
(443,455,l),
(404,491,o),
(337,516,o),
(280,516,cs),
(134,516,o),
(35,399,o),
(35,248,cs),
(35,88,o),
(121,-16,o),
(250,-16,cs)
);
}
);
width = 582;
},
{
layerId = m01;
name = Regular;
shapes = (
{
closed = 1;
nodes = (
(561,28,l),
(561,44,l),
(460,59,l),
(478,39,l),
(478,735,l),
(483,811,l),
(473,817,l),
(287,762,l),
(287,746,l),
(409,732,l),
(389,752,l),
(389,471,l),
(402,483,l),
(364,504,o),
(320,516,o),
(280,516,cs),
(134,516,o),
(35,399,o),
(35,248,cs),
(35,88,o),
(121,-16,o),
(250,-16,cs),
(291,-16,o),
(350,15,o),
(403,63,c),
(389,71,l),
(397,-1,l),
(408,-7,l)
);
},
{
closed = 1;
nodes = (
(195,37,o),
(132,128,o),
(132,271,cs),
(132,388,o),
(184,481,o),
(265,481,cs),
(300,481,o),
(349,470,o),
(406,437,c),
(389,464,l),
(389,84,l),
(401,114,l),
(365,68,o),
(319,37,o),
(290,37,cs)
);
}
);
width = 582;
},
{
background = {
shapes = (
{
closed = 1;
nodes = (
(629,0,l),
(629,20,l),
(554,51,l),
(556,48,l),
(556,718,l),
(558,787,l),
(550,810,l),
(311,759,l),
(311,729,l),
(386,708,l),
(384,711,l),
(384,48,l),
(386,51,l),
(311,20,l),
(311,0,l)
);
}
);
};
hints = (
{
horizontal = 1;
place = (-16, 56);
place = (-16, 56);
type = Stem;
},
{
horizontal = 1;
place = (513, -20);
target = down;
type = TopGhost;
},
{
place = (17, 183);
place = (17, 183);
type = Stem;
},
{
place = (374, 172);
place = (374, 172);
type = Stem;
},
{
horizontal = 1;
place = (478, 41);
place = (478, 41);
type = Stem;
}
);
layerId = "E0989092-07D5-4BE4-A82B-4E03160A36DB";
shapes = (
{
closed = 1;
nodes = (
(607,31,l),
(607,59,l),
(554,72,l),
(556,69,l),
(556,733,l),
(558,787,l),
(550,810,l),
(311,759,l),
(311,729,l),
(386,708,l),
(384,711,l),
(384,511,l),
(385,513,l),
(362,517,o),
(337,519,o),
(315,519,cs),
(146,519,o),
(27,406,o),
(27,248,cs),
(27,83,o),
(129,-16,o),
(248,-16,cs),
(307,-16,o),
(354,12,o),
(388,40,c),
(387,41,l),
(389,9,l),
(396,-15,l)
);
},
{
closed = 1;
nodes = (
(265,39,o),
(210,118,o),
(210,271,cs),
(210,396,o),
(256,468,o),
(287,468,cs),
(324,468,o),
(364,461,o),
(385,452,c),
(384,454,l),
(384,81,l),
(386,84,l),
(353,56,o),
(328,39,o),
(308,39,cs)
);
}
);
width = 619;
}
);
unicode = 100;
},
{
color = 10;
glyphname = eth;
layers = (
{
layerId = m01;
shapes = (
{
closed = 1;
nodes = (
(420,-15,o),
(501,94,o),
(501,267,cs),
(501,474,o),
(432,579,o),
(338,657,c),
(334,642,l),
(402,704,l),
(375,733,l),
(295,661,l),
(318,667,l),
(273,688,o),
(218,699,o),
(157,699,c),
(157,663,l),
(198,663,o),
(238,651,o),
(274,625,c),
(276,644,l),
(206,581,l),
(232,550,l),
(308,619,l),
(287,613,l),
(330,579,o),
(363,523,o),
(384,445,c),
(390,455,l),
(358,470,o),
(319,477,o),
(275,477,cs),
(128,477,o),
(35,384,o),
(35,237,cs),
(35,82,o),
(128,-15,o),
(275,-15,cs)
);
},
{
closed = 1;
nodes = (
(195,20,o),
(127,115,o),
(127,265,cs),
(127,374,o),
(185,442,o),
(262,442,cs),
(362,442,o),
(419,363,o),
(419,236,cs),
(419,103,o),
(362,20,o),
(288,20,cs)
);
}
);
width = 550;
},
{
associatedMasterId = m01;
layerId = "61B6939F-2C36-4E3A-A985-64CEAFBDB44F";
name = "1. Jan. 24, 12:10";
shapes = (
{
closed = 1;
nodes = (
(430,-15,o),
(511,94,o),
(511,267,cs),
(511,396,o),
(430,477,o),
(285,477,cs),
(138,477,o),
(45,384,o),
(45,237,cs),
(45,82,o),
(138,-15,o),
(285,-15,cs)
);
},
{
closed = 1;
nodes = (
(205,20,o),
(137,115,o),
(137,265,cs),
(137,374,o),
(195,442,o),
(272,442,cs),
(362,442,o),
(419,363,o),
(419,236,cs),
(419,103,o),
(372,20,o),
(298,20,cs)
);
},
{
closed = 1;
nodes = (
(511,267,l),
(511,569,o),
(393,699,o),
(167,699,c),
(167,663,l),
(301,663,o),
(419,535,o),
(419,236,c)
);
},
{
closed = 1;
nodes = (
(412,704,l),
(385,733,l),
(216,581,l),
(242,550,l)
);
}
);
width = 600;
},
{
hints = (
{
horizontal = 1;
place = (-18, 41);
place = (-18, 41);
type = Stem;
},
{
horizontal = 1;
place = (439, 41);
place = (439, 41);
type = Stem;
},
{
horizontal = 1;
place = (661, 41);
place = (661, 41);
type = Stem;
},
{
place = (2, 195);
place = (2, 195);
type = Stem;
},
{
place = (369, 194);
place = (369, 194);
type = Stem;
},
{
horizontal = 1;
place = (706, -20);
target = down;
type = TopGhost;
}
);
layerId = "E0989092-07D5-4BE4-A82B-4E03160A36DB";
shapes = (
{
closed = 1;
nodes = (
(458,-18,o),
(573,110,o),
(573,290,cs),
(573,440,o),
(500,591,o),
(397,655,c),
(396,652,l),
(455,706,l),
(398,765,l),
(313,687,l),
(316,689,l),
(270,700,o),
(194,706,o),
(134,702,c),
(134,656,l),
(173,667,o),
(223,657,o),
(255,633,c),
(256,636,l),
(193,579,l),
(245,515,l),
(317,577,l),
(314,577,l),
(334,557,o),
(356,511,o),
(367,467,c),
(367,469,l),
(347,475,o),
(317,480,o),
(295,480,cs),
(129,480,o),
(12,379,o),
(12,237,cs),
(12,88,o),
(129,-18,o),
(295,-18,cs)
);
},
{
closed = 1;
nodes = (
(249,23,o),
(207,123,o),
(207,265,cs),
(207,367,o),
(238,439,o),
(282,439,cs),
(339,439,o),
(379,355,o),
(379,236,cs),
(379,111,o),
(350,23,o),
(308,23,cs)
);
}
);
width = 607;
}
);
unicode = 240;
},
{
color = 5;
glyphname = dcroat;
layers = (
{
layerId = m01;
shapes = (
{
closed = 1;
nodes = (
(575,599,l),
(575,639,l),
(227,639,l),
(227,599,l)
);
},
{
pos = (-10,0);
ref = d;
}
);
width = 570;
},
{
hints = (
{
horizontal = 1;
place = (-16, 56);
place = (-16, 56);
type = Stem;
},
{
horizontal = 1;
place = (513, -20);
target = down;
type = TopGhost;
},
{
horizontal = 1;
place = (596, 46);
place = (596, 46);
type = Stem;
},
{
place = (17, 183);
place = (17, 183);
type = Stem;
},
{
place = (374, 172);
place = (374, 172);
type = Stem;
},
{
horizontal = 1;
place = (478, 41);
place = (478, 41);
type = Stem;
}
);
layerId = "E0989092-07D5-4BE4-A82B-4E03160A36DB";
shapes = (
{
closed = 1;
nodes = (
(615,579,l),
(615,639,l),
(267,639,l),
(267,579,l)
);
},
{
ref = d;
}
);
width = 599;
}
);
unicode = 273;
},
{
color = 4;
glyphname = e;
layers = (
{
associatedMasterId = m01;
background = {
shapes = (
{
closed = 1;
nodes = (
(422,517,o),
(519,416,o),
(519,262,cs),
(519,91,o),
(422,-15,o),
(283,-15,cs),
(136,-15,o),
(43,91,o),
(43,262,cs),
(43,416,o),
(136,517,o),
(283,517,cs)
);
},
{
closed = 1;
nodes = (
(195,483,o),
(144,426,o),
(144,290,cs),
(144,101,o),
(204,18,o),
(296,18,cs),
(365,18,o),
(418,81,o),
(418,231,cs),
(418,407,o),
(357,483,o),
(270,483,cs)
);
},
{
closed = 1;
nodes = (
(140,517,o),
(46,401,o),
(45,237,cs),
(44,91,o),
(137,-13,o),
(267,-13,cs),
(315,-13,o),
(367,7,o),
(409,38,cs),
(443,64,o),
(451,88,o),
(444,95,cs),
(436,103,o),
(420,89,o),
(384,70,cs),
(357,55,o),
(326,47,o),
(297,47,cs),
(205,47,o),
(140,143,o),
(140,272,c),
(464,272,l),
(477,426,o),
(398,517,o),
(275,517,cs)
);
},
{
closed = 1;
nodes = (
(138,411,o),
(182,489,o),
(243,489,cs),
(311,489,o),
(362,411,o),
(367,308,c),
(371,312,ls),
(373,314,o),
(321,314,o),
(263,312,cs),
(138,308,l)
);
}
);
};
layerId = "E099E9C4-6D0B-439C-8099-D4BFC9A3B348";
name = "1. Jan. 24, 11:33";
shapes = (
{
closed = 1;
nodes = (
(340,-13,o),
(418,26,o),
(457,80,c),
(435,108,l),
(397,72,o),
(340,47,o),
(297,47,cs),
(205,47,o),
(140,140,o),
(140,272,c),
(464,272,l),
(476,415,o),
(398,517,o),
(275,517,cs),
(141,517,o),
(46,401,o),
(45,237,cs),
(44,91,o),
(136,-13,o),
(267,-13,cs)
);
},
{
closed = 1;
nodes = (
(138,411,o),
(182,478,o),
(243,478,cs),
(311,478,o),
(362,411,o),
(367,308,c),
(371,312,ls),
(373,314,o),
(321,314,o),
(263,312,cs),
(138,308,l)
);
}
);
width = 510;
},
{
anchors = (
{
name = ogo;
pos = (245,-6);
},
{
name = top;
pos = (261,500);
}
);
background = {
shapes = (
{
closed = 1;
nodes = (
(422,517,o),
(519,416,o),
(519,262,cs),
(519,91,o),
(422,-15,o),
(283,-15,cs),
(136,-15,o),
(43,91,o),
(43,262,cs),
(43,416,o),
(136,517,o),
(283,517,cs)
);
},
{
closed = 1;
nodes = (
(195,483,o),
(144,426,o),
(144,290,cs),
(144,101,o),
(204,18,o),
(296,18,cs),
(365,18,o),
(418,81,o),
(418,231,cs),
(418,407,o),
(357,483,o),
(270,483,cs)
);
},
{
closed = 1;
nodes = (
(140,517,o),
(46,401,o),
(45,237,cs),
(44,91,o),
(137,-13,o),
(267,-13,cs),
(315,-13,o),
(367,7,o),
(409,38,cs),
(443,64,o),
(451,88,o),
(444,95,cs),
(436,103,o),
(420,89,o),
(384,70,cs),
(357,55,o),
(326,47,o),
(297,47,cs),
(205,47,o),
(140,143,o),
(140,272,c),
(464,272,l),
(477,426,o),
(398,517,o),
(275,517,cs)
);
},
{
closed = 1;
nodes = (
(138,411,o),
(182,489,o),
(243,489,cs),
(311,489,o),
(362,411,o),
(367,308,c),
(371,312,ls),
(373,314,o),
(321,314,o),
(263,312,cs),
(138,308,l)
);
}
);
};
layerId = m01;
name = Regular;
shapes = (
{
closed = 1;
nodes = (
(340,-13,o),
(418,26,o),
(457,80,c),
(435,108,l),
(397,72,o),
(340,47,o),
(297,47,cs),
(201,47,o),
(135,147,o),
(140,288,c),
(122,272,l),
(464,272,l),
(465,282,o),
(465,291,o),
(465,301,cs),
(465,428,o),
(390,517,o),
(275,517,cs),
(140,517,o),
(45,399,o),
(45,235,cs),
(45,90,o),
(137,-13,o),
(267,-13,cs)
);
},
{
closed = 1;
nodes = (
(133,404,o),
(179,478,o),
(243,478,cs),
(314,478,o),
(365,406,o),
(368,297,c),
(372,314,l),
(120,307,l),
(138,291,l)
);
}
);
width = 510;
},
{
anchors = (
{
name = ogo;
pos = (283,-6);
},
{
name = top;
pos = (281,500);
}
);
hints = (
{
horizontal = 1;
place = (-18, 68);
place = (-18, 68);
type = Stem;
},
{
horizontal = 1;
place = (269, 43);
place = (269, 43);
type = Stem;
},
{
horizontal = 1;
place = (475, 40);
place = (475, 40);
type = Stem;
},
{
place = (-15, 182);
place = (-15, 182);
type = Stem;
},
{
place = (310, 182);
place = (310, 182);
type = Stem;
},
{
place = (-15, 181);
place = (-15, 181);
type = Stem;
}
);
layerId = "E0989092-07D5-4BE4-A82B-4E03160A36DB";
shapes = (
{
closed = 1;
nodes = (
(376,-18,o),
(474,22,o),
(523,78,c),
(492,111,l),
(446,65,o),
(374,33,o),
(318,33,cs),
(253,33,o),
(206,131,o),
(205,271,c),
(193,262,l),
(529,262,l),
(530,272,o),
(530,289,o),
(530,298,cs),
(530,451,o),
(418,515,o),
(296,515,cs),
(126,515,o),
(23,409,o),
(23,250,cs),
(23,95,o),
(140,-18,o),
(288,-18,cs)
);
},
{
closed = 1;
nodes = (
(210,425,o),
(237,464,o),
(264,464,cs),
(295,464,o),
(344,426,o),
(348,298,c),
(370,311,l),
(192,309,l),
(204,296,l)
);
}
);
width = 563;
}
);
unicode = 101;
},
{
color = 5;
glyphname = schwa;
layers = (
{
layerId = m01;
shapes = (
{
closed = 1;
nodes = (
(170,515,o),
(92,476,o),
(53,422,c),
(75,394,l),
(113,430,o),
(170,455,o),
(213,455,cs),
(309,455,o),
(375,355,o),
(370,214,c),
(388,230,l),
(46,230,l),
(45,220,o),
(45,211,o),
(45,201,cs),
(45,74,o),
(120,-15,o),
(235,-15,cs),
(370,-15,o),
(465,103,o),
(465,267,cs),
(465,412,o),
(373,515,o),
(243,515,cs)
);
},
{
closed = 1;
nodes = (
(390,195,l),
(372,211,l),
(377,98,o),
(331,24,o),
(267,24,cs),
(196,24,o),
(145,96,o),
(142,205,c),
(135,185,l)
);
}
);
width = 510;
},
{
associatedMasterId = m01;
layerId = "8D250E25-4A73-4E42-8D01-181B9D146360";
name = "1. Jan. 24, 12:11";
shapes = (
{
closed = 1;
nodes = (
(369,-26,o),
(464,90,o),
(465,254,cs),
(466,400,o),
(374,504,o),
(243,504,cs),
(170,504,o),
(92,465,o),
(53,411,c),
(75,383,l),
(113,419,o),
(170,444,o),
(213,444,cs),
(305,444,o),
(370,351,o),
(370,219,c),
(46,219,l),
(34,76,o),
(112,-26,o),
(235,-26,cs)
);
},
{
closed = 1;
nodes = (
(199,13,o),
(148,80,o),
(143,183,c),
(139,179,ls),
(137,177,o),
(189,177,o),
(247,179,cs),
(372,183,l),
(372,80,o),
(328,13,o),
(267,13,cs)
);
}
);
width = 510;
},
{
layerId = "E0989092-07D5-4BE4-A82B-4E03160A36DB";
shapes = (
{
closed = 1;
nodes = (
(160,516,o),
(67,442,o),
(36,398,c),
(72,362,l),
(130,431,o),
(188,447,o),
(223,447,cs),
(280,447,o),
(336,368,o),
(337,229,c),
(339,231,l),
(13,231,l),
(12,221,o),
(12,210,o),
(12,202,cs),
(12,48,o),
(123,-16,o),
(245,-16,cs),
(415,-16,o),
(518,106,o),
(518,265,cs),
(518,420,o),
(401,516,o),
(253,516,cs)
);
},
{
closed = 1;
nodes = (
(340,187,l),
(338,190,l),
(330,80,o),
(304,25,o),
(277,25,cs),
(246,25,o),
(197,36,o),
(194,192,c),
(192,189,l)
);
}
);
width = 560;
}
);
unicode = 601;
},
{
color = 4;
glyphname = f;
layers = (
{
layerId = m01;
shapes = (
{
closed = 1;
nodes = (
(313,0,l),
(313,19,l),
(202,56,l),
(219,32,l),
(219,480,l),
(201,462,l),
(341,462,l),
(341,502,l),
(201,502,l),
(219,484,l),
(219,598,ls),
(219,709,o),
(244,787,o),
(299,787,cs),
(329,787,o),
(372,740,o),
(395,682,c),
(431,682,l),
(442,802,l),
(421,809,o),
(371,814,o),
(328,814,cs),
(203,814,o),
(129,711,o),
(129,566,cs),
(129,484,l),
(147,502,l),
(21,502,l),
(21,462,l),
(147,462,l),
(129,480,l),
(129,32,l),
(146,56,l),
(38,20,l),
(38,0,l)
);
}
);
width = 372;
},
{
associatedMasterId = m01;
layerId = "A8992DFB-D995-4A8B-9681-2BC8D3A33222";
name = "1. Jan. 24, 11:36";
shapes = (
{
closed = 1;
nodes = (
(219,598,l),
(219,709,o),
(244,787,o),
(299,787,cs),
(353,787,o),
(375,722,o),
(395,672,c),
(431,672,l),
(442,792,l),
(417,805,o),
(362,814,o),
(328,814,cs),
(203,814,o),
(129,711,o),
(129,566,c)
);
},
{
closed = 1;
nodes = (
(313,0,l),
(313,19,l),
(219,50,l),
(129,50,l),
(38,20,l),
(38,0,l)
);
},
{
closed = 1;
nodes = (
(219,50,l),
(219,598,l),
(129,566,l),
(129,50,l)
);
},
{
closed = 1;
nodes = (
(341,462,l),
(341,502,l),
(22,502,l),
(20,462,l)
);
}
);
width = 372;
},
{
hints = (
{
horizontal = 1;
place = (0, 24);
place = (0, 24);
type = Stem;
},
{
horizontal = 1;
place = (452, 47);
place = (452, 47);
type = Stem;
},
{
horizontal = 1;
place = (784, 33);
place = (784, 33);
type = Stem;
},
{
place = (86, 176);
place = (86, 176);
type = Stem;
},
{
place = (355, 74);
place = (355, 74);
type = Stem;
},
{
horizontal = 1;
place = (0, 25);
place = (0, 25);
type = Stem;
}
);
layerId = "E0989092-07D5-4BE4-A82B-4E03160A36DB";
shapes = (
{
closed = 1;
nodes = (
(357,0,l),
(357,24,l),
(261,59,l),
(263,56,l),
(263,454,l),
(261,452,l),
(392,452,l),
(392,499,l),
(261,499,l),
(263,497,l),
(263,605,ls),
(263,717,o),
(282,784,o),
(310,784,cs),
(346,784,o),
(377,740,o),
(375,679,c),
(425,679,l),
(435,794,l),
(402,807,o),
(358,817,o),
(329,817,cs),
(162,817,o),
(87,698,o),
(87,543,cs),
(87,497,l),
(89,499,l),
(-13,499,l),
(-11,452,l),
(89,452,l),
(87,454,l),
(87,56,l),
(89,59,l),
(-4,25,l),
(-4,0,l)
);
}
);
width = 392;
}
);
unicode = 102;
},
{
color = 4;
glyphname = g;
layers = (
{
anchors = (
{
name = top;
pos = (244,500);
}
);
layerId = m01;
shapes = (
{
closed = 1;
nodes = (
(395,-216,o),
(487,-131,o),
(487,-10,cs),
(487,42,o),
(445,92,o),
(380,92,cs),
(174,92,ls),
(125,92,o),
(89,110,o),
(89,149,cs),
(89,166,o),
(118,207,o),
(126,220,c),
(117,218,l),
(148,186,o),
(193,168,o),
(248,168,cs),
(376,168,o),
(447,249,o),
(447,361,cs),
(447,403,o),
(432,440,o),
(406,465,c),
(391,458,l),
(530,450,l),
(539,458,l),
(539,497,l),
(357,485,l),
(389,480,l),
(359,503,o),
(318,515,o),
(268,515,cs),
(143,515,o),
(68,446,o),
(68,342,cs),
(68,296,o),
(83,256,o),
(108,226,c),
(103,240,l),
(94,234,o),
(82,224,o),
(70,208,cs),
(50,181,o),
(38,154,o),
(38,131,cs),
(38,85,o),
(58,47,o),
(91,24,c),
(91,40,l),
(55,4,o),
(23,-44,o),
(23,-86,cs),
(23,-162,o),
(126,-216,o),
(244,-216,cs)
);
},
{
closed = 1;
nodes = (
(161,-163,o),
(72,-124,o),
(72,-62,cs),
(72,-23,o),
(97,-8,o),
(122,22,c),
(103,17,l),
(123,6,o),
(147,0,o),
(173,0,cs),
(313,0,ls),
(389,0,o),
(434,-28,o),
(434,-67,cs),
(434,-126,o),
(367,-163,o),
(259,-163,cs)
);
},
{
closed = 1;
nodes = (
(190,203,o),
(167,261,o),
(167,358,cs),
(167,438,o),
(193,480,o),
(249,480,cs),
(314,480,o),
(351,427,o),
(351,328,cs),
(351,250,o),
(312,203,o),
(260,203,cs)
);
}
);
width = 550;
},
{
associatedMasterId = m01;
layerId = "3192C36B-E30A-466F-8F8A-7BE123BAD7E2";
name = "1. Jan. 24, 11:37";
shapes = (
{
closed = 1;
nodes = (
(406,-216,o),
(503,-131,o),
(503,-10,cs),
(503,42,o),
(456,92,o),
(391,92,cs),
(185,92,ls),
(136,92,o),
(100,110,o),
(100,149,cs),
(100,161,o),
(111,180,o),
(121,195,cs),
(140,223,o),
(149,240,o),
(143,248,cs),
(138,255,o),
(110,245,o),
(81,208,cs),
(61,181,o),
(49,154,o),
(49,131,cs),
(49,54,o),
(105,0,o),
(185,0,cs),
(325,0,ls),
(401,0,o),
(446,-28,o),
(446,-67,cs),
(446,-126,o),
(379,-168,o),
(271,-168,cs),
(173,-168,o),
(84,-124,o),
(84,-62,cs),
(84,-35,o),
(95,-20,o),
(116,2,cs),
(149,37,o),
(173,65,o),
(164,70,cs),
(155,76,o),
(133,69,o),
(103,41,cs),
(66,4,o),
(34,-43,o),
(34,-86,cs),
(34,-162,o),
(137,-216,o),
(255,-216,cs)
);
},
{
closed = 1;
nodes = (
(382,168,o),
(453,249,o),
(453,361,cs),
(453,454,o),
(384,515,o),
(274,515,cs),
(149,515,o),
(74,446,o),
(74,342,cs),
(74,240,o),
(146,168,o),
(254,168,cs)
);
},
{
closed = 1;
nodes = (
(197,203,o),
(174,261,o),
(174,358,cs),
(174,438,o),
(200,480,o),
(256,480,cs),
(321,480,o),
(358,427,o),
(358,328,cs),
(358,250,o),
(319,203,o),
(267,203,cs)
);
},
{
closed = 1;
nodes = (
(550,458,l),
(550,497,l),
(364,485,l),
(364,454,o),
(374,460,o),
(430,457,cs),
(541,450,l)
);
}
);
width = 550;
},
{
anchors = (
{
name = top;
pos = (286,500);
}
);
hints = (
{
horizontal = 1;
place = (-219, 38);
place = (-219, 38);
type = Stem;
},
{
horizontal = 1;
place = (-3, 102);
place = (-3, 102);
type = Stem;
},
{
horizontal = 1;
place = (165, 41);
place = (165, 41);
type = Stem;
},
{
horizontal = 1;
place = (475, 42);
place = (475, 42);
type = Stem;
},
{
place = (7, 107);
place = (7, 107);
type = Stem;
},
{
place = (449, 99);
place = (449, 99);
type = Stem;
},
{
horizontal = 1;
place = (449, 55);
place = (449, 55);
type = Stem;
},
{
place = (39, 128);
place = (39, 128);
type = Stem;
},
{
place = (348, 165);
place = (348, 165);
type = Stem;
},
{
place = (47, 170);
place = (47, 170);
type = Stem;
},
{
horizontal = 1;
place = (0, 21);
target = up;
type = BottomGhost;
}
);
layerId = "E0989092-07D5-4BE4-A82B-4E03160A36DB";
shapes = (
{
closed = 1;
nodes = (
(429,-219,o),
(543,-125,o),
(543,7,cs),
(543,73,o),
(485,119,o),
(403,119,cs),
(197,119,ls),
(171,119,o),
(152,131,o),
(152,149,cs),
(152,156,o),
(158,167,o),
(166,175,cs),
(168,177,l),
(194,170,o),
(235,165,o),
(266,165,cs),
(408,165,o),
(508,246,o),
(508,361,cs),
(508,392,o),
(493,431,o),
(471,454,c),
(470,453,l),
(556,445,l),
(562,455,l),
(562,504,l),
(418,492,l),
(415,493,ls),
(372,507,o),
(319,517,o),
(286,517,cs),
(143,517,o),
(42,444,o),
(42,342,cs),
(42,302,o),
(64,250,o),
(96,218,c),
(97,220,l),
(82,214,o),
(62,198,o),
(49,181,cs),
(40,168,o),
(34,147,o),
(34,131,cs),
(34,89,o),
(51,53,o),
(80,29,c),
(80,40,l),
(32,-11,o),
(12,-60,o),
(12,-86,cs),
(12,-164,o),
(112,-219,o),
(267,-219,cs)
);
},
{
closed = 1;
nodes = (
(203,-181,o),
(119,-152,o),
(119,-82,cs),
(119,-58,o),
(120,-22,o),
(153,4,c),
(129,4,l),
(145,-7,o),
(176,-13,o),
(197,-13,cs),
(337,-13,ls),
(394,-13,o),
(444,-10,o),
(444,-62,cs),
(444,-133,o),
(371,-181,o),
(283,-181,cs)
);
},
{
closed = 1;
nodes = (
(241,215,o),
(222,262,o),
(222,358,cs),
(222,431,o),
(237,467,o),
(268,467,cs),
(312,467,o),
(333,421,o),
(333,328,cs),
(333,252,o),
(315,215,o),
(279,215,cs)
);
}
);
width = 573;
}
);
unicode = 103;
},
{
color = 4;
glyphname = h;
layers = (
{
anchors = (
{
name = top;
pos = (194,736);
}
);
layerId = m01;
shapes = (
{
closed = 1;
nodes = (
(268,0,l),
(268,30,l),
(177,55,l),
(194,32,l),
(194,426,l),
(185,399,l),
(223,436,o),
(273,470,o),
(314,470,cs),
(382,470,o),
(430,415,o),
(430,338,cs),
(430,32,l),
(447,55,l),
(356,30,l),
(356,0,l),
(611,0,l),
(611,20,l),
(503,56,l),
(520,32,l),
(520,366,ls),
(520,453,o),
(447,515,o),
(345,515,cs),
(293,515,o),
(231,479,o),
(185,440,c),
(194,430,l),
(194,718,l),
(196,794,l),
(186,800,l),
(0,745,l),
(0,729,l),
(122,715,l),
(104,735,l),
(104,32,l),
(121,56,l),
(13,20,l),
(13,0,l)
);
}
);
width = 611;
},
{
associatedMasterId = m01;
layerId = "8DB1B957-2715-4A2D-B5E6-8FC92795BC9D";
name = "1. Jan. 24, 11:40";
shapes = (
{
closed = 1;
nodes = (
(611,0,l),
(611,20,l),
(520,50,l),
(520,366,ls),
(520,453,o),
(447,515,o),
(345,515,cs),
(281,515,o),
(203,462,o),
(157,415,c),
(160,374,l),
(200,419,o),
(263,470,o),
(314,470,cs),
(382,470,o),
(430,415,o),
(430,338,cs),
(430,50,l),
(356,30,l),
(356,0,l)
);
},
{
closed = 1;
nodes = (
(268,0,l),
(268,30,l),
(194,50,l),
(104,50,l),
(13,20,l),
(13,0,l)
);
},
{
closed = 1;
nodes = (
(194,50,l),
(194,718,l),
(196,794,l),
(186,800,l),
(0,745,l),
(0,729,l),
(104,717,l),
(104,50,l)
);
}
);
width = 611;
},
{
anchors = (
{
name = top;
pos = (251,778);
}
);
hints = (
{
horizontal = 1;
place = (-3, 16);
place = (-3, 16);
type = Stem;
},
{
horizontal = 1;
place = (472, 46);
place = (472, 46);
type = Stem;
},
{
place = (61, 176);
place = (61, 176);
type = Stem;
},
{
place = (387, 176);
place = (387, 176);
type = Stem;
}
);
layerId = "E0989092-07D5-4BE4-A82B-4E03160A36DB";
shapes = (
{
closed = 1;
nodes = (
(314,0,l),
(314,20,l),
(249,51,l),
(251,48,l),
(251,422,l),
(250,419,l),
(278,443,o),
(314,461,o),
(338,461,cs),
(375,461,o),
(401,410,o),
(401,338,cs),
(401,48,l),
(403,51,l),
(338,20,l),
(338,0,l),
(650,0,l),
(650,20,l),
(575,51,l),
(577,48,l),
(577,366,ls),
(577,455,o),
(491,517,o),
(369,517,cs),
(334,517,o),
(287,502,o),
(250,477,c),
(251,476,l),
(251,718,l),
(253,787,l),
(245,810,l),
(2,759,l),
(2,729,l),
(77,708,l),
(75,711,l),
(75,48,l),
(77,51,l),
(2,20,l),
(2,0,l)
);
}
);
width = 635;
}
);
unicode = 104;
},
{
color = 5;
glyphname = hbar;
layers = (
{
layerId = m01;
shapes = (
{
closed = 1;
nodes = (
(348,599,l),
(348,639,l),
(0,639,l),
(0,599,l)
);
},
{
ref = h;
}
);
width = 611;
},
{
associatedMasterId = m01;
layerId = "E9985261-3291-4F33-92F3-764F9EFE2FE5";
name = "3. Jan. 24, 21:15";
shapes = (
{
closed = 1;
nodes = (
(611,0,l),
(611,20,l),
(520,50,l),
(520,366,ls),
(520,453,o),
(447,515,o),
(345,515,cs),
(281,515,o),
(203,462,o),
(157,415,c),
(160,374,l),
(200,419,o),
(263,470,o),
(314,470,cs),
(382,470,o),
(430,415,o),
(430,338,cs),
(430,50,l),
(356,30,l),
(356,0,l)
);
},
{
closed = 1;
nodes = (
(268,0,l),
(268,30,l),
(194,50,l),
(104,50,l),
(13,20,l),
(13,0,l)
);
},
{
closed = 1;
nodes = (
(194,50,l),
(194,718,l),
(196,794,l),
(186,800,l),
(0,745,l),
(0,729,l),
(104,717,l),
(104,50,l)
);
},
{
closed = 1;
nodes = (
(347,599,l),
(347,639,l),
(-1,639,l),
(-1,599,l)
);
}
);
width = 611;
},
{
hints = (
{
horizontal = 1;
place = (-3, 16);
place = (-3, 16);
type = Stem;
},
{
horizontal = 1;
place = (472, 46);
place = (472, 46);
type = Stem;
},
{
horizontal = 1;
place = (596, 46);
place = (596, 46);
type = Stem;
},
{
place = (61, 176);
place = (61, 176);
type = Stem;
},
{
place = (387, 176);
place = (387, 176);
type = Stem;
}
);
layerId = "E0989092-07D5-4BE4-A82B-4E03160A36DB";
shapes = (
{
closed = 1;
nodes = (
(348,589,l),
(348,639,l),
(0,639,l),
(0,589,l)
);
},
{
ref = h;
}
);
width = 628;
}
);
unicode = 295;
},
{
color = 5;
glyphname = hcircumflex;
layers = (
{
background = {
shapes = (
{
closed = 1;
nodes = (
(616,0,l),
(616,20,l),
(508,56,l),
(525,32,l),
(525,366,ls),
(525,453,o),
(452,515,o),
(350,515,cs),
(298,515,o),
(236,479,o),
(190,440,c),
(199,430,l),
(199,718,l),
(201,794,l),
(191,800,l),
(5,745,l),
(5,729,l),
(127,715,l),
(109,735,l),
(109,32,l),
(126,56,l),
(18,20,l),
(18,0,l),
(273,0,l),
(273,30,l),
(182,55,l),
(199,32,l),
(199,426,l),
(190,399,l),
(228,436,o),
(278,470,o),
(319,470,cs),
(387,470,o),
(435,415,o),
(435,338,cs),
(435,32,l),
(452,55,l),
(361,30,l),
(361,0,l)
);
}
);
};
layerId = m01;
shapes = (
{
ref = h;
},
{
alignment = -1;
pos = (-135,40);
ref = circumflexcomb.case;
}
);
width = 611;
},
{
hints = (
{
horizontal = 1;
place = (-3, 16);
place = (-3, 16);
type = Stem;
},
{
horizontal = 1;
place = (462, 45);
place = (462, 45);
type = Stem;
},
{
place = (61, 176);
place = (61, 176);
type = Stem;
},
{
place = (387, 176);
place = (387, 176);
type = Stem;
}
);
layerId = "E0989092-07D5-4BE4-A82B-4E03160A36DB";
shapes = (
{
ref = h;
},
{
alignment = -1;
pos = (-147,68);
ref = circumflexcomb.case;
}
);
width = 635;
}
);
unicode = 293;
},
{
color = 5;
glyphname = idotless;
layers = (
{
anchors = (
{
name = ogo;
pos = (135,0);
},
{
name = top;
pos = (164,500);
}
);
layerId = m01;
shapes = (
{
closed = 1;
nodes = (
(303,0,l),
(303,20,l),
(192,57,l),
(209,33,l),
(209,434,l),
(211,510,l),
(201,516,l),
(15,461,l),
(15,445,l),
(137,431,l),
(119,451,l),
(119,32,l),
(136,55,l),
(25,20,l),
(25,0,l)
);
}
);
width = 308;
},
{
anchors = (
{
name = ogo;
pos = (175,0);
},
{
name = top;
pos = (164,500);
}
);
layerId = "E0989092-07D5-4BE4-A82B-4E03160A36DB";
shapes = (
{
closed = 1;
nodes = (
(335,0,l),
(335,20,l),
(260,51,l),
(262,28,l),
(262,427,l),
(264,493,l),
(256,516,l),
(13,465,l),
(13,435,l),
(88,414,l),
(86,437,l),
(86,28,l),
(88,51,l),
(13,20,l),
(13,0,l)
);
}
);
width = 368;
}
);
unicode = 305;
},
{
color = 4;
glyphname = j;
layers = (
{
layerId = m01;
shapes = (
{
alignment = -1;
ref = jdotless;
},
{
alignment = -1;
pos = (-125,0);
ref = dotaccentcomb;
}
);
width = 275;
},
{
associatedMasterId = m01;
layerId = "AD174E00-7E5C-4841-A718-CD0FD23CFE27";
name = "1. Jan. 24, 11:45";
shapes = (
{
closed = 1;
nodes = (
(215,50,l),
(215,434,l),
(217,510,l),
(207,516,l),
(21,461,l),
(21,445,l),
(125,433,l),
(125,50,l)
);
},
{
closed = 1;
nodes = (
(56,-215,l),
(56,-215,o),
(69,-213,o),
(94,-197,cs),
(165,-155,o),
(215,-52,o),
(215,50,c),
(125,50,l),
(125,-59,o),
(92,-159,o),
(46,-192,c),
(46,-194,o),
(50,-204,o),
(55,-215,c)
);
},
{
closed = 1;
nodes = (
(193,598,o),
(220,625,o),
(220,659,cs),
(220,693,o),
(193,720,o),
(160,720,cs),
(125,720,o),
(98,693,o),
(98,659,cs),
(98,625,o),
(125,598,o),
(160,598,cs)
);
}
);
width = 318;
},
{
hints = (
{
horizontal = 1;
place = (-218, 34);
place = (-218, 34);
type = Stem;
},
{
horizontal = 1;
place = (500, -20);
target = down;
type = TopGhost;
},
{
horizontal = 1;
place = (574, 196);
place = (574, 196);
type = Stem;
},
{
place = (82, 176);
place = (82, 176);
type = Stem;
},
{
place = (52, 208);
place = (52, 208);
type = Stem;
}
);
layerId = "E0989092-07D5-4BE4-A82B-4E03160A36DB";
shapes = (
{
alignment = -1;
pos = (11,0);
ref = jdotless;
},
{
alignment = -1;
pos = (-137,0);
ref = dotaccentcomb;
}
);
width = 338;
}
);
unicode = 106;
},
{
color = 5;
glyphname = jdotless;
layers = (
{
anchors = (
{
name = top;
pos = (141,500);
}
);
layerId = m01;
shapes = (
{
closed = 1;
nodes = (
(36,-215,o),
(49,-213,o),
(74,-197,cs),
(145,-155,o),
(195,-52,o),
(195,50,cs),
(195,434,l),
(197,510,l),
(187,516,l),
(1,461,l),
(1,445,l),
(123,431,l),
(105,451,l),
(105,50,ls),
(105,-59,o),
(72,-159,o),
(26,-192,c),
(35,-215,l)
);
}
);
width = 275;
},
{
associatedMasterId = m01;
layerId = "1DE9B65E-76D8-4CA9-B06C-536EB58BF2F2";
name = "1. Jan. 24, 11:43";
shapes = (
{
closed = 1;
nodes = (
(215,50,l),
(215,434,l),
(217,510,l),
(207,516,l),
(21,461,l),
(21,445,l),
(125,433,l),
(125,50,l)
);
},
{
closed = 1;
nodes = (
(56,-215,l),
(56,-215,o),
(69,-213,o),
(94,-197,cs),
(165,-155,o),
(215,-52,o),
(215,50,c),
(125,50,l),
(125,-59,o),
(92,-159,o),
(46,-192,c),
(46,-194,o),
(50,-204,o),
(55,-215,c)
);
}
);
width = 315;
},
{
anchors = (
{
name = top;
pos = (152,500);
}
);
layerId = "E0989092-07D5-4BE4-A82B-4E03160A36DB";
shapes = (
{
closed = 1;
nodes = (
(36,-218,o),
(91,-201,o),
(117,-185,cs),
(193,-138,o),
(248,-40,o),
(248,53,cs),
(248,428,l),
(250,493,l),
(242,516,l),
(-1,465,l),
(-1,435,l),
(74,414,l),
(72,417,l),
(72,55,ls),
(72,-83,o),
(37,-182,o),
(-11,-184,c),
(-7,-218,l)
);
}
);
width = 325;
}
);
unicode = 567;
},
{
color = 4;
glyphname = k;
layers = (
{
layerId = m01;
shapes = (
{
closed = 1;
nodes = (
(298,0,l),
(298,20,l),
(187,55,l),
(204,32,l),
(204,227,l),
(191,197,l),
(285,284,l),
(261,285,l),
(437,0,l),
(587,0,l),
(587,20,l),
(496,58,l),
(523,36,l),
(326,348,l),
(321,319,l),
(486,474,l),
(456,458,l),
(547,480,l),
(548,500,l),
(344,500,l),
(344,480,l),
(417,456,l),
(412,475,l),
(192,242,l),
(204,237,l),
(204,718,l),
(206,794,l),
(196,800,l),
(10,745,l),
(10,729,l),
(135,714,l),
(115,734,l),
(115,32,l),
(134,55,l),
(23,20,l),
(23,0,l)
);
}
);
width = 580;
},
{
associatedMasterId = m01;
layerId = "9B6F67A2-0059-402E-AE8F-5FD6A9989018";
name = "1. Jan. 24, 11:45";
shapes = (
{
closed = 1;
nodes = (
(204,50,l),
(204,718,l),
(206,794,l),
(196,800,l),
(10,745,l),
(10,729,l),
(117,716,l),
(117,50,l)
);
},
{
closed = 1;
nodes = (
(298,0,l),
(298,20,l),
(204,50,l),
(114,50,l),
(23,20,l),
(23,0,l)
);
},
{
closed = 1;
nodes = (
(587,0,l),
(587,20,l),
(513,51,l),
(320,353,l),
(261,290,l),
(437,0,l)
);
},
{
closed = 1;
nodes = (
(473,462,l),
(547,480,l),
(548,500,l),
(344,500,l),
(344,480,l),
(400,462,l),
(177,227,l),
(162,169,l)
);
}
);
width = 580;
},
{
hints = (
{
horizontal = 1;
place = (-3, 16);
place = (-3, 16);
type = Stem;
},
{
horizontal = 1;
place = (487, 16);
place = (487, 16);
type = Stem;
},
{
place = (75, 171);
place = (75, 171);
type = Stem;
}
);
layerId = "E0989092-07D5-4BE4-A82B-4E03160A36DB";
shapes = (
{
closed = 1;
nodes = (
(314,0,l),
(314,20,l),
(249,51,l),
(251,48,l),
(251,220,l),
(249,217,l),
(270,234,l),
(267,235,l),
(405,0,l),
(646,0,l),
(646,15,l),
(580,48,l),
(583,45,l),
(398,359,l),
(397,355,l),
(515,464,l),
(511,461,l),
(596,482,l),
(596,500,l),
(362,500,l),
(362,484,l),
(434,462,l),
(434,465,l),
(249,291,l),
(251,291,l),
(251,718,l),
(253,787,l),
(245,810,l),
(2,759,l),
(2,729,l),
(77,708,l),
(75,711,l),
(75,48,l),
(77,51,l),
(2,20,l),
(2,0,l)
);
}
);
width = 631;
}
);
unicode = 107;
},
{
color = 4;
glyphname = l;
layers = (
{
anchors = (
{
name = com;
pos = (165,-1);
},
{
name = top;
pos = (158,768);
}
);
layerId = m01;
name = Regular;
shapes = (
{
closed = 1;
nodes = (
(303,0,l),
(303,19,l),
(192,56,l),
(208,32,l),
(208,718,l),
(211,794,l),
(201,800,l),
(15,745,l),
(15,729,l),
(137,715,l),
(119,735,l),
(119,32,l),
(136,56,l),
(28,20,l),
(28,0,l)
);
}
);
width = 318;
},
{
associatedMasterId = m01;
layerId = "A15B75CE-A110-42FD-8751-B3CA27D4E7C0";
name = "1. Jan. 24, 11:47";
shapes = (
{
closed = 1;
nodes = (
(209,50,l),
(209,718,l),
(211,794,l),
(201,800,l),
(15,745,l),
(15,729,l),
(119,717,l),
(119,50,l)
);
},
{
closed = 1;
nodes = (
(303,0,l),
(303,19,l),
(209,50,l),
(119,50,l),
(28,20,l),
(28,0,l)
);
}
);
width = 318;
},
{
anchors = (
{
name = com;
pos = (142,0);
},
{
name = top;
pos = (139,768);
}
);
background = {
shapes = (
{
closed = 1;
nodes = (
(-6,294,l),
(316,294,l),
(316,314,l),
(243,344,l),
(243,721,l),
(245,787,l),
(237,810,l),
(-6,759,l),
(-6,729,l),
(67,709,l),
(67,344,l),
(-6,314,l)
);
}
);
};
hints = (
{
horizontal = 1;
place = (-3, 15);
place = (-3, 15);
type = Stem;
},
{
place = (52, 178);
place = (52, 178);
type = Stem;
}
);
layerId = "E0989092-07D5-4BE4-A82B-4E03160A36DB";
shapes = (
{
closed = 1;
nodes = (
(316,0,l),
(316,20,l),
(241,51,l),
(243,48,l),
(243,718,l),
(245,787,l),
(237,810,l),
(-6,759,l),
(-6,729,l),
(69,708,l),
(67,711,l),
(67,48,l),
(69,51,l),
(-6,20,l),
(-6,0,l)
);
}
);
width = 338;
}
);
unicode = 108;
},
{
color = 5;
glyphname = lslash;
layers = (
{
layerId = m01;
shapes = (
{
closed = 1;
nodes = (
(329,464,l),
(309,503,l),
(27,350,l),
(47,311,l)
);
},
{
pos = (10,0);
ref = l;
}
);
width = 328;
},
{
hints = (
{
horizontal = 1;
place = (-3, 15);
place = (-3, 15);
type = Stem;
},
{
place = (76, 176);
place = (76, 176);
type = Stem;
}
);
layerId = "E0989092-07D5-4BE4-A82B-4E03160A36DB";
shapes = (
{
closed = 1;
nodes = (
(317,450,l),
(289,503,l),
(-13,350,l),
(15,297,l)
);
},
{
pos = (-10,0);
ref = l;
}
);
width = 330;
}
);
unicode = 322;
},
{
color = 4;
glyphname = m;
layers = (
{
layerId = m01;
shapes = (
{
closed = 1;
nodes = (
(280,0,l),
(280,30,l),
(187,55,l),
(204,32,l),
(204,425,l),
(197,401,l),
(221,439,o),
(257,470,o),
(294,470,cs),
(356,470,o),
(400,424,o),
(400,358,cs),
(400,32,l),
(417,55,l),
(326,30,l),
(326,0,l),
(561,0,l),
(561,30,l),
(473,54,l),
(490,31,l),
(490,386,ls),
(490,398,o),
(488,408,o),
(487,420,c),
(478,396,l),
(513,441,o),
(552,470,o),
(580,470,cs),
(642,470,o),
(686,424,o),
(686,358,cs),
(686,32,l),
(703,55,l),
(612,30,l),
(612,0,l),
(867,0,l),
(867,20,l),
(759,56,l),
(776,32,l),
(776,386,ls),
(776,462,o),
(708,515,o),
(611,515,cs),
(565,515,o),
(507,483,o),
(466,433,c),
(480,434,l),
(458,483,o),
(400,515,o),
(325,515,cs),
(274,515,o),
(227,483,o),
(194,443,c),
(204,434,l),
(197,510,l),
(187,516,l),
(10,461,l),
(10,445,l),
(132,431,l),
(114,451,l),
(114,32,l),
(131,55,l),
(20,20,l),
(20,0,l)
);
}
);
width = 877;
},
{
associatedMasterId = m01;
layerId = "FAD1F498-5E4E-41A1-99D8-AD97216B36F5";
name = "1. Jan. 24, 11:48";
shapes = (
{
closed = 1;
nodes = (
(867,0,l),
(867,20,l),
(776,50,l),
(776,386,ls),
(776,462,o),
(708,515,o),
(611,515,cs),
(559,515,o),
(493,474,o),
(453,415,c),
(456,364,l),
(494,426,o),
(546,470,o),
(580,470,cs),
(642,470,o),
(686,424,o),
(686,358,cs),
(686,50,l),
(612,30,l),
(612,0,l)
);
},
{
closed = 1;
nodes = (
(280,0,l),
(280,30,l),
(204,50,l),
(204,434,l),
(197,510,l),
(187,516,l),
(10,461,l),
(10,445,l),
(114,433,l),
(114,50,l),
(20,20,l),
(20,0,l)
);
},
{
closed = 1;
nodes = (
(561,0,l),
(561,30,l),
(490,49,l),
(490,386,ls),
(490,462,o),
(422,515,o),
(325,515,cs),
(255,515,o),
(190,454,o),
(167,395,c),
(170,344,l),
(189,406,o),
(240,470,o),
(294,470,cs),
(356,470,o),
(400,424,o),
(400,358,cs),
(400,50,l),
(326,30,l),
(326,0,l)
);
}
);
width = 877;
},
{
background = {
shapes = (
{
closed = 0;
nodes = (
(930,0,l),
(930,20,l),
(852,52,l),
(857,40,l)
);
}
);
};
hints = (
{
horizontal = 1;
place = (-3, 16);
place = (-3, 16);
type = Stem;
},
{
horizontal = 1;
place = (467, 51);
place = (467, 51);
type = Stem;
},
{
place = (54, 177);
place = (54, 177);
type = Stem;
},
{
place = (357, 176);
place = (357, 176);
type = Stem;
},
{
place = (659, 177);
place = (659, 177);
type = Stem;
},
{
horizontal = 1;
place = (-3, 28);
place = (-3, 28);
type = Stem;
}
);
layerId = "E0989092-07D5-4BE4-A82B-4E03160A36DB";
shapes = (
{
closed = 1;
nodes = (
(296,0,l),
(296,20,l),
(251,50,l),
(253,47,l),
(253,435,l),
(251,432,l),
(277,452,o),
(302,462,o),
(316,462,cs),
(353,462,o),
(379,426,o),
(379,368,cs),
(379,44,l),
(381,47,l),
(341,20,l),
(341,0,l),
(601,0,l),
(601,20,l),
(553,45,l),
(555,42,l),
(555,396,ls),
(555,407,o),
(553,419,o),
(548,430,c),
(547,428,l),
(575,451,o),
(603,462,o),
(618,462,cs),
(655,462,o),
(681,426,o),
(681,368,cs),
(681,44,l),
(683,47,l),
(643,20,l),
(643,0,l),
(930,0,l),
(930,20,l),
(855,51,l),
(857,48,l),
(857,396,ls),
(857,467,o),
(778,516,o),
(666,516,cs),
(616,516,o),
(557,494,o),
(525,462,c),
(528,462,l),
(495,496,o),
(437,516,o),
(364,516,cs),
(325,516,o),
(278,504,o),
(252,483,c),
(253,482,l),
(253,500,l),
(247,516,l),
(4,465,l),
(4,435,l),
(79,414,l),
(77,417,l),
(77,48,l),
(79,51,l),
(4,20,l),
(4,0,l)
);
}
);
width = 918;
}
);
locked = 1;
unicode = 109;
},
{
color = 4;
glyphname = n;
layers = (
{
anchors = (
{
name = top;
pos = (334,500);
}
);
layerId = m01;
shapes = (
{
closed = 1;
nodes = (
(280,0,l),
(280,20,l),
(187,57,l),
(204,32,l),
(204,401,l),
(195,374,l),
(235,418,o),
(291,464,o),
(334,464,cs),
(396,464,o),
(440,415,o),
(440,338,cs),
(440,32,l),
(457,57,l),
(366,20,l),
(366,0,l),
(621,0,l),
(621,20,l),
(513,56,l),
(530,32,l),
(530,366,ls),
(530,453,o),
(462,515,o),
(365,515,cs),
(311,515,o),
(242,469,o),
(195,423,c),
(204,413,l),
(206,510,l),
(196,516,l),
(10,461,l),
(10,445,l),
(132,431,l),
(114,451,l),
(114,32,l),
(131,55,l),
(20,20,l),
(20,0,l)
);
}
);
width = 631;
},
{
associatedMasterId = m01;
layerId = "C9AB8D55-AC24-43D7-9F96-D292913457A9";
name = "1. Jan. 24, 11:49";
shapes = (
{
closed = 1;
nodes = (
(621,0,l),
(621,20,l),
(530,50,l),
(530,366,ls),
(530,453,o),
(462,515,o),
(365,515,cs),
(307,515,o),
(233,462,o),
(187,415,c),
(190,368,l),
(230,413,o),
(289,464,o),
(334,464,cs),
(396,464,o),
(440,415,o),
(440,338,cs),
(440,50,l),
(366,20,l),
(366,0,l)
);
},
{
closed = 1;
nodes = (
(280,0,l),
(280,20,l),
(204,50,l),
(204,434,l),
(197,510,l),
(187,516,l),
(10,461,l),
(10,445,l),
(114,433,l),
(114,50,l),
(20,20,l),
(20,0,l)
);
}
);
width = 631;
},
{
anchors = (
{
name = top;
pos = (338,500);
}
);
background = {
shapes = (
{
closed = 1;
nodes = (
(272,0,l),
(272,20,l),
(179,57,l),
(196,32,l),
(196,401,l),
(187,374,l),
(227,418,o),
(283,464,o),
(326,464,cs),
(388,464,o),
(432,415,o),
(432,338,cs),
(432,32,l),
(449,57,l),
(358,20,l),
(358,0,l),
(613,0,l),
(613,20,l),
(505,56,l),
(522,32,l),
(522,366,ls),
(522,453,o),
(454,515,o),
(357,515,cs),
(303,515,o),
(234,469,o),
(187,423,c),
(196,413,l),
(198,510,l),
(188,516,l),
(2,461,l),
(2,445,l),
(124,431,l),
(106,451,l),
(106,32,l),
(123,55,l),
(12,20,l),
(12,0,l)
);
}
);
};
hints = (
{
horizontal = 1;
place = (-3, 15);
place = (-3, 15);
type = Stem;
},
{
horizontal = 1;
place = (500, -20);
target = down;
type = TopGhost;
},
{
place = (86, 176);
place = (86, 176);
type = Stem;
},
{
place = (412, 176);
place = (412, 176);
type = Stem;
},
{
horizontal = 1;
place = (461, 57);
place = (461, 57);
type = Stem;
}
);
layerId = "E0989092-07D5-4BE4-A82B-4E03160A36DB";
shapes = (
{
closed = 1;
nodes = (
(314,0,l),
(314,20,l),
(241,55,l),
(251,37,l),
(251,437,l),
(239,409,l),
(269,439,o),
(310,461,o),
(338,461,cs),
(375,461,o),
(401,410,o),
(401,338,cs),
(401,37,l),
(414,56,l),
(338,20,l),
(338,0,l),
(650,0,l),
(650,20,l),
(572,52,l),
(577,40,l),
(577,366,ls),
(577,455,o),
(491,517,o),
(369,517,cs),
(329,517,o),
(274,497,o),
(236,467,c),
(251,467,l),
(251,500,l),
(245,516,l),
(2,465,l),
(2,435,l),
(94,410,l),
(75,423,l),
(75,41,l),
(85,54,l),
(2,20,l),
(2,0,l)
);
}
);
width = 635;
}
);
locked = 1;
unicode = 110;
},
{
color = 5;
glyphname = eng;
layers = (
{
layerId = m01;
shapes = (
{
closed = 1;
nodes = (
(460,-193,o),
(530,-125,o),
(530,-28,cs),
(530,366,ls),
(530,453,o),
(462,515,o),
(365,515,cs),
(311,515,o),
(243,470,o),
(195,424,c),
(206,414,l),
(197,510,l),
(187,516,l),
(10,461,l),
(10,445,l),
(132,431,l),
(114,451,l),
(114,32,l),
(131,55,l),
(20,20,l),
(20,0,l),
(280,0,l),
(280,20,l),
(187,57,l),
(204,32,l),
(204,402,l),
(195,375,l),
(235,418,o),
(291,464,o),
(334,464,cs),
(396,464,o),
(440,415,o),
(440,338,cs),
(440,-64,ls),
(440,-125,o),
(415,-168,o),
(379,-168,cs),
(354,-168,o),
(330,-147,o),
(312,-97,c),
(238,-138,l),
(272,-178,o),
(319,-193,o),
(361,-193,cs)
);
}
);
width = 591;
},
{
anchors = (
{
name = top;
pos = (334,500);
}
);
associatedMasterId = m01;
layerId = "158879E4-AD77-4CEC-A014-8A6182E6557D";
name = "1. Jan. 24, 21:44";
shapes = (
{
closed = 1;
nodes = (
(280,0,l),
(280,20,l),
(187,57,l),
(204,32,l),
(204,401,l),
(195,374,l),
(235,418,o),
(291,464,o),
(334,464,cs),
(396,464,o),
(440,415,o),
(440,338,cs),
(440,32,l),
(530,32,l),
(530,366,ls),
(530,453,o),
(462,515,o),
(365,515,cs),
(311,515,o),
(242,469,o),
(195,423,c),
(204,413,l),
(204,434,l),
(197,510,l),
(187,516,l),
(10,461,l),
(10,445,l),
(114,433,l),
(114,32,l),
(131,55,l),
(20,20,l),
(20,0,l)
);
},
{
closed = 1;
nodes = (
(440,32,l),
(440,-64,l),
(440,-125,o),
(415,-168,o),
(379,-168,cs),
(358,-168,o),
(330,-147,o),
(312,-117,c),
(248,-158,l),
(272,-178,o),
(319,-193,o),
(361,-193,cs),
(460,-193,o),
(530,-125,o),
(530,-28,cs),
(530,32,l)
);
}
);
width = 631;
},
{
hints = (
{
horizontal = 1;
place = (-196, 31);
place = (-196, 31);
type = Stem;
},
{
horizontal = 1;
place = (-3, 15);
place = (-3, 15);
type = Stem;
},
{
horizontal = 1;
place = (461, 57);
place = (461, 57);
type = Stem;
},
{
place = (121, 176);
place = (121, 176);
type = Stem;
},
{
place = (447, 176);
place = (447, 176);
type = Stem;
},
{
place = (280, 11);
place = (280, 11);
type = Stem;
}
);
layerId = "E0989092-07D5-4BE4-A82B-4E03160A36DB";
shapes = (
{
closed = 1;
nodes = (
(495,-196,o),
(583,-127,o),
(583,-28,cs),
(583,366,ls),
(583,456,o),
(492,518,o),
(375,518,cs),
(329,518,o),
(267,489,o),
(251,463,c),
(252,462,l),
(250,517,l),
(240,526,l),
(10,454,l),
(10,430,l),
(83,418,l),
(81,420,l),
(81,41,l),
(83,44,l),
(-13,13,l),
(-13,-3,l),
(317,-3,l),
(317,12,l),
(255,43,l),
(257,40,l),
(257,396,l),
(256,392,l),
(284,436,o),
(322,461,o),
(344,461,cs),
(374,461,o),
(407,425,o),
(407,338,cs),
(407,-64,ls),
(407,-123,o),
(392,-165,o),
(372,-165,cs),
(351,-165,o),
(328,-119,o),
(325,-65,c),
(201,-140,l),
(240,-168,o),
(312,-196,o),
(371,-196,cs)
);
}
);
width = 643;
}
);
unicode = 331;
},
{
color = 4;
glyphname = o;
layers = (
{
anchors = (
{
name = top;
pos = (291,500);
}
);
layerId = m01;
shapes = (
{
closed = 1;
nodes = (
(425,-15,o),
(523,102,o),
(523,267,cs),
(523,413,o),
(425,517,o),
(287,517,cs),
(146,517,o),
(47,409,o),
(47,257,cs),
(47,98,o),
(146,-15,o),
(287,-15,cs)
);
},
{
closed = 1;
nodes = (
(207,20,o),
(149,121,o),
(149,285,cs),
(149,407,o),
(197,482,o),
(274,482,cs),
(364,482,o),
(421,388,o),
(421,236,cs),
(421,102,o),
(374,20,o),
(300,20,cs)
);
}
);
width = 570;
},
{
anchors = (
{
name = top;
pos = (319,500);
}
);
hints = (
{
horizontal = 1;
place = (-18, 41);
place = (-18, 41);
type = Stem;
},
{
horizontal = 1;
place = (479, 41);
place = (479, 41);
type = Stem;
},
{
place = (2, 189);
place = (2, 189);
type = Stem;
},
{
place = (376, 189);
place = (376, 189);
type = Stem;
}
);
layerId = "E0989092-07D5-4BE4-A82B-4E03160A36DB";
shapes = (
{
closed = 1;
nodes = (
(483,-16,o),
(599,101,o),
(599,267,cs),
(599,413,o),
(483,516,o),
(319,516,cs),
(153,516,o),
(36,409,o),
(36,257,cs),
(36,97,o),
(153,-16,o),
(319,-16,cs)
);
},
{
closed = 1;
nodes = (
(267,25,o),
(225,118,o),
(225,285,cs),
(225,407,o),
(251,475,o),
(297,475,cs),
(370,475,o),
(410,390,o),
(410,236,cs),
(410,100,o),
(386,25,o),
(342,25,cs)
);
}
);
width = 635;
}
);
locked = 1;
unicode = 111;
},
{
color = 10;
glyphname = oslash;
layers = (
{
layerId = m01;
shapes = (
{
closed = 1;
nodes = (
(504,540,l),
(467,566,l),
(70,-39,l),
(107,-64,l)
);
},
{
ref = o;
}
);
width = 566;
},
{
hints = (
{
horizontal = 1;
place = (-18, 41);
place = (-18, 41);
type = Stem;
},
{
horizontal = 1;
place = (479, 20);
place = (479, 20);
type = Stem;
},
{
place = (2, 188);
place = (2, 188);
type = Stem;
},
{
place = (376, 188);
place = (376, 188);
type = Stem;
},
{
horizontal = 1;
place = (479, 41);
place = (479, 41);
type = Stem;
}
);
layerId = "E0989092-07D5-4BE4-A82B-4E03160A36DB";
shapes = (
{
closed = 1;
nodes = (
(515,529,l),
(467,566,l),
(70,-39,l),
(118,-75,l)
);
},
{
ref = o;
}
);
width = 617;
}
);
unicode = 248;
},
{
color = 10;
glyphname = oe;
layers = (
{
layerId = m01;
shapes = (
{
closed = 1;
nodes = (
(336,-15,o),
(403,25,o),
(445,92,c),
(431,92,l),
(471,27,o),
(537,-13,o),
(618,-13,cs),
(691,-13,o),
(769,26,o),
(808,80,c),
(786,108,l),
(748,72,o),
(691,47,o),
(648,47,cs),
(552,47,o),
(486,147,o),
(491,288,c),
(473,272,l),
(815,272,l),
(816,282,o),
(816,291,o),
(816,301,cs),
(816,428,o),
(741,517,o),
(626,517,cs),
(547,517,o),
(481,476,o),
(440,408,c),
(454,409,l),
(412,476,o),
(341,517,o),
(255,517,cs),
(114,517,o),
(15,409,o),
(15,257,cs),
(15,98,o),
(114,-15,o),
(255,-15,cs)
);
},
{
closed = 1;
nodes = (
(117,407,o),
(165,482,o),
(242,482,cs),
(332,482,o),
(389,388,o),
(389,236,cs),
(389,102,o),
(342,20,o),
(268,20,cs),
(175,20,o),
(117,121,o),
(117,285,cs)
);
},
{
closed = 1;
nodes = (
(471,308,l),
(489,291,l),
(484,404,o),
(530,478,o),
(594,478,cs),
(665,478,o),
(716,406,o),
(719,297,c),
(736,313,l)
);
}
);
width = 851;
},
{
associatedMasterId = m01;
layerId = "8891401E-2A78-49C5-9FDC-8FEE2301BEB5";
name = "1. Jan. 24, 12:13";
shapes = (
{
closed = 1;
nodes = (
(423,-15,o),
(521,102,o),
(521,267,cs),
(521,413,o),
(423,517,o),
(285,517,cs),
(144,517,o),
(45,409,o),
(45,257,cs),
(45,98,o),
(144,-15,o),
(285,-15,cs)
);
},
{
closed = 1;
nodes = (
(205,20,o),
(147,121,o),
(147,285,cs),
(147,407,o),
(195,482,o),
(272,482,cs),
(362,482,o),
(419,388,o),
(419,236,cs),
(419,102,o),
(372,20,o),
(298,20,cs)
);
},
{
closed = 1;
nodes = (
(721,-13,o),
(799,26,o),
(838,80,c),
(816,108,l),
(778,72,o),
(721,47,o),
(678,47,cs),
(586,47,o),
(521,140,o),
(521,272,c),
(845,272,l),
(857,415,o),
(779,517,o),
(656,517,cs),
(522,517,o),
(427,401,o),
(426,237,cs),
(425,91,o),
(517,-13,o),
(648,-13,cs)
);
},
{
closed = 1;
nodes = (
(519,411,o),
(563,478,o),
(624,478,cs),
(692,478,o),
(743,411,o),
(748,308,c),
(752,312,ls),
(754,314,o),
(702,314,o),
(644,312,cs),
(519,308,l)
);
}
);
width = 891;
},
{
hints = (
{
horizontal = 1;
place = (-17, 42);
place = (-17, 42);
type = Stem;
},
{
horizontal = 1;
place = (269, 45.5);
place = (269, 45.5);
type = Stem;
},
{
horizontal = 1;
place = (474, 41);
place = (474, 41);
type = Stem;
},
{
place = (2, 188);
place = (2, 188);
type = Stem;
},
{
place = (376, 188);
place = (376, 188);
type = Stem;
},
{
place = (704, 185);
place = (704, 185);
type = Stem;
},
{
horizontal = 1;
place = (-18, 67);
place = (-18, 67);
type = Stem;
},
{
horizontal = 1;
place = (470, 45);
place = (470, 45);
type = Stem;
},
{
place = (376, 186);
place = (376, 186);
type = Stem;
}
);
layerId = "E0989092-07D5-4BE4-A82B-4E03160A36DB";
shapes = (
{
closed = 1;
nodes = (
(348,-17,o),
(410,3,o),
(459,41,c),
(457,41,l),
(506,3,o),
(569,-18,o),
(638,-18,cs),
(731,-18,o),
(827,38,o),
(858,82,c),
(831,116,l),
(773,47,o),
(703,49,o),
(668,49,cs),
(610,49,o),
(555,131,o),
(554,271,c),
(552,269,l),
(878,269,l),
(879,279,o),
(879,289,o),
(879,298,cs),
(879,451,o),
(768,515,o),
(646,515,cs),
(572,515,o),
(512,498,o),
(464,461,c),
(466,461,l),
(416,500,o),
(350,515,o),
(275,515,cs),
(114,515,o),
(-8,417,o),
(-8,257,cs),
(-8,90,o),
(112,-17,o),
(275,-17,cs)
);
},
{
closed = 1;
nodes = (
(180,415,o),
(220,474,o),
(262,474,cs),
(315,474,o),
(366,396,o),
(366,236,cs),
(366,94,o),
(325,25,o),
(288,25,cs),
(232,25,o),
(180,113,o),
(180,285,cs)
);
},
{
closed = 1;
nodes = (
(550,312,l),
(552,309,l),
(552,419,o),
(587,470,o),
(614,470,cs),
(644,470,o),
(683,461,o),
(694,314,c),
(696,317,l)
);
}
);
width = 899;
}
);
unicode = 339;
},
{
color = 4;
glyphname = p;
layers = (
{
layerId = m01;
name = Regular;
shapes = (
{
closed = 1;
nodes = (
(423,-15,o),
(525,102,o),
(525,268,cs),
(525,414,o),
(444,517,o),
(330,517,cs),
(285,517,o),
(221,485,o),
(167,438,c),
(180,429,l),
(172,502,l),
(162,508,l),
(-15,463,l),
(-15,447,l),
(107,433,l),
(89,453,l),
(89,-168,l),
(106,-144,l),
(-2,-180,l),
(-2,-200,l),
(273,-200,l),
(273,-180,l),
(162,-145,l),
(178,-168,l),
(178,36,l),
(165,27,l),
(211,-4,o),
(256,-15,o),
(280,-15,cs)
);
},
{
closed = 1;
nodes = (
(178,417,l),
(170,388,l),
(205,431,o),
(254,461,o),
(290,461,cs),
(369,461,o),
(425,372,o),
(425,245,cs),
(425,113,o),
(371,20,o),
(295,20,cs),
(267,20,o),
(215,34,o),
(166,78,c),
(178,49,l)
);
}
);
width = 580;
},
{
associatedMasterId = m01;
layerId = "E53A7676-CD7F-45B4-B6FE-B577B2D90D84";
name = "1. Jan. 24, 11:51";
shapes = (
{
closed = 1;
nodes = (
(443,-15,o),
(545,102,o),
(545,268,cs),
(545,414,o),
(464,517,o),
(350,517,cs),
(297,517,o),
(219,474,o),
(161,413,c),
(153,399,l),
(181,378,l),
(185,380,o),
(188,386,o),
(188,386,c),
(223,430,o),
(273,461,o),
(310,461,cs),
(389,461,o),
(445,372,o),
(445,245,cs),
(445,113,o),
(391,20,o),
(315,20,cs),
(284,20,o),
(224,38,o),
(170,92,cs),
(167,95,l),
(138,60,l),
(147,56,l),
(205,3,o),
(269,-15,o),
(300,-15,cs)
);
},
{
closed = 1;
nodes = (
(293,-200,l),
(293,-180,l),
(199,-150,l),
(109,-150,l),
(18,-180,l),
(18,-200,l)
);
},
{
closed = 1;
nodes = (
(199,-150,l),
(199,436,l),
(192,502,l),
(182,508,l),
(5,463,l),
(5,447,l),
(109,435,l),
(109,-150,l)
);
}
);
width = 600;
},
{
background = {
shapes = (
{
closed = 1;
nodes = (
(302,-203,l),
(302,-183,l),
(229,-148,l),
(239,-166,l),
(239,234,l),
(227,206,l),
(257,236,o),
(298,258,o),
(326,258,cs),
(363,258,o),
(389,207,o),
(389,135,cs),
(389,-166,l),
(402,-147,l),
(326,-183,l),
(326,-202,l),
(638,-203,l),
(638,-183,l),
(560,-151,l),
(565,-163,l),
(565,163,ls),
(565,252,o),
(479,314,o),
(357,314,cs),
(317,314,o),
(262,294,o),
(224,264,c),
(239,264,l),
(239,297,l),
(223,313,l),
(-10,262,l),
(-10,232,l),
(82,207,l),
(63,220,l),
(63,-162,l),
(73,-149,l),
(-10,-183,l),
(-10,-203,l)
);
}
);
};
hints = (
{
horizontal = 1;
place = (-203, 16);
place = (-203, 16);
type = Stem;
},
{
horizontal = 1;
place = (-18, 41);
place = (-18, 41);
type = Stem;
},
{
horizontal = 1;
place = (516, -20);
target = down;
type = TopGhost;
},
{
place = (66, 177);
place = (66, 177);
type = Stem;
},
{
place = (402, 186);
place = (402, 186);
type = Stem;
},
{
horizontal = 1;
place = (458, 62);
place = (458, 62);
type = Stem;
}
);
layerId = "E0989092-07D5-4BE4-A82B-4E03160A36DB";
shapes = (
{
closed = 1;
nodes = (
(469,-16,o),
(584,102,o),
(584,268,cs),
(584,413,o),
(485,516,o),
(346,516,cs),
(307,516,o),
(262,497,o),
(238,471,c),
(239,470,l),
(239,500,l),
(233,516,l),
(-10,465,l),
(-10,435,l),
(65,414,l),
(63,417,l),
(63,-155,l),
(65,-152,l),
(-10,-183,l),
(-10,-203,l),
(302,-203,l),
(302,-183,l),
(237,-152,l),
(239,-155,l),
(239,5,l),
(238,4,l),
(253,-8,o),
(281,-16,o),
(306,-16,cs)
);
},
{
closed = 1;
nodes = (
(239,430,l),
(238,427,l),
(254,447,o),
(282,461,o),
(306,461,cs),
(360,461,o),
(398,372,o),
(398,245,cs),
(398,121,o),
(362,34,o),
(311,34,cs),
(286,34,o),
(256,45,o),
(238,61,c),
(239,58,l)
);
}
);
width = 606;
}
);
unicode = 112;
},
{
color = 10;
glyphname = thorn;
layers = (
{
layerId = m01;
shapes = (
{
closed = 1;
nodes = (
(253,-200,l),
(253,-180,l),
(142,-145,l),
(157,-168,l),
(157,16,l),
(148,2,l),
(170,-6,o),
(197,-12,o),
(220,-12,cs),
(384,-12,o),
(502,111,o),
(502,286,cs),
(502,420,o),
(413,515,o),
(290,515,cs),
(247,515,o),
(193,493,o),
(149,458,c),
(157,448,l),
(157,718,l),
(161,794,l),
(151,800,l),
(-35,745,l),
(-35,729,l),
(87,715,l),
(69,735,l),
(69,-168,l),
(86,-144,l),
(-22,-180,l),
(-22,-200,l)
);
},
{
closed = 1;
nodes = (
(225,28,o),
(184,54,o),
(149,86,c),
(157,59,l),
(157,438,l),
(148,410,l),
(183,443,o),
(221,469,o),
(249,469,cs),
(343,469,o),
(410,382,o),
(410,258,cs),
(410,126,o),
(348,28,o),
(261,28,cs)
);
}
);
width = 540;
},
{
associatedMasterId = m01;
layerId = "687E002A-BF2C-46A0-BB2A-B75EDC1D587C";
name = "1. Jan. 24, 12:12";
shapes = (
{
closed = 1;
nodes = (
(199,-150,l),
(199,718,l),
(201,794,l),
(191,800,l),
(5,745,l),
(5,729,l),
(109,717,l),
(109,-150,l)
);
},
{
closed = 1;
nodes = (
(293,-200,l),
(293,-180,l),
(199,-150,l),
(109,-150,l),
(18,-180,l),
(18,-200,l)
);
},
{
closed = 1;
nodes = (
(424,-12,o),
(542,111,o),
(542,286,c),
(450,258,l),
(450,126,o),
(388,28,o),
(301,28,cs),
(258,28,o),
(208,65,o),
(169,104,cs),
(168,105,l),
(110,44,l),
(157,18,l),
(182,0,o),
(225,-12,o),
(260,-12,cs)
);
},
{
closed = 1;
nodes = (
(542,286,l),
(542,420,o),
(453,515,o),
(330,515,cs),
(277,515,o),
(208,482,o),
(162,435,c),
(165,385,l),
(204,430,o),
(255,469,o),
(289,469,cs),
(383,469,o),
(450,382,o),
(450,258,c)
);
}
);
width = 600;
},
{
hints = (
{
horizontal = 1;
place = (-203, 16);
place = (-203, 16);
type = Stem;
},
{
horizontal = 1;
place = (-15, 46);
place = (-15, 46);
type = Stem;
},
{
horizontal = 1;
place = (506, -20);
target = down;
type = TopGhost;
},
{
place = (66, 178);
place = (66, 178);
type = Stem;
},
{
place = (407, 178);
place = (407, 178);
type = Stem;
},
{
horizontal = 1;
place = (-9, 21);
target = up;
type = BottomGhost;
},
{
horizontal = 1;
place = (466, 52);
place = (466, 52);
type = Stem;
},
{
place = (223, 21);
place = (223, 21);
type = Stem;
}
);
layerId = "E0989092-07D5-4BE4-A82B-4E03160A36DB";
shapes = (
{
closed = 1;
nodes = (
(326,-203,l),
(326,-187,l),
(232,-153,l),
(234,-156,l),
(234,-7,l),
(232,-8,l),
(239,-12,o),
(250,-15,o),
(260,-15,cs),
(444,-15,o),
(575,110,o),
(575,286,cs),
(575,422,o),
(469,518,o),
(320,518,cs),
(288,518,o),
(252,513,o),
(233,506,c),
(234,504,l),
(234,705,l),
(236,784,l),
(191,810,l),
(-15,738,l),
(-15,714,l),
(58,702,l),
(56,704,l),
(56,-156,l),
(58,-153,l),
(-32,-187,l),
(-32,-203,l)
);
},
{
closed = 1;
nodes = (
(272,31,o),
(248,34,o),
(233,38,c),
(234,36,l),
(234,452,l),
(232,448,l),
(245,459,o),
(264,466,o),
(279,466,cs),
(348,466,o),
(397,381,o),
(397,261,cs),
(397,126,o),
(353,31,o),
(291,31,cs)
);
}
);
width = 590;
}
);
unicode = 254;
},
{
color = 4;
glyphname = q;
layers = (
{
layerId = m01;
shapes = (
{
closed = 1;
nodes = (
(575,-200,l),
(575,-180,l),
(474,-145,l),
(491,-168,l),
(491,460,l),
(443,486,l),
(420,504,o),
(377,516,o),
(340,516,cs),
(173,516,o),
(55,409,o),
(55,258,cs),
(55,100,o),
(144,-11,o),
(270,-11,cs),
(313,-11,o),
(367,11,o),
(411,46,c),
(401,56,l),
(401,-168,l),
(418,-144,l),
(310,-180,l),
(310,-200,l)
);
},
{
closed = 1;
nodes = (
(217,34,o),
(150,138,o),
(150,286,cs),
(150,394,o),
(212,471,o),
(299,471,cs),
(334,471,o),
(377,451,o),
(411,420,c),
(401,447,l),
(401,59,l),
(412,87,l),
(377,54,o),
(339,34,o),
(311,34,cs)
);
}
);
width = 585;
},
{
associatedMasterId = m01;
layerId = "26E9DDFE-E1DA-49A8-A371-9EAED660B458";
name = "1. Jan. 24, 11:52";
shapes = (
{
closed = 1;
nodes = (
(323,-11,o),
(392,22,o),
(438,69,c),
(435,110,l),
(396,65,o),
(345,34,o),
(311,34,cs),
(217,34,o),
(150,138,o),
(150,286,c),
(55,258,l),
(55,100,o),
(144,-11,o),
(270,-11,cs)
);
},
{
closed = 1;
nodes = (
(585,-200,l),
(585,-180,l),
(491,-150,l),
(401,-150,l),
(310,-180,l),
(310,-200,l)
);
},
{
closed = 1;
nodes = (
(491,-150,l),
(491,460,l),
(401,460,l),
(401,-150,l)
);
},
{
closed = 1;
nodes = (
(150,286,l),
(150,394,o),
(212,471,o),
(299,471,cs),
(342,471,o),
(396,442,o),
(431,400,cs),
(432,399,l),
(490,460,l),
(443,486,l),
(420,504,o),
(377,516,o),
(340,516,cs),
(173,516,o),
(55,409,o),
(55,258,c)
);
}
);
width = 585;
},
{
hints = (
{
horizontal = 1;
place = (-203, 16);
place = (-203, 16);
type = Stem;
},
{
horizontal = 1;
place = (-14, 47);
place = (-14, 47);
type = Stem;
},
{
horizontal = 1;
place = (468, 51);
place = (468, 51);
type = Stem;
},
{
place = (12, 181);
place = (12, 181);
type = Stem;
},
{
place = (358, 176);
place = (358, 176);
type = Stem;
},
{
horizontal = 1;
place = (-14, 51);
place = (-14, 51);
type = Stem;
}
);
layerId = "E0989092-07D5-4BE4-A82B-4E03160A36DB";
shapes = (
{
closed = 1;
nodes = (
(617,-203,l),
(617,-183,l),
(542,-152,l),
(544,-155,l),
(544,464,l),
(493,483,l),
(441,504,o),
(382,519,o),
(350,519,cs),
(146,519,o),
(10,403,o),
(22,238,cs),
(28,90,o),
(135,-14,o),
(280,-14,cs),
(303,-14,o),
(341,-9,o),
(369,-2,c),
(368,0,l),
(368,-154,l),
(370,-151,l),
(265,-183,l),
(265,-203,l)
);
},
{
closed = 1;
nodes = (
(251,37,o),
(202,143,o),
(203,293,cs),
(205,391,o),
(249,461,o),
(309,461,cs),
(325,461,o),
(351,449,o),
(369,433,c),
(368,436,l),
(368,49,l),
(369,52,l),
(354,43,o),
(333,37,o),
(321,37,cs)
);
}
);
width = 595;
}
);
unicode = 113;
},
{
color = 4;
glyphname = r;
layers = (
{
anchors = (
{
name = com;
pos = (160,0);
},
{
name = top;
pos = (198,500);
}
);
background = {
shapes = (
{
closed = 1;
nodes = (
(187,516,l),
(192,513,ls),
(195,511,o),
(199,496,o),
(202,460,cs),
(204,434,l),
(204,108,ls),
(204,69,o),
(223,45,o),
(261,35,cs),
(274,32,o),
(280,25,o),
(280,15,cs),
(280,6,o),
(257,0,o),
(214,0,cs),
(20,0,l),
(20,10,ls),
(20,16,o),
(35,25,o),
(67,35,cs),
(99,45,o),
(114,69,o),
(114,107,cs),
(114,370,ls),
(114,411,o),
(92,435,o),
(52,440,cs),
(10,445,l),
(10,453,ls),
(10,458,o),
(28,466,o),
(65,478,cs)
);
},
{
closed = 1;
nodes = (
(244,464,o),
(270,517,o),
(302,517,cs),
(316,517,o),
(335,515,o),
(353,512,cs),
(386,506,o),
(398,481,o),
(390,447,cs),
(382,415,o),
(371,398,o),
(363,403,cs),
(336,416,o),
(307,419,o),
(283,419,cs),
(257,419,o),
(240,404,o),
(221,378,cs),
(192,338,o),
(173,316,o),
(168,323,cs),
(162,332,o),
(170,350,o),
(191,384,cs)
);
}
);
};
layerId = m01;
shapes = (
{
closed = 1;
nodes = (
(308,0,l),
(308,20,l),
(185,55,l),
(202,32,l),
(202,355,l),
(191,319,l),
(196,328,o),
(201,336,o),
(205,344,cs),
(239,401,o),
(256,429,o),
(283,429,cs),
(307,429,o),
(336,420,o),
(363,403,c),
(404,485,l),
(370,507,o),
(325,520,o),
(273,517,c),
(193,385,l),
(202,382,l),
(208,509,l),
(187,516,l),
(10,461,l),
(10,445,l),
(132,431,l),
(114,451,l),
(114,32,l),
(131,55,l),
(30,20,l),
(30,0,l)
);
}
);
width = 424;
},
{
associatedMasterId = m01;
background = {
shapes = (
{
closed = 1;
nodes = (
(187,516,l),
(192,513,ls),
(195,511,o),
(199,496,o),
(202,460,cs),
(204,434,l),
(204,108,ls),
(204,69,o),
(223,45,o),
(261,35,cs),
(274,32,o),
(280,25,o),
(280,15,cs),
(280,6,o),
(257,0,o),
(214,0,cs),
(20,0,l),
(20,10,ls),
(20,16,o),
(35,25,o),
(67,35,cs),
(99,45,o),
(114,69,o),
(114,107,cs),
(114,370,ls),
(114,411,o),
(92,435,o),
(52,440,cs),
(10,445,l),
(10,453,ls),
(10,458,o),
(28,466,o),
(65,478,cs)
);
},
{
closed = 1;
nodes = (
(244,464,o),
(270,517,o),
(302,517,cs),
(316,517,o),
(335,515,o),
(353,512,cs),
(386,506,o),
(398,481,o),
(390,447,cs),
(382,415,o),
(371,398,o),
(363,403,cs),
(336,416,o),
(307,419,o),
(283,419,cs),
(257,419,o),
(240,404,o),
(221,378,cs),
(192,338,o),
(173,316,o),
(168,323,cs),
(162,332,o),
(170,350,o),
(191,384,cs)
);
}
);
};
layerId = "66529081-EDE8-422A-B9FF-C7E6FD61FFB3";
name = "1. Jan. 24, 11:55";
shapes = (
{
closed = 1;
nodes = (
(202,50,l),
(202,434,l),
(198,509,l),
(187,516,l),
(10,461,l),
(10,445,l),
(114,433,l),
(114,50,l)
);
},
{
closed = 1;
nodes = (
(308,0,l),
(308,20,l),
(202,50,l),
(114,50,l),
(20,20,l),
(20,0,l)
);
},
{
closed = 1;
nodes = (
(223,361,o),
(241,429,o),
(283,429,cs),
(307,429,o),
(336,420,o),
(363,403,c),
(404,485,l),
(370,507,o),
(325,520,o),
(273,517,c),
(157,326,l),
(174,294,l)
);
}
);
width = 424;
},
{
anchors = (
{
name = com;
pos = (157,0);
},
{
name = top;
pos = (245,500);
}
);
background = {
shapes = (
{
closed = 1;
nodes = (
(10,0,l),
(332,0,l),
(332,20,l),
(257,51,l),
(259,48,l),
(259,427,l),
(261,493,l),
(253,516,l),
(10,465,l),
(10,435,l),
(85,414,l),
(83,417,l),
(83,48,l),
(85,51,l),
(10,20,l)
);
}
);
};
hints = (
{
horizontal = 1;
place = (-3, 16);
place = (-3, 16);
type = Stem;
},
{
horizontal = 1;
place = (499, -20);
target = down;
type = TopGhost;
},
{
place = (71, 174);
place = (71, 174);
type = Stem;
},
{
horizontal = 1;
place = (402, 120);
place = (402, 120);
type = Stem;
},
{
place = (71, 163.5);
place = (71, 163.5);
type = Stem;
}
);
layerId = "E0989092-07D5-4BE4-A82B-4E03160A36DB";
shapes = (
{
closed = 1;
nodes = (
(332,0,l),
(332,20,l),
(257,51,l),
(259,48,l),
(259,394,l),
(244,371,l),
(248,376,o),
(260,388,o),
(265,391,cs),
(281,402,o),
(297,407,o),
(307,407,cs),
(339,407,o),
(371,383,o),
(404,348,c),
(459,473,l),
(401,525,o),
(331,528,o),
(299,517,c),
(256,443,l),
(258,443,l),
(261,493,l),
(253,516,l),
(10,465,l),
(10,435,l),
(85,414,l),
(83,417,l),
(83,48,l),
(85,51,l),
(10,21,l),
(10,0,l)
);
}
);
width = 455;
}
);
unicode = 114;
},
{
color = 4;
glyphname = s;
layers = (
{
anchors = (
{
name = ced;
pos = (224,-1);
},
{
name = com;
pos = (224,0);
},
{
name = top;
pos = (224,500);
}
);
background = {
shapes = (
{
closed = 1;
nodes = (
(125,516,o),
(55,460,o),
(55,380,cs),
(55,180,o),
(336,210,o),
(336,110,cs),
(336,54,o),
(290,14,o),
(224,14,cs),
(179,14,o),
(139,45,o),
(116,94,cs),
(78,182,o),
(67,165,o),
(62,34,c),
(98,4,o),
(166,-16,o),
(224,-16,cs),
(325,-16,o),
(396,44,o),
(396,130,cs),
(396,330,o),
(125,300,o),
(125,400,cs),
(125,450,o),
(166,486,o),
(224,486,cs),
(264,486,o),
(299,459,o),
(320,416,cs),
(337,379,o),
(342,360,o),
(352,360,cs),
(365,360,o),
(371,403,o),
(367,481,c),
(337,499,o),
(280,516,o),
(224,516,cs)
);
}
);
};
layerId = m01;
shapes = (
{
closed = 1;
nodes = (
(325,-16,o),
(396,44,o),
(396,130,cs),
(396,244,o),
(304,283,o),
(227,315,cs),
(172,338,o),
(125,358,o),
(125,400,cs),
(125,450,o),
(166,486,o),
(224,486,cs),
(264,486,o),
(300,460,o),
(320,416,cs),
(345,360,l),
(368,360,l),
(368,481,l),
(336,499,o),
(280,516,o),
(224,516,cs),
(125,516,o),
(55,460,o),
(55,380,cs),
(55,266,o),
(150,227,o),
(230,195,cs),
(287,172,o),
(336,152,o),
(336,110,cs),
(336,54,o),
(290,14,o),
(224,14,cs),
(179,14,o),
(138,44,o),
(116,94,cs),
(92,149,l),
(70,149,l),
(62,34,l),
(98,4,o),
(166,-16,o),
(224,-16,cs)
);
}
);
width = 441;
},
{
associatedMasterId = m01;
background = {
shapes = (
{
closed = 1;
nodes = (
(125,516,o),
(55,460,o),
(55,380,cs),
(55,180,o),
(336,210,o),
(336,110,cs),
(336,54,o),
(290,14,o),
(224,14,cs),
(179,14,o),
(139,45,o),
(116,94,cs),
(78,182,o),
(67,165,o),
(62,34,c),
(98,4,o),
(166,-16,o),
(224,-16,cs),
(325,-16,o),
(396,44,o),
(396,130,cs),
(396,330,o),
(125,300,o),
(125,400,cs),
(125,450,o),
(166,486,o),
(224,486,cs),
(264,486,o),
(299,459,o),
(320,416,cs),
(337,379,o),
(342,360,o),
(352,360,cs),
(365,360,o),
(371,403,o),
(367,481,c),
(337,499,o),
(280,516,o),
(224,516,cs)
);
}
);
};
layerId = "DBBBEA9A-309E-401A-8CD2-D99DFACDCE64";
name = "1. Jan. 24, 11:59";
shapes = (
{
closed = 1;
nodes = (
(325,-16,o),
(396,44,o),
(396,130,cs),
(396,325,o),
(125,300,o),
(125,400,cs),
(125,450,o),
(166,486,o),
(224,486,cs),
(264,486,o),
(299,459,o),
(320,416,cs),
(345,360,l),
(368,360,l),
(368,481,l),
(336,499,o),
(280,516,o),
(224,516,cs),
(125,516,o),
(55,460,o),
(55,380,cs),
(55,185,o),
(336,210,o),
(336,110,cs),
(336,54,o),
(290,14,o),
(224,14,cs),
(179,14,o),
(139,45,o),
(116,94,cs),
(92,149,l),
(70,149,l),
(62,34,l),
(98,4,o),
(166,-16,o),
(224,-16,cs)
);
}
);
width = 441;
},
{
anchors = (
{
name = ced;
pos = (234,-1);
},
{
name = com;
pos = (234,0);
},
{
name = top;
pos = (234,500);
}
);
hints = (
{
horizontal = 1;
place = (-19, 36);
place = (-19, 36);
type = Stem;
},
{
horizontal = 1;
place = (483, 36);
place = (483, 36);
type = Stem;
},
{
place = (40, 78.5);
place = (40, 78.5);
type = Stem;
},
{
place = (293, 146);
place = (293, 146);
type = Stem;
},
{
place = (12, 156);
place = (12, 156);
type = Stem;
},
{
place = (323, 72);
place = (323, 72);
type = Stem;
}
);
layerId = "E0989092-07D5-4BE4-A82B-4E03160A36DB";
shapes = (
{
closed = 1;
nodes = (
(350,-19,o),
(449,43,o),
(449,130,cs),
(449,251,o),
(362,301,o),
(285,333,cs),
(232,355,o),
(178,363,o),
(178,410,cs),
(178,449,o),
(211,483,o),
(254,483,cs),
(306,483,o),
(348,454,o),
(355,414,cs),
(365,357,l),
(415,357,l),
(415,471,l),
(365,499,o),
(294,519,o),
(244,519,cs),
(120,519,o),
(22,461,o),
(22,380,cs),
(22,259,o),
(112,209,o),
(193,177,cs),
(247,155,o),
(303,147,o),
(303,100,cs),
(303,56,o),
(264,17,o),
(214,17,cs),
(155,17,o),
(109,50,o),
(102,96,cs),
(93,152,l),
(43,152,l),
(37,47,l),
(51,8,o),
(128,-19,o),
(224,-19,cs)
);
}
);
width = 476;
}
);
unicode = 115;
},
{
color = 5;
glyphname = saltillo;
layers = (
{
layerId = m01;
shapes = (
{
closed = 1;
nodes = (
(86,515,l),
(106,700,l),
(34,700,l),
(44,515,l)
);
}
);
width = 210;
},
{
layerId = "E0989092-07D5-4BE4-A82B-4E03160A36DB";
shapes = (
{
closed = 1;
nodes = (
(96,495,l),
(116,700,l),
(24,700,l),
(34,495,l)
);
}
);
width = 220;
}
);
unicode = 42892;
},
{
color = 10;
glyphname = germandbls;
layers = (
{
layerId = m01;
shapes = (
{
closed = 1;
nodes = (
(507,-16,o),
(565,44,o),
(565,130,cs),
(565,246,o),
(486,288,o),
(423,321,cs),
(379,344,o),
(343,364,o),
(343,400,cs),
(343,443,o),
(378,476,o),
(414,510,cs),
(452,546,o),
(493,583,o),
(493,634,cs),
(493,750,o),
(433,814,o),
(328,814,cs),
(203,814,o),
(109,711,o),
(109,566,cs),
(109,484,l),
(127,502,l),
(2,502,l),
(0,462,l),
(127,462,l),
(109,480,l),
(109,32,l),
(126,56,l),
(18,20,l),
(18,0,l),
(199,0,l),
(199,598,ls),
(199,709,o),
(244,787,o),
(299,787,cs),
(383,787,o),
(419,687,o),
(419,611,cs),
(419,576,o),
(390,545,o),
(359,512,cs),
(323,474,o),
(285,433,o),
(285,380,cs),
(285,264,o),
(367,222,o),
(433,189,cs),
(478,166,o),
(516,146,o),
(516,110,cs),
(516,54,o),
(478,19,o),
(424,19,cs),
(387,19,o),
(350,45,o),
(332,94,cs),
(315,139,l),
(297,139,l),
(291,34,l),
(320,4,o),
(376,-16,o),
(424,-16,cs)
);
}
);
width = 590;
},
{
associatedMasterId = m01;
layerId = "F985E475-2F89-4C60-B7AF-543DFCCDA5B4";
name = "1. Jan. 24, 12:14";
shapes = (
{
closed = 1;
nodes = (
(507,-16,o),
(565,44,o),
(565,130,cs),
(565,325,o),
(343,310,o),
(343,400,cs),
(343,489,o),
(491,534,o),
(491,634,cs),
(491,750,o),
(433,814,o),
(328,814,cs),
(203,814,o),
(109,711,o),
(109,566,c),
(199,598,l),
(199,709,o),
(244,787,o),
(299,787,cs),
(343,787,o),
(419,687,o),
(419,611,cs),
(419,536,o),
(285,479,o),
(285,380,cs),
(285,185,o),
(516,200,o),
(516,110,cs),
(516,54,o),
(478,19,o),
(424,19,cs),
(387,19,o),
(350,45,o),
(332,94,cs),
(315,139,l),
(297,139,l),
(291,34,l),
(320,4,o),
(376,-16,o),
(424,-16,cs)
);
},
{
closed = 1;
nodes = (
(199,0,l),
(199,50,l),
(109,50,l),
(18,20,l),
(18,0,l)
);
},
{
closed = 1;
nodes = (
(199,50,l),
(199,598,l),
(109,566,l),
(109,50,l)
);
},
{
closed = 1;
nodes = (
(161,462,l),
(161,502,l),
(2,502,l),
(0,462,l)
);
}
);
width = 590;
},
{
hints = (
{
horizontal = 1;
place = (-19, 41);
place = (-19, 41);
type = Stem;
},
{
horizontal = 1;
place = (452, 47);
place = (452, 47);
type = Stem;
},
{
horizontal = 1;
place = (784, 33);
place = (784, 33);
type = Stem;
},
{
place = (66, 176);
place = (66, 176);
type = Stem;
},
{
place = (284, 44.5);
place = (284, 44.5);
type = Stem;
},
{
place = (473, 135);
place = (473, 135);
type = Stem;
},
{
horizontal = 1;
place = (0, 17);
place = (0, 17);
type = Stem;
},
{
place = (283, 120);
place = (283, 120);
type = Stem;
},
{
place = (376, 157);
place = (376, 157);
type = Stem;
}
);
layerId = "E0989092-07D5-4BE4-A82B-4E03160A36DB";
shapes = (
{
closed = 1;
nodes = (
(545,-19,o),
(628,36,o),
(628,130,cs),
(628,254,o),
(553,288,o),
(490,318,cs),
(446,339,o),
(423,356,o),
(423,400,cs),
(423,433,o),
(451,482,o),
(491,518,cs),
(527,551,o),
(553,599,o),
(553,634,cs),
(553,741,o),
(468,817,o),
(348,817,cs),
(195,817,o),
(86,703,o),
(86,543,cs),
(86,497,l),
(88,499,l),
(19,499,l),
(20,452,l),
(88,452,l),
(86,454,l),
(86,44,l),
(88,47,l),
(8,17,l),
(8,0,l),
(262,0,l),
(262,605,ls),
(262,710,o),
(286,784,o),
(319,784,cs),
(370,784,o),
(406,712,o),
(406,611,cs),
(406,569,o),
(396,530,o),
(382,517,cs),
(336,469,o),
(303,413,o),
(303,380,cs),
(303,306,o),
(340,222,o),
(406,192,cs),
(453,171,o),
(493,154,o),
(493,110,cs),
(493,44,o),
(470,22,o),
(444,22,cs),
(430,22,o),
(390,31,o),
(369,96,cs),
(354,142,l),
(304,142,l),
(304,47,l),
(304,21,o),
(371,-19,o),
(444,-19,cs)
);
}
);
width = 650;
}
);
unicode = 223;
},
{
color = 4;
glyphname = t;
layers = (
{
anchors = (
{
name = cara;
pos = (155,701);
},
{
name = ced;
pos = (224,3);
},
{
name = com;
pos = (224,0);
}
);
layerId = m01;
shapes = (
{
closed = 1;
nodes = (
(268,-15,o),
(343,13,o),
(386,53,c),
(367,81,l),
(334,53,o),
(295,34,o),
(259,34,cs),
(228,34,o),
(198,70,o),
(198,134,cs),
(198,480,l),
(180,462,l),
(342,462,l),
(342,502,l),
(180,502,l),
(198,484,l),
(198,660,l),
(110,597,l),
(110,484,l),
(129,502,l),
(22,502,l),
(22,462,l),
(129,462,l),
(110,480,l),
(110,99,ls),
(110,32,o),
(150,-15,o),
(204,-15,cs)
);
}
);
width = 392;
},
{
associatedMasterId = m01;
layerId = "40F5704F-EE71-40ED-A15A-121B75F7EAE7";
name = "1. Jan. 24, 12:01";
shapes = (
{
closed = 1;
nodes = (
(268,-15,o),
(343,13,o),
(386,53,c),
(367,81,l),
(334,53,o),
(295,34,o),
(259,34,cs),
(228,34,o),
(198,70,o),
(198,134,cs),
(198,660,l),
(111,597,l),
(111,99,ls),
(111,32,o),
(150,-15,o),
(204,-15,cs)
);
},
{
closed = 1;
nodes = (
(342,462,l),
(342,502,l),
(23,502,l),
(21,462,l)
);
}
);
width = 392;
},
{
anchors = (
{
name = cara;
pos = (175,701);
},
{
name = ced;
pos = (244,3);
},
{
name = com;
pos = (244,0);
}
);
hints = (
{
horizontal = 1;
place = (-18, 74);
place = (-18, 74);
type = Stem;
},
{
horizontal = 1;
place = (459, 46);
place = (459, 46);
type = Stem;
},
{
place = (60, 173);
place = (60, 173);
type = Stem;
}
);
layerId = "E0989092-07D5-4BE4-A82B-4E03160A36DB";
shapes = (
{
closed = 1;
nodes = (
(298,-18,o),
(385,55,o),
(416,90,c),
(397,114,l),
(329,50,o),
(313,56,o),
(301,56,cs),
(288,56,o),
(253,60,o),
(253,134,cs),
(253,461,l),
(251,459,l),
(397,459,l),
(397,505,l),
(251,505,l),
(253,503,l),
(253,678,l),
(80,620,l),
(80,503,l),
(82,505,l),
(-8,505,l),
(-11,459,l),
(82,459,l),
(80,461,l),
(80,99,ls),
(80,24,o),
(138,-18,o),
(216,-18,cs)
);
}
);
width = 392;
}
);
unicode = 116;
},
{
color = 4;
glyphname = u;
layers = (
{
anchors = (
{
name = ogo;
pos = (408,1);
},
{
name = top;
pos = (293,500);
}
);
layerId = m01;
shapes = (
{
closed = 1;
nodes = (
(301,-15,o),
(366,33,o),
(412,78,c),
(402,88,l),
(409,-10,l),
(419,-16,l),
(596,19,l),
(596,35,l),
(474,49,l),
(492,29,l),
(492,500,l),
(326,500,l),
(326,470,l),
(419,445,l),
(402,468,l),
(402,100,l),
(411,128,l),
(371,84,o),
(320,37,o),
(277,37,cs),
(215,37,o),
(176,85,o),
(176,162,cs),
(176,500,l),
(-5,500,l),
(-5,480,l),
(103,444,l),
(86,468,l),
(86,134,ls),
(86,47,o),
(154,-15,o),
(246,-15,cs)
);
}
);
width = 591;
},
{
associatedMasterId = m01;
layerId = "9564286C-1ECF-49B7-A1AE-8460CA4B2C0C";
name = "1. Jan. 24, 12:01";
shapes = (
{
closed = 1;
nodes = (
(304,-15,o),
(373,38,o),
(419,85,c),
(416,133,l),
(376,88,o),
(322,37,o),
(277,37,cs),
(215,37,o),
(176,85,o),
(176,162,cs),
(176,500,l),
(-5,500,l),
(-5,480,l),
(86,450,l),
(86,134,ls),
(86,47,o),
(154,-15,o),
(246,-15,cs)
);
},
{
closed = 1;
nodes = (
(596,19,l),
(596,35,l),
(492,47,l),
(492,500,l),
(326,500,l),
(326,470,l),
(402,450,l),
(402,86,l),
(409,-10,l),
(419,-16,l)
);
}
);
width = 591;
},
{
anchors = (
{
name = ogo;
pos = (410,1);
},
{
name = top;
pos = (295,500);
}
);
background = {
shapes = (
{
closed = 1;
nodes = (
(336,500,l),
(336,480,l),
(409,445,l),
(399,463,l),
(399,63,l),
(411,91,l),
(381,61,o),
(340,39,o),
(312,39,cs),
(275,39,o),
(249,90,o),
(249,162,cs),
(249,463,l),
(249,470,l),
(249,480,l),
(249,500,l),
(0,501,l),
(0,480,l),
(78,448,l),
(73,460,l),
(73,134,ls),
(73,45,o),
(159,-17,o),
(281,-17,cs),
(321,-17,o),
(376,3,o),
(414,33,c),
(399,33,l),
(399,0,l),
(405,-16,l),
(648,35,l),
(648,65,l),
(556,90,l),
(575,77,l),
(575,459,l),
(575,471,l),
(575,480,l),
(575,500,l)
);
}
);
};
hints = (
{
horizontal = 1;
place = (-18, 58);
place = (-18, 58);
type = Stem;
},
{
horizontal = 1;
place = (470, 33);
place = (470, 33);
type = Stem;
},
{
place = (43, 176);
place = (43, 176);
type = Stem;
},
{
place = (359, 176);
place = (359, 176);
type = Stem;
},
{
horizontal = 1;
place = (460, 43);
place = (460, 43);
type = Stem;
}
);
layerId = "E0989092-07D5-4BE4-A82B-4E03160A36DB";
shapes = (
{
closed = 1;
nodes = (
(322,-18,o),
(375,9,o),
(404,46,c),
(403,47,l),
(406,0,l),
(416,-16,l),
(628,32,l),
(628,70,l),
(573,81,l),
(575,79,l),
(575,500,l),
(336,500,l),
(336,480,l),
(401,449,l),
(399,452,l),
(399,95,l),
(400,98,l),
(374,65,o),
(339,40,o),
(317,40,cs),
(277,40,o),
(249,91,o),
(249,162,cs),
(249,501,l),
(0,501,l),
(0,480,l),
(75,449,l),
(73,452,l),
(73,134,ls),
(73,45,o),
(157,-18,o),
(276,-18,cs)
);
}
);
width = 651;
}
);
unicode = 117;
},
{
color = 4;
glyphname = v;
layers = (
{
layerId = m01;
shapes = (
{
closed = 1;
nodes = (
(252,1,l),
(451,463,l),
(427,439,l),
(522,480,l),
(522,500,l),
(318,500,l),
(318,480,l),
(403,440,l),
(393,465,l),
(265,127,l),
(277,127,l),
(138,500,l),
(-18,500,l),
(-18,480,l),
(75,442,l),
(52,466,l),
(236,-16,l)
);
}
);
width = 500;
},
{
associatedMasterId = m01;
layerId = "1F750C69-5B90-4595-AD0D-BA127445C31E";
name = "1. Jan. 24, 12:02";
shapes = (
{
closed = 1;
nodes = (
(282,115,l),
(137,500,l),
(-18,500,l),
(-18,480,l),
(58,449,l),
(240,-26,l)
);
},
{
closed = 1;
nodes = (
(444,446,l),
(522,480,l),
(522,500,l),
(318,500,l),
(318,480,l),
(387,448,l),
(240,62,l),
(240,-26,l)
);
}
);
width = 500;
},
{
background = {
shapes = (
{
closed = 1;
nodes = (
(233,-200,l),
(479,452,l),
(476,449,l),
(571,480,l),
(571,500,l),
(314,500,l),
(314,480,l),
(425,443,l),
(424,446,l),
(255,1,l),
(383,1,l),
(216,452,l),
(215,449,l),
(310,480,l),
(310,500,l),
(-60,500,l),
(-60,480,l),
(22,453,l),
(19,456,l),
(266,-215,l)
);
}
);
};
hints = (
{
horizontal = 1;
place = (488, 15);
place = (488, 15);
type = Stem;
},
{
place = (-78, 627);
place = (-78, 627);
type = Stem;
},
{
horizontal = 1;
place = (482, 21);
place = (482, 21);
type = Stem;
}
);
layerId = "E0989092-07D5-4BE4-A82B-4E03160A36DB";
shapes = (
{
closed = 1;
nodes = (
(309,2,l),
(480,452,l),
(477,449,l),
(571,480,l),
(571,500,l),
(314,500,l),
(314,480,l),
(425,443,l),
(424,446,l),
(319,169,l),
(321,169,l),
(199,500,l),
(-60,500,l),
(-60,480,l),
(22,453,l),
(19,456,l),
(193,-16,l)
);
}
);
width = 551;
}
);
unicode = 118;
},
{
color = 4;
glyphname = w;
layers = (
{
anchors = (
{
name = top;
pos = (372,501);
}
);
layerId = m01;
shapes = (
{
closed = 1;
nodes = (
(230,2,l),
(372,417,l),
(361,417,l),
(493,-16,l),
(506,2,l),
(666,465,l),
(647,441,l),
(738,480,l),
(738,500,l),
(534,500,l),
(534,480,l),
(631,442,l),
(626,463,l),
(523,158,l),
(528,161,l),
(415,500,l),
(288,500,l),
(288,480,l),
(363,459,l),
(352,481,l),
(240,145,l),
(249,145,l),
(141,500,l),
(-8,500,l),
(-8,480,l),
(86,441,l),
(64,465,l),
(217,-16,l)
);
}
);
width = 726;
},
{
associatedMasterId = m01;
layerId = "CCC204F1-CDC0-4B95-B559-48905217D45F";
name = "1. Jan. 24, 12:03";
shapes = (
{
closed = 1;
nodes = (
(259,129,l),
(143,500,l),
(-8,500,l),
(-8,480,l),
(69,448,l),
(220,-26,l)
);
},
{
closed = 1;
nodes = (
(370,413,l),
(398,500,l),
(288,500,l),
(288,480,l),
(351,480,l),
(220,72,l),
(220,-26,l)
);
},
{
closed = 1;
nodes = (
(535,151,l),
(418,500,l),
(288,500,l),
(288,480,l),
(346,464,l),
(496,-26,l)
);
},
{
closed = 1;
nodes = (
(664,448,l),
(738,480,l),
(738,500,l),
(534,500,l),
(534,480,l),
(614,449,l),
(496,72,l),
(496,-26,l)
);
}
);
width = 726;
},
{
anchors = (
{
name = top;
pos = (368,501);
}
);
background = {
shapes = (
{
closed = 1;
nodes = (
(242,2,l),
(413,452,l),
(410,449,l),
(504,480,l),
(504,500,l),
(247,500,l),
(247,480,l),
(358,443,l),
(357,446,l),
(252,169,l),
(301,169,l),
(179,500,l),
(-60,500,l),
(-60,480,l),
(22,453,l),
(19,456,l),
(193,-16,l)
);
},
{
closed = 1;
nodes = (
(242,2,l),
(413,452,l),
(410,449,l),
(504,480,l),
(504,500,l),
(247,500,l),
(247,480,l),
(358,443,l),
(357,446,l),
(252,169,l),
(301,169,l),
(179,500,l),
(-60,500,l),
(-60,480,l),
(22,453,l),
(19,456,l),
(193,-16,l)
);
},
{
closed = 1;
nodes = (
(532,2,l),
(703,452,l),
(700,449,l),
(794,480,l),
(794,500,l),
(537,500,l),
(537,480,l),
(648,443,l),
(647,446,l),
(542,169,l),
(591,169,l),
(469,500,l),
(230,500,l),
(230,480,l),
(312,453,l),
(309,456,l),
(483,-16,l)
);
}
);
};
hints = (
{
horizontal = 1;
place = (488, 15);
place = (488, 15);
type = Stem;
},
{
place = (-76, 832);
place = (-76, 832);
type = Stem;
},
{
horizontal = 1;
place = (477, 26);
place = (477, 26);
type = Stem;
},
{
horizontal = 1;
place = (482, 21);
place = (482, 21);
type = Stem;
}
);
layerId = "E0989092-07D5-4BE4-A82B-4E03160A36DB";
shapes = (
{
closed = 1;
nodes = (
(242,1,l),
(362,317,l),
(360,317,l),
(483,-16,l),
(531,0,l),
(703,452,l),
(700,449,l),
(794,480,l),
(794,500,l),
(537,500,l),
(537,480,l),
(648,443,l),
(647,446,l),
(566,233,l),
(568,233,l),
(469,500,l),
(230,500,l),
(230,480,l),
(356,437,l),
(355,440,l),
(276,232,l),
(278,232,l),
(179,500,l),
(-60,500,l),
(-60,480,l),
(22,453,l),
(19,456,l),
(193,-16,l)
);
}
);
width = 774;
}
);
unicode = 119;
},
{
color = 4;
glyphname = x;
layers = (
{
layerId = m01;
shapes = (
{
closed = 1;
nodes = (
(207,0,l),
(207,22,l),
(131,54,l),
(138,32,l),
(271,225,l),
(252,225,l),
(399,0,l),
(554,0,l),
(554,17,l),
(464,49,l),
(489,28,l),
(314,294,l),
(314,265,l),
(489,472,l),
(460,452,l),
(533,478,l),
(533,500,l),
(350,500,l),
(350,478,l),
(431,453,l),
(425,472,l),
(293,298,l),
(312,297,l),
(178,500,l),
(25,500,l),
(25,483,l),
(121,443,l),
(95,465,l),
(249,229,l),
(249,258,l),
(74,33,l),
(102,54,l),
(25,22,l),
(25,0,l)
);
}
);
width = 563;
},
{
associatedMasterId = m01;
layerId = "95ED4FDC-FAA1-4815-8E04-9314630187CE";
name = "1. Jan. 24, 12:04";
shapes = (
{
closed = 1;
nodes = (
(554,0,l),
(554,17,l),
(481,43,l),
(180,500,l),
(25,500,l),
(25,483,l),
(104,450,l),
(398,0,l)
);
},
{
closed = 1;
nodes = (
(207,0,l),
(207,22,l),
(148,47,l),
(297,262,l),
(274,290,l),
(85,47,l),
(25,22,l),
(25,0,l)
);
},
{
closed = 1;
nodes = (
(477,458,l),
(533,478,l),
(533,500,l),
(350,500,l),
(350,478,l),
(414,458,l),
(274,272,l),
(296,243,l)
);
}
);
width = 563;
},
{
background = {
shapes = (
{
closed = 1;
nodes = (
(251,500,l),
(0,500,l),
(0,480,l),
(82,453,l),
(79,456,l),
(328,0,l),
(530,0,l)
);
},
{
closed = 1;
nodes = (
(118,0,l),
(504,452,l),
(501,449,l),
(595,480,l),
(595,500,l),
(338,500,l),
(338,480,l),
(449,443,l),
(432,460,l),
(39,0,l)
);
}
);
};
hints = (
{
horizontal = 1;
place = (-3, 10);
place = (-3, 10);
type = Stem;
},
{
horizontal = 1;
place = (485, 18);
place = (485, 18);
type = Stem;
},
{
place = (-35, 616);
place = (-35, 616);
type = Stem;
},
{
horizontal = 1;
place = (475, 28);
place = (475, 28);
type = Stem;
}
);
layerId = "E0989092-07D5-4BE4-A82B-4E03160A36DB";
shapes = (
{
closed = 1;
nodes = (
(209,0,l),
(209,20,l),
(121,53,l),
(132,28,l),
(267,185,l),
(230,193,l),
(348,0,l),
(605,0,l),
(605,20,l),
(513,49,l),
(555,23,l),
(361,319,l),
(333,260,l),
(520,479,l),
(457,438,l),
(578,482,l),
(578,500,l),
(328,500,l),
(328,480,l),
(434,444,l),
(433,471,l),
(305,318,l),
(354,333,l),
(253,500,l),
(-17,500,l),
(-17,480,l),
(79,447,l),
(51,471,l),
(226,200,l),
(250,259,l),
(53,28,l),
(86,53,l),
(-20,20,l),
(-20,0,l)
);
}
);
width = 585;
}
);
unicode = 120;
},
{
color = 4;
glyphname = y;
layers = (
{
anchors = (
{
name = top;
pos = (293,500);
}
);
layerId = m01;
shapes = (
{
closed = 1;
nodes = (
(189,-216,l),
(280,0,l),
(478,467,l),
(454,444,l),
(551,480,l),
(551,500,l),
(342,500,l),
(342,481,l),
(432,444,l),
(422,468,l),
(289,128,l),
(299,128,l),
(143,500,l),
(-9,500,l),
(-9,479,l),
(82,443,l),
(60,467,l),
(252,6,l),
(252,39,l),
(124,-183,l),
(150,-162,l),
(46,-194,l),
(46,-216,l)
);
}
);
width = 560;
},
{
associatedMasterId = m01;
background = {
shapes = (
{
closed = 1;
nodes = (
(496,462,l),
(571,480,l),
(571,500,l),
(362,500,l),
(362,481,l),
(443,463,l),
(316,145,l),
(165,500,l),
(11,500,l),
(11,479,l),
(85,450,l),
(263,23,l),
(230,-59,o),
(208,-125,o),
(183,-160,cs),
(161,-189,o),
(142,-193,o),
(145,-205,cs),
(148,-217,o),
(181,-223,o),
(208,-189,cs),
(238,-150,o),
(265,-83,o),
(300,0,cs)
);
},
{
closed = 1;
nodes = (
(141,-192,o),
(121,-190,o),
(102,-164,cs),
(93,-152,o),
(85,-136,o),
(79,-117,cs),
(67,-77,o),
(61,-57,o),
(51,-57,cs),
(42,-57,o),
(36,-80,o),
(36,-122,cs),
(36,-157,o),
(48,-183,o),
(79,-201,cs),
(82,-203,o),
(86,-205,o),
(90,-207,cs),
(121,-222,o),
(148,-215,o),
(145,-205,cs)
);
}
);
};
layerId = "5DA92128-E1CB-424F-BC18-F79CDDA4066B";
name = "1. Jan. 24, 12:05";
shapes = (
{
closed = 1;
nodes = (
(491,450,l),
(571,480,l),
(571,500,l),
(362,500,l),
(362,481,l),
(435,451,l),
(316,145,l),
(165,500,l),
(11,500,l),
(11,479,l),
(85,450,l),
(263,23,l),
(300,0,l)
);
},
{
closed = 1;
nodes = (
(209,-216,l),
(300,0,l),
(263,23,l),
(153,-167,l),
(66,-194,l),
(66,-216,l)
);
}
);
width = 580;
},
{
anchors = (
{
name = top;
pos = (289,511);
}
);
background = {
shapes = (
{
closed = 1;
nodes = (
(204,-216,l),
(295,0,l),
(493,467,l),
(469,444,l),
(566,480,l),
(566,500,l),
(357,500,l),
(357,481,l),
(447,444,l),
(437,468,l),
(304,128,l),
(314,128,l),
(158,500,l),
(6,500,l),
(6,479,l),
(97,443,l),
(75,467,l),
(267,6,l),
(267,39,l),
(139,-183,l),
(165,-162,l),
(61,-194,l),
(61,-216,l)
);
}
);
};
hints = (
{
horizontal = 1;
place = (-219, 18);
place = (-219, 18);
type = Stem;
},
{
horizontal = 1;
place = (489, 14);
place = (489, 14);
type = Stem;
},
{
place = (-66, 647);
place = (-66, 647);
type = Stem;
},
{
horizontal = 1;
place = (482, 21);
place = (482, 21);
type = Stem;
}
);
layerId = "E0989092-07D5-4BE4-A82B-4E03160A36DB";
shapes = (
{
closed = 1;
nodes = (
(204,-216,l),
(295,0,l),
(507,438,l),
(504,435,l),
(599,474,l),
(599,500,l),
(349,500,l),
(349,471,l),
(451,435,l),
(450,438,l),
(341,223,l),
(343,223,l),
(220,500,l),
(-50,500,l),
(-50,471,l),
(32,431,l),
(29,434,l),
(227,-2,l),
(227,2,l),
(139,-183,l),
(175,-159,l),
(61,-184,l),
(61,-216,l)
);
}
);
width = 589;
}
);
unicode = 121;
},
{
color = 4;
glyphname = z;
layers = (
{
anchors = (
{
name = top;
pos = (241,499);
}
);
layerId = m01;
shapes = (
{
closed = 1;
nodes = (
(445,1,l),
(445,169,l),
(420,169,l),
(381,24,l),
(404,41,l),
(118,41,l),
(126,26,l),
(441,470,l),
(432,500,l),
(52,500,l),
(52,322,l),
(77,322,l),
(121,477,l),
(98,460,l),
(346,460,l),
(338,475,l),
(30,40,l),
(30,1,l)
);
}
);
width = 475;
},
{
anchors = (
{
name = top;
pos = (266,499);
}
);
hints = (
{
horizontal = 1;
place = (-1, 47);
place = (-1, 47);
type = Stem;
},
{
horizontal = 1;
place = (455, 47);
place = (455, 47);
type = Stem;
},
{
place = (19, 60);
place = (19, 60);
type = Stem;
},
{
place = (422, 60);
place = (422, 60);
type = Stem;
},
{
horizontal = 1;
place = (-1, 175);
place = (-1, 175);
type = Stem;
},
{
horizontal = 1;
place = (473, 29);
place = (473, 29);
type = Stem;
},
{
horizontal = 1;
place = (317, 185);
place = (317, 185);
type = Stem;
}
);
layerId = "E0989092-07D5-4BE4-A82B-4E03160A36DB";
shapes = (
{
closed = 1;
nodes = (
(497,0,l),
(497,174,l),
(447,174,l),
(412,43,l),
(415,45,l),
(226,45,l),
(227,43,l),
(506,473,l),
(497,500,l),
(34,500,l),
(34,317,l),
(84,317,l),
(123,457,l),
(120,455,l),
(286,455,l),
(285,457,l),
(12,32,l),
(12,0,l)
);
}
);
width = 538;
}
);
unicode = 122;
},
{
color = 4;
glyphname = f_i;
layers = (
{
layerId = m01;
shapes = (
{
closed = 1;
nodes = (
(233,0,l),
(233,19,l),
(142,56,l),
(159,31,l),
(159,480,l),
(141,462,l),
(389,462,l),
(371,480,l),
(371,30,l),
(388,54,l),
(297,20,l),
(297,0,l),
(555,0,l),
(555,20,l),
(444,57,l),
(461,33,l),
(461,434,l),
(463,510,l),
(453,516,l),
(281,502,l),
(141,502,l),
(159,484,l),
(159,598,ls),
(159,709,o),
(184,787,o),
(239,787,cs),
(289,787,o),
(344,739,o),
(371,672,c),
(472,679,l),
(472,758,o),
(387,814,o),
(268,814,cs),
(143,814,o),
(69,711,o),
(69,566,cs),
(69,484,l),
(87,502,l),
(-39,502,l),
(-39,462,l),
(87,462,l),
(69,480,l),
(69,32,l),
(86,56,l),
(-22,20,l),
(-22,0,l)
);
}
);
width = 580;
},
{
anchors = (
{
name = ogo;
pos = (507,0);
},
{
name = top;
pos = (536,500);
}
);
associatedMasterId = m01;
layerId = "35488390-39C4-4D7C-8419-1BCD967720D1";
name = "3. Jan. 24, 12:11";
shapes = (
{
closed = 1;
nodes = (
(283,0,l),
(283,19,l),
(192,56,l),
(209,31,l),
(209,480,l),
(191,462,l),
(331,462,l),
(331,502,l),
(191,502,l),
(209,484,l),
(209,598,ls),
(209,709,o),
(234,787,o),
(289,787,cs),
(339,787,o),
(394,739,o),
(421,672,c),
(522,679,l),
(522,758,o),
(437,814,o),
(318,814,cs),
(193,814,o),
(119,711,o),
(119,566,cs),
(119,484,l),
(137,502,l),
(11,502,l),
(11,462,l),
(137,462,l),
(119,480,l),
(119,32,l),
(136,56,l),
(28,20,l),
(28,0,l)
);
},
{
closed = 1;
nodes = (
(605,0,l),
(605,20,l),
(494,57,l),
(511,33,l),
(511,434,l),
(513,510,l),
(503,516,l),
(331,502,l),
(331,462,l),
(439,462,l),
(421,482,l),
(421,30,l),
(438,54,l),
(347,20,l),
(347,0,l)
);
}
);
width = 630;
},
{
hints = (
{
horizontal = 1;
place = (0, 17);
place = (0, 17);
type = Stem;
},
{
horizontal = 1;
place = (459, 46);
place = (459, 46);
type = Stem;
},
{
horizontal = 1;
place = (784, 33);
place = (784, 33);
type = Stem;
},
{
place = (126, 176);
place = (126, 176);
type = Stem;
},
{
place = (428, 176);
place = (428, 176);
type = Stem;
},
{
horizontal = 1;
place = (505, -20);
target = down;
type = TopGhost;
},
{
horizontal = 1;
place = (0, 13);
place = (0, 13);
type = Stem;
}
);
layerId = "E0989092-07D5-4BE4-A82B-4E03160A36DB";
shapes = (
{
closed = 1;
nodes = (
(343,0,l),
(343,19,l),
(300,43,l),
(302,40,l),
(302,456,l),
(300,454,l),
(430,454,l),
(428,456,l),
(428,41,l),
(430,44,l),
(387,17,l),
(387,0,l),
(698,0,l),
(698,17,l),
(602,49,l),
(604,46,l),
(604,436,l),
(609,500,l),
(600,509,l),
(404,500,l),
(300,500,l),
(302,498,l),
(302,605,ls),
(302,710,o),
(317,784,o),
(339,784,cs),
(403,784,o),
(448,721,o),
(448,632,c),
(599,649,l),
(599,747,o),
(503,817,o),
(368,817,cs),
(226,817,o),
(126,703,o),
(126,543,cs),
(126,498,l),
(128,500,l),
(20,500,l),
(20,454,l),
(128,454,l),
(126,456,l),
(126,45,l),
(128,48,l),
(35,13,l),
(35,0,l)
);
}
);
width = 680;
}
);
metricLeft = f;
metricRight = i;
},
{
color = 4;
glyphname = f_l;
layers = (
{
layerId = m01;
shapes = (
{
closed = 1;
nodes = (
(273,0,l),
(273,19,l),
(193,55,l),
(209,30,l),
(209,480,l),
(191,462,l),
(331,462,l),
(331,502,l),
(191,502,l),
(209,484,l),
(209,598,ls),
(209,709,o),
(234,787,o),
(289,787,cs),
(343,787,o),
(357,779,o),
(377,729,c),
(439,715,l),
(421,737,l),
(421,31,l),
(438,56,l),
(350,20,l),
(350,0,l),
(605,0,l),
(605,19,l),
(494,56,l),
(511,32,l),
(511,718,l),
(513,794,l),
(503,800,l),
(470,790,o),
(444,788,o),
(432,792,c),
(407,805,o),
(352,814,o),
(318,814,cs),
(193,814,o),
(119,711,o),
(119,566,cs),
(119,484,l),
(137,502,l),
(11,502,l),
(11,462,l),
(137,462,l),
(119,480,l),
(119,32,l),
(136,56,l),
(28,20,l),
(28,0,l)
);
}
);
width = 630;
},
{
hints = (
{
horizontal = 1;
place = (0, 13);
place = (0, 13);
type = Stem;
},
{
horizontal = 1;
place = (459, 46);
place = (459, 46);
type = Stem;
},
{
horizontal = 1;
place = (784, 33);
place = (784, 33);
type = Stem;
},
{
place = (92, 177);
place = (92, 177);
type = Stem;
},
{
place = (394, 177);
place = (394, 177);
type = Stem;
},
{
horizontal = 1;
place = (784, 8);
place = (784, 8);
type = Stem;
}
);
layerId = "E0989092-07D5-4BE4-A82B-4E03160A36DB";
shapes = (
{
closed = 1;
nodes = (
(300,0,l),
(300,12,l),
(267,37,l),
(269,34,l),
(269,456,l),
(267,454,l),
(394,454,l),
(394,500,l),
(267,500,l),
(269,498,l),
(269,605,ls),
(269,717,o),
(292,784,o),
(306,784,cs),
(358,784,o),
(394,754,o),
(394,711,c),
(396,708,l),
(394,711,l),
(394,40,l),
(396,43,l),
(340,13,l),
(340,0,l),
(665,0,l),
(665,12,l),
(569,46,l),
(571,43,l),
(571,718,l),
(573,784,l),
(553,810,l),
(492,792,o),
(432,786,o),
(415,799,c),
(394,810,o),
(365,817,o),
(335,817,cs),
(168,817,o),
(92,698,o),
(92,543,cs),
(92,498,l),
(94,500,l),
(1,500,l),
(1,454,l),
(94,454,l),
(92,456,l),
(92,43,l),
(94,46,l),
(1,13,l),
(1,0,l)
);
}
);
width = 662;
}
);
metricLeft = f;
metricRight = l;
},
{
color = 5;
glyphname = pi;
layers = (
{
layerId = m01;
shapes = (
{
closed = 1;
nodes = (
(206,0,l),
(206,440,l),
(374,440,l),
(374,91,ls),
(374,32,o),
(421,-5,o),
(495,-5,cs),
(522,-5,o),
(517,-5,o),
(557,-5,c),
(557,55,l),
(495,55,ls),
(470,55,o),
(454,69,o),
(454,91,cs),
(454,112,o),
(454,332,o),
(454,440,c),
(557,440,l),
(557,500,l),
(23,500,l),
(25,499,l),
(25,440,l),
(126,440,l),
(126,0,l)
);
}
);
width = 600;
},
{
hints = (
{
horizontal = 1;
place = (500, -20);
target = down;
type = TopGhost;
},
{
place = (216, 168);
place = (216, 168);
type = Stem;
}
);
layerId = "E0989092-07D5-4BE4-A82B-4E03160A36DB";
shapes = (
{
closed = 1;
nodes = (
(246,0,l),
(246,440,l),
(334,440,l),
(334,88,ls),
(334,29,o),
(401,-8,o),
(475,-8,cs),
(502,-8,o),
(507,-8,o),
(547,-8,c),
(547,52,l),
(525,52,ls),
(500,52,o),
(504,66,o),
(504,88,cs),
(504,109,o),
(504,332,o),
(504,440,c),
(547,440,l),
(547,500,l),
(13,500,l),
(15,499,l),
(15,440,l),
(76,440,l),
(76,0,l)
);
}
);
width = 590;
}
);
unicode = 960;
},
{
color = 4;
glyphname = zero;
layers = (
{
layerId = m01;
shapes = (
{
closed = 1;
nodes = (
(448,-15,o),
(523,132,o),
(523,367,cs),
(523,582,o),
(448,717,o),
(297,717,cs),
(143,717,o),
(57,578,o),
(57,357,cs),
(57,128,o),
(143,-15,o),
(297,-15,cs)
);
},
{
closed = 1;
nodes = (
(203,18,o),
(161,139,o),
(161,385,cs),
(161,585,o),
(195,683,o),
(284,683,cs),
(388,683,o),
(419,569,o),
(419,336,cs),
(419,122,o),
(397,18,o),
(310,18,cs)
);
}
);
width = 580;
},
{
hints = (
{
horizontal = 1;
place = (-18, 39);
place = (-18, 39);
type = Stem;
},
{
horizontal = 1;
place = (680, 40);
place = (680, 40);
type = Stem;
},
{
place = (14, 190);
place = (14, 190);
type = Stem;
},
{
place = (376, 190);
place = (376, 190);
type = Stem;
}
);
layerId = "E0989092-07D5-4BE4-A82B-4E03160A36DB";
shapes = (
{
closed = 1;
nodes = (
(468,-16,o),
(546,132,o),
(546,367,cs),
(546,579,o),
(470,716,o),
(277,716,cs),
(86,716,o),
(-6,578,o),
(-6,357,cs),
(-6,128,o),
(85,-16,o),
(277,-16,cs)
);
},
{
closed = 1;
nodes = (
(223,24,o),
(184,134,o),
(184,385,cs),
(184,590,o),
(215,676,o),
(264,676,cs),
(326,676,o),
(356,574,o),
(356,336,cs),
(356,119,o),
(335,24,o),
(290,24,cs)
);
}
);
width = 600;
}
);
unicode = 48;
},
{
color = 4;
glyphname = one;
layers = (
{
layerId = m01;
shapes = (
{
closed = 1;
nodes = (
(472,0,l),
(472,50,l),
(334,50,l),
(352,32,l),
(352,700,l),
(334,716,l),
(103,571,l),
(128,528,l),
(277,622,l),
(262,630,l),
(262,32,l),
(280,50,l),
(141,50,l),
(141,0,l)
);
}
);
width = 580;
},
{
associatedMasterId = m01;
layerId = "360EFFB6-4E8B-4C79-A491-3A1B2B1C2A03";
name = "1. Jan. 24, 17:20";
shapes = (
{
closed = 1;
nodes = (
(352,0,l),
(352,700,l),
(334,716,l),
(103,571,l),
(128,528,l),
(262,612,l),
(262,0,l)
);
},
{
closed = 1;
nodes = (
(472,0,l),
(472,50,l),
(141,50,l),
(141,0,l)
);
}
);
width = 580;
},
{
hints = (
{
horizontal = 1;
place = (-3, 56);
place = (-3, 56);
type = Stem;
},
{
place = (202, 177);
place = (202, 177);
type = Stem;
}
);
layerId = "E0989092-07D5-4BE4-A82B-4E03160A36DB";
shapes = (
{
closed = 1;
nodes = (
(444,0,l),
(444,34,l),
(326,50,l),
(328,48,l),
(328,700,l),
(312,716,l),
(-4,566,l),
(30,513,l),
(146,553,l),
(144,534,l),
(144,48,l),
(146,50,l),
(26,34,l),
(26,0,l)
);
}
);
width = 460;
}
);
unicode = 49;
},
{
color = 4;
glyphname = two;
layers = (
{
layerId = m01;
shapes = (
{
closed = 1;
nodes = (
(511,0,l),
(536,167,l),
(507,174,l),
(437,65,l),
(465,80,l),
(149,80,l),
(169,70,l),
(295,237,o),
(504,310,o),
(504,539,cs),
(504,641,o),
(407,714,o),
(269,715,cs),
(211,715,o),
(133,679,o),
(79,627,c),
(79,456,l),
(131,456,l),
(131,579,o),
(188,666,o),
(269,666,cs),
(346,666,o),
(400,603,o),
(400,515,cs),
(400,337,o),
(206,200,o),
(70,40,c),
(70,0,l)
);
}
);
width = 580;
},
{
associatedMasterId = m01;
layerId = "0DE6C439-2438-4EA0-86E4-AE4E41974AE0";
name = "1. Jan. 24, 17:21";
shapes = (
{
closed = 1;
nodes = (
(511,0,l),
(536,167,l),
(507,174,l),
(447,80,l),
(167,80,l),
(303,240,o),
(504,315,o),
(504,539,cs),
(504,641,o),
(407,714,o),
(269,715,c),
(269,666,l),
(346,666,o),
(400,603,o),
(400,515,cs),
(400,337,o),
(206,200,o),
(70,40,c),
(70,0,l)
);
},
{
closed = 1;
nodes = (
(131,456,l),
(131,579,o),
(188,666,o),
(269,666,c),
(269,715,l),
(211,715,o),
(133,679,o),
(79,627,c),
(79,456,l)
);
}
);
width = 580;
},
{
background = {
shapes = (
{
closed = 0;
nodes = (
(525,0,l),
(560,194,l),
(513,213,l),
(426,48,l),
(429,50,l)
);
}
);
};
hints = (
{
horizontal = 1;
place = (-3, 86);
place = (-3, 86);
type = Stem;
},
{
horizontal = 1;
place = (661, 56);
place = (661, 56);
type = Stem;
},
{
place = (340, 191);
place = (340, 191);
type = Stem;
}
);
layerId = "E0989092-07D5-4BE4-A82B-4E03160A36DB";
shapes = (
{
closed = 1;
nodes = (
(526,0,l),
(560,194,l),
(513,213,l),
(442,78,l),
(445,80,l),
(170,80,l),
(172,79,l),
(235,147,o),
(521,348,o),
(521,539,cs),
(521,663,o),
(421,717,o),
(279,717,cs),
(191,717,o),
(94,675,o),
(44,615,c),
(44,453,l),
(114,453,l),
(138,577,o),
(193,665,o),
(246,665,cs),
(295,665,o),
(330,603,o),
(330,515,cs),
(330,317,o),
(39,83,o),
(0,30,c),
(0,0,l)
);
}
);
width = 580;
}
);
unicode = 50;
},
{
color = 4;
glyphname = three;
layers = (
{
layerId = m01;
shapes = (
{
closed = 1;
nodes = (
(413,-14,o),
(527,89,o),
(527,234,cs),
(527,360,o),
(463,427,o),
(363,419,c),
(363,411,l),
(434,462,o),
(479,522,o),
(479,572,cs),
(479,657,o),
(398,717,o),
(283,717,cs),
(214,717,o),
(127,680,o),
(72,627,c),
(99,580,l),
(139,630,o),
(207,666,o),
(263,666,cs),
(332,666,o),
(380,615,o),
(380,544,cs),
(380,475,o),
(312,406,o),
(216,377,c),
(229,338,l),
(242,344,ls),
(266,354,o),
(289,358,o),
(310,358,cs),
(382,358,o),
(428,302,o),
(428,202,cs),
(428,99,o),
(364,26,o),
(273,26,cs),
(180,26,o),
(115,100,o),
(115,205,c),
(73,205,l),
(73,54,l),
(112,14,o),
(186,-14,o),
(253,-14,cs)
);
}
);
width = 580;
},
{
associatedMasterId = m01;
layerId = "8F331F5D-2938-46F6-989C-2C6BBF10FD3A";
name = "1. Jan. 24, 17:22";
shapes = (
{
closed = 1;
nodes = (
(413,-14,o),
(527,89,o),
(527,234,cs),
(527,408,o),
(405,468,o),
(233,380,c),
(229,338,l),
(346,391,o),
(428,335,o),
(428,202,cs),
(428,99,o),
(364,26,o),
(273,26,cs),
(180,26,o),
(115,100,o),
(115,205,c),
(73,205,l),
(73,54,l),
(112,14,o),
(186,-14,o),
(253,-14,cs)
);
},
{
closed = 1;
nodes = (
(375,398,o),
(479,495,o),
(479,572,cs),
(479,657,o),
(398,717,o),
(283,717,cs),
(214,717,o),
(127,680,o),
(72,627,c),
(99,580,l),
(139,630,o),
(207,666,o),
(263,666,cs),
(332,666,o),
(380,615,o),
(380,544,cs),
(380,475,o),
(312,406,o),
(216,377,c),
(229,338,l)
);
}
);
width = 580;
},
{
hints = (
{
horizontal = 1;
place = (-17, 46);
place = (-17, 46);
type = Stem;
},
{
horizontal = 1;
place = (663, 57);
place = (663, 57);
type = Stem;
},
{
place = (46, 79);
place = (46, 79);
type = Stem;
},
{
place = (385, 185);
place = (385, 185);
type = Stem;
},
{
place = (337, 185);
place = (337, 185);
type = Stem;
}
);
layerId = "E0989092-07D5-4BE4-A82B-4E03160A36DB";
shapes = (
{
closed = 1;
nodes = (
(419,-17,o),
(558,86,o),
(558,234,cs),
(558,337,o),
(492,407,o),
(396,423,c),
(396,422,l),
(469,474,o),
(510,528,o),
(510,572,cs),
(510,654,o),
(408,715,o),
(271,715,cs),
(182,715,o),
(68,670,o),
(23,624,c),
(82,522,l),
(137,620,o),
(202,664,o),
(251,664,cs),
(290,664,o),
(325,625,o),
(325,544,cs),
(325,457,o),
(248,388,o),
(164,374,c),
(184,315,l),
(235,334,ls),
(261,344,o),
(284,348,o),
(303,348,cs),
(353,348,o),
(373,312,o),
(373,202,cs),
(373,103,o),
(327,33,o),
(261,33,cs),
(169,33,o),
(104,106,o),
(104,208,c),
(34,208,l),
(34,66,l),
(59,17,o),
(145,-17,o),
(241,-17,cs)
);
}
);
width = 580;
}
);
unicode = 51;
},
{
color = 4;
glyphname = four;
layers = (
{
layerId = m01;
shapes = (
{
closed = 1;
nodes = (
(434,0,l),
(434,203,l),
(416,185,l),
(537,185,l),
(537,256,l),
(416,256,l),
(434,238,l),
(434,698,l),
(405,722,l),
(37,230,l),
(37,185,l),
(362,185,l),
(344,203,l),
(344,0,l)
);
},
{
closed = 1;
nodes = (
(355,576,l),
(344,579,l),
(344,238,l),
(362,256,l),
(102,256,l),
(109,241,l)
);
}
);
width = 580;
},
{
associatedMasterId = m01;
layerId = "8D90DA5D-419B-4F96-B085-6315BED35AA5";
name = "2. Jan. 24, 19:58";
shapes = (
{
closed = 1;
nodes = (
(434,0,l),
(434,698,l),
(405,722,l),
(37,230,l),
(37,185,l),
(537,185,l),
(537,256,l),
(120,256,l),
(344,561,l),
(344,0,l)
);
}
);
width = 580;
},
{
hints = (
{
horizontal = 1;
place = (0, 259);
place = (0, 259);
type = Stem;
},
{
place = (334, 148);
place = (334, 148);
type = Stem;
},
{
horizontal = 1;
place = (155, 104);
place = (155, 104);
type = Stem;
}
);
layerId = "E0989092-07D5-4BE4-A82B-4E03160A36DB";
shapes = (
{
closed = 1;
nodes = (
(467,0,l),
(467,157,l),
(465,155,l),
(564,155,l),
(564,245,l),
(440,245,l),
(467,238,l),
(467,698,l),
(406,751,l),
(-5,220,l),
(-5,155,l),
(344,155,l),
(319,168,l),
(319,0,l)
);
},
{
closed = 1;
nodes = (
(353,562,l),
(319,559,l),
(319,202,l),
(392,245,l),
(93,245,l),
(92,226,l)
);
}
);
width = 590;
}
);
unicode = 52;
},
{
color = 4;
glyphname = five;
layers = (
{
layerId = m01;
shapes = (
{
closed = 1;
nodes = (
(410,-14,o),
(512,96,o),
(512,251,cs),
(512,375,o),
(418,462,o),
(286,462,cs),
(228,462,o),
(171,449,o),
(156,430,c),
(159,417,l),
(183,638,l),
(163,620,l),
(462,620,l),
(472,748,l),
(434,748,l),
(410,683,l),
(434,700,l),
(135,700,l),
(99,349,l),
(109,341,l),
(151,374,o),
(208,397,o),
(246,397,cs),
(344,397,o),
(413,323,o),
(413,219,cs),
(413,103,o),
(360,21,o),
(286,21,cs),
(212,21,o),
(136,106,o),
(126,184,c),
(104,184,l),
(80,74,l),
(130,22,o),
(207,-14,o),
(266,-14,cs)
);
}
);
width = 580;
},
{
associatedMasterId = m01;
layerId = "1A4747A4-C5D2-483C-AC0C-E6C9B6BD64D5";
name = "1. Jan. 24, 17:28";
shapes = (
{
closed = 1;
nodes = (
(410,-14,o),
(512,96,o),
(512,251,cs),
(512,375,o),
(418,462,o),
(286,462,cs),
(233,462,o),
(181,451,o),
(161,435,c),
(181,620,l),
(416,620,l),
(444,542,l),
(482,542,l),
(462,700,l),
(135,700,l),
(99,349,l),
(109,341,l),
(151,374,o),
(208,397,o),
(246,397,cs),
(344,397,o),
(413,323,o),
(413,219,cs),
(413,103,o),
(360,21,o),
(286,21,cs),
(212,21,o),
(136,106,o),
(126,184,c),
(104,184,l),
(80,74,l),
(130,22,o),
(207,-14,o),
(266,-14,cs)
);
}
);
width = 580;
},
{
associatedMasterId = m01;
layerId = "7709C619-CB0A-473C-9407-E9C3975A9468";
name = "3. Jan. 24, 18:56";
shapes = (
{
closed = 1;
nodes = (
(410,-14,o),
(512,96,o),
(512,251,cs),
(512,375,o),
(418,462,o),
(286,462,cs),
(228,462,o),
(171,449,o),
(156,430,c),
(159,417,l),
(183,638,l),
(163,620,l),
(434,620,l),
(410,637,l),
(434,572,l),
(472,572,l),
(462,700,l),
(135,700,l),
(99,349,l),
(109,341,l),
(151,374,o),
(208,397,o),
(246,397,cs),
(344,397,o),
(413,323,o),
(413,219,cs),
(413,103,o),
(360,21,o),
(286,21,cs),
(212,21,o),
(136,106,o),
(126,184,c),
(104,184,l),
(80,74,l),
(130,22,o),
(207,-14,o),
(266,-14,cs)
);
}
);
width = 580;
},
{
hints = (
{
horizontal = 1;
place = (-17, 41);
place = (-17, 41);
type = Stem;
},
{
horizontal = 1;
place = (394, 71);
place = (394, 71);
type = Stem;
},
{
horizontal = 1;
place = (617, 86);
place = (617, 86);
type = Stem;
},
{
place = (370, 185);
place = (370, 185);
type = Stem;
}
);
layerId = "E0989092-07D5-4BE4-A82B-4E03160A36DB";
shapes = (
{
closed = 1;
nodes = (
(411,-17,o),
(535,94,o),
(535,251,cs),
(535,376,o),
(424,465,o),
(266,465,cs),
(197,465,o),
(131,441,o),
(106,407,c),
(114,400,l),
(137,619,l),
(121,593,l),
(469,593,l),
(479,751,l),
(422,751,l),
(403,701,l),
(406,703,l),
(72,703,l),
(37,359,l),
(89,316,l),
(120,362,o),
(196,394,o),
(226,394,cs),
(299,394,o),
(360,321,o),
(360,219,cs),
(360,111,o),
(311,34,o),
(256,34,cs),
(171,34,o),
(111,96,o),
(111,184,c),
(42,187,l),
(20,82,l),
(66,24,o),
(155,-17,o),
(236,-17,cs)
);
}
);
width = 560;
}
);
unicode = 53;
},
{
color = 4;
glyphname = six;
layers = (
{
layerId = m01;
shapes = (
{
closed = 1;
nodes = (
(434,-13,o),
(526,87,o),
(526,228,cs),
(526,342,o),
(439,422,o),
(315,422,cs),
(258,422,o),
(200,392,o),
(160,345,c),
(167,343,l),
(178,483,o),
(298,620,o),
(461,673,c),
(455,715,l),
(230,661,o),
(70,485,o),
(70,290,cs),
(70,113,o),
(167,-13,o),
(305,-13,cs)
);
},
{
closed = 1;
nodes = (
(230,18,o),
(166,149,o),
(166,333,c),
(159,307,l),
(189,346,o),
(241,372,o),
(295,372,cs),
(378,372,o),
(437,297,o),
(437,190,cs),
(437,89,o),
(390,18,o),
(324,18,cs)
);
}
);
width = 580;
},
{
associatedMasterId = m01;
layerId = "3277B660-BE81-4AB4-86EE-2677D2A8F419";
name = "1. Jan. 24, 17:29";
shapes = (
{
closed = 1;
nodes = (
(434,-13,o),
(526,87,o),
(526,228,cs),
(526,342,o),
(439,422,o),
(315,422,cs),
(237,422,o),
(156,364,o),
(119,282,c),
(139,268,l),
(159,329,o),
(224,372,o),
(295,372,cs),
(378,372,o),
(437,297,o),
(437,190,cs),
(437,89,o),
(390,18,o),
(324,18,cs),
(231,18,o),
(166,148,o),
(166,332,c),
(172,477,o),
(294,618,o),
(461,673,c),
(455,715,l),
(230,661,o),
(70,485,o),
(70,290,cs),
(70,113,o),
(167,-13,o),
(305,-13,cs)
);
}
);
width = 580;
},
{
hints = (
{
horizontal = 1;
place = (-16, 37);
place = (-16, 37);
type = Stem;
},
{
horizontal = 1;
place = (369, 56);
place = (369, 56);
type = Stem;
},
{
place = (27, 182);
place = (27, 182);
type = Stem;
},
{
place = (394, 175);
place = (394, 175);
type = Stem;
}
);
layerId = "E0989092-07D5-4BE4-A82B-4E03160A36DB";
shapes = (
{
closed = 1;
nodes = (
(442,-16,o),
(551,85,o),
(551,228,cs),
(551,343,o),
(446,425,o),
(297,425,cs),
(267,425,o),
(224,414,o),
(192,394,c),
(194,393,l),
(194,531,o),
(363,649,o),
(485,678,c),
(479,730,l),
(204,683,o),
(9,500,o),
(9,290,cs),
(9,111,o),
(124,-16,o),
(287,-16,cs)
);
},
{
closed = 1;
nodes = (
(240,34,o),
(192,158,o),
(191,329,c),
(187,320,l),
(208,350,o),
(244,369,o),
(277,369,cs),
(335,369,o),
(376,295,o),
(376,190,cs),
(376,99,o),
(347,34,o),
(306,34,cs)
);
}
);
width = 590;
}
);
unicode = 54;
},
{
color = 4;
glyphname = seven;
layers = (
{
layerId = m01;
shapes = (
{
closed = 1;
nodes = (
(234,0,l),
(545,683,l),
(528,700,l),
(98,700,l),
(78,507,l),
(126,507,l),
(159,627,l),
(136,610,l),
(467,610,l),
(457,626,l),
(125,0,l)
);
}
);
width = 580;
},
{
hints = (
{
horizontal = 1;
place = (-3, 21);
target = up;
type = BottomGhost;
},
{
horizontal = 1;
place = (607, 96);
place = (607, 96);
type = Stem;
},
{
place = (35, 548);
place = (35, 548);
type = Stem;
},
{
horizontal = 1;
place = (678, 25);
place = (678, 25);
type = Stem;
},
{
horizontal = 1;
place = (504, 199);
place = (504, 199);
type = Stem;
}
);
layerId = "E0989092-07D5-4BE4-A82B-4E03160A36DB";
shapes = (
{
closed = 1;
nodes = (
(253,-3,l),
(564,678,l),
(539,701,l),
(36,701,l),
(16,516,l),
(99,516,l),
(133,627,l),
(114,611,l),
(451,611,l),
(442,632,l),
(64,-3,l)
);
}
);
width = 570;
}
);
unicode = 55;
},
